<svg width="154" height="150" viewBox="0 0 154 150" fill="none" xmlns="http://www.w3.org/2000/svg">
<g clip-path="url(#clip0_90_178)">
<path d="M128.1 0H25.5C11.4167 0 0 11.4167 0 25.5V124.26C0 138.343 11.4167 149.76 25.5 149.76H128.1C142.183 149.76 153.6 138.343 153.6 124.26V25.5C153.6 11.4167 142.183 0 128.1 0Z" fill="#00005B"/>
<path d="M61.7058 89.5998H37.9032L33.06 104.672C32.9979 104.931 32.8526 105.162 32.6465 105.329C32.4404 105.497 32.185 105.592 31.9194 105.601L19.7682 105.6C19.0802 105.6 18.8398 105.222 19.047 104.466L39.6552 45.3606L39.861 44.7396L39.9294 44.5272L40.0674 44.0832C40.1358 43.854 40.2042 43.611 40.2732 43.3476C40.5432 41.973 40.6812 40.5756 40.6854 39.1746C40.6714 39.0766 40.6805 38.9768 40.7118 38.8829C40.7432 38.7891 40.7959 38.7038 40.8658 38.6338C40.9358 38.5639 41.0211 38.5111 41.1149 38.4798C41.2088 38.4485 41.3086 38.4394 41.4066 38.4534H57.7902C58.2702 38.4534 58.545 38.6252 58.6146 38.9688L82.0044 104.57C82.2104 105.257 82.0044 105.6 81.3864 105.6H67.9908C67.7608 105.625 67.5295 105.566 67.34 105.433C67.1505 105.3 67.0157 105.103 66.9606 104.879L61.7058 89.5998ZM41.613 76.8912H57.8934L57.6612 76.125L57.2886 74.9118L56.7432 73.1742L55.6962 69.894L54.699 66.7416L52.8438 60.8682C52.3312 59.2469 51.8392 57.6191 51.3678 55.9854L50.841 54.1278L50.2722 52.092L49.7526 50.2038H49.6494C49.1336 52.677 48.5058 55.1255 47.7678 57.5418L47.0718 59.7756L45.3978 65.1756L44.5494 67.9266C44.3962 68.4234 44.2432 68.9146 44.0904 69.4002L43.6344 70.839L43.1808 72.2442L42.7296 73.6146L42.2808 74.9508C42.0572 75.6108 41.8346 76.2576 41.613 76.8912ZM119.924 83.7336H99.6252C99.8734 85.7419 100.54 87.6758 101.583 89.4102C102.735 91.1279 104.365 92.471 106.271 93.2742C108.854 94.3926 111.648 94.9403 114.463 94.8798C116.695 94.8366 118.92 94.5924 121.109 94.1502C123.066 93.8861 124.985 93.3861 126.823 92.661C127.166 92.387 127.338 92.5586 127.339 93.1758V102.965C127.355 103.232 127.302 103.498 127.183 103.738C127.066 103.925 126.907 104.083 126.72 104.201C124.681 105.104 122.536 105.743 120.336 106.103C117.347 106.665 114.309 106.923 111.268 106.876C106.543 106.876 102.559 106.167 99.318 104.749L99.006 104.609C95.8899 103.237 93.1379 101.155 90.9696 98.5296C88.944 96.0561 87.4371 93.2002 86.5386 90.132C85.6495 87.1034 85.1987 83.9631 85.2 80.8068C85.1902 77.3602 85.7293 73.9341 86.7972 70.6572C87.8253 67.4608 89.4511 64.4888 91.5882 61.899C93.6967 59.3399 96.3327 57.2661 99.3162 55.8192C102.338 54.3432 105.911 53.8134 110.032 53.8134C113.45 53.7278 116.845 54.3962 119.976 55.7712C122.608 56.8936 124.925 58.6435 126.725 60.8682C128.413 63.0462 129.704 65.5054 130.537 68.1324C131.349 70.6639 131.766 73.3052 131.774 75.9636C131.774 77.4756 131.722 78.8496 131.62 80.0856L131.528 81.144L131.432 82.1484L131.375 82.6572L131.362 82.7646C131.335 82.9917 131.226 83.201 131.055 83.353C130.884 83.505 130.663 83.5889 130.435 83.589L130.152 83.595L129.8 83.613L129.526 83.6328L128.885 83.6874L128.322 83.7432C128.169 83.7592 128.01 83.7742 127.845 83.7882L127.334 83.8284L126.789 83.8644L126.21 83.8944L125.597 83.9202L125.277 83.931L124.613 83.949C123.956 83.9652 123.283 83.9244 122.592 83.874L121.544 83.7972C121.005 83.7577 120.464 83.7365 119.924 83.7336ZM99.6258 74.3466H113.657L114.853 74.3388L115.665 74.3274L116.191 74.3154L116.782 74.295C117.31 74.2422 117.82 74.0731 118.276 73.8V73.182C118.255 72.3761 118.117 71.5775 117.864 70.812C117.308 69.054 116.19 67.5271 114.683 66.4659C113.175 65.4048 111.36 64.868 109.518 64.938C107.784 64.8332 106.057 65.2354 104.547 66.0954C103.038 66.9554 101.811 68.236 101.017 69.7812C100.31 71.2184 99.8407 72.7596 99.6258 74.3466Z" fill="#9999FF"/>
</g>
<defs>
<clipPath id="clip0_90_178">
<rect width="153.6" height="150" fill="white"/>
</clipPath>
</defs>
</svg>
