<svg width="150" height="150" viewBox="0 0 150 150" fill="none" xmlns="http://www.w3.org/2000/svg">
<path d="M60.1172 20.7422H27.1875C20.625 20.7422 15.2344 26.1328 15.2344 32.8125C15 39.2578 20.1562 44.6484 26.6016 44.8828H60.4687L60.1172 20.7422Z" fill="#073042"/>
<path d="M134.766 128.086H27.1875C20.5078 128.086 15.2344 122.695 15.2344 116.016V32.6953C15.2344 39.375 20.625 44.7656 27.1875 44.8828H117.305C117.305 44.8828 134.883 43.3594 134.883 56.6016V128.086H134.766Z" fill="#4285F4"/>
<path d="M84.6094 85.4297C89.4141 81.7969 90.3516 75 86.7188 70.3125C84.7266 67.7344 81.6797 66.0938 78.3984 65.9766H78.75C79.3359 65.8594 80.0391 65.8594 80.625 65.9766V59.2969C80.625 58.4766 80.2734 57.7735 79.5703 57.4219C78.5156 56.836 77.2266 57.1875 76.6406 58.2422C76.4063 58.5938 76.2891 58.9454 76.4062 59.4141V66.211C70.5469 67.1485 66.4453 72.6563 67.3828 78.6329V78.75C67.8516 81.5625 69.375 84.1407 71.7188 85.7813L51.9141 128.203H64.8047L73.9453 108.75C75 106.406 77.8125 105.352 80.2734 106.523C81.2109 106.992 82.0313 107.813 82.5 108.75L91.9922 128.203H105.117L84.6094 85.4297ZM77.9297 83.5547C74.1797 83.5547 71.25 80.5079 71.25 76.7579C71.25 73.0079 74.2969 70.0782 78.0469 70.1954C79.8047 70.1954 81.3281 70.8985 82.6172 72.0704C85.3125 74.6485 85.3125 78.8672 82.7344 81.5625C81.5625 82.7344 79.8047 83.5547 77.9297 83.5547Z" fill="#3870B2"/>
<path d="M52.9688 26.6016H99.1406V35.0391H52.9688V26.6016Z" fill="white"/>
<path d="M74.4141 70.0782C78.0469 70.0782 81.0938 73.125 80.9766 76.875C80.9766 80.5078 77.9297 83.5547 74.1797 83.4375C70.5469 83.4375 67.6172 80.3907 67.6172 76.7579C67.6172 75 68.3203 73.3594 69.6094 72.0704C70.8985 70.7813 72.6563 70.0782 74.4141 70.0782ZM76.9922 66.211V59.1797C76.9922 58.3594 76.6407 57.6563 75.9375 57.3047C74.8828 56.7188 73.5938 57.0703 73.0078 58.125C72.7735 58.4766 72.6563 58.8282 72.7735 59.2969V66.0938C66.9141 67.0313 62.8125 72.5391 63.75 78.5157V78.6328C64.2188 81.4453 65.7422 84.0235 68.086 85.6641L43.125 139.219C42.1875 141.094 42.3047 143.438 43.5938 145.195C45.4688 147.891 49.1016 148.594 51.7969 146.719C52.7344 146.133 53.4375 145.195 53.9063 144.258L70.5469 108.633C71.6016 106.289 74.4141 105.234 76.875 106.406C77.8125 106.875 78.6328 107.695 79.1016 108.633L96.0938 143.906C97.5 146.836 101.016 148.008 103.945 146.602C106.875 145.195 108.047 141.68 106.641 138.75L80.9766 85.4297C85.6641 81.6797 86.4844 74.7657 82.7344 70.0782C81.3281 68.2032 79.336 66.9141 76.9922 66.211Z" fill="#073042"/>
<path d="M92.3438 34.1016C90.5859 34.1016 89.1797 32.8125 89.1797 31.0547C89.1797 30.2344 89.5312 29.2969 90.1172 28.7109C91.4062 27.5391 93.2812 27.5391 94.5703 28.7109C95.1562 29.2969 95.5078 30.1172 95.5078 30.9375C95.3906 32.6953 94.1016 33.9844 92.3438 34.1016ZM57.6563 33.9844C55.8984 33.9844 54.4922 32.5781 54.4922 30.9375C54.4922 30.1172 54.8438 29.2969 55.4297 28.7109C56.4844 27.4219 58.4766 27.1875 59.7656 28.2422H59.8828C61.1719 29.4141 61.2891 31.4062 60.1172 32.6953L59.7656 33.1641C59.1797 33.75 58.3594 34.1016 57.5391 34.1016M93.2812 15.1172L99.4922 4.33594C99.8438 3.75 99.6094 3.04688 99.1406 2.57813C98.5547 2.34375 97.9688 2.46094 97.6172 2.92969L91.1719 14.0625C80.8594 9.49219 69.1406 9.49219 58.9453 14.0625L52.6172 3.04687C52.3828 2.69531 51.9141 2.34375 51.4453 2.34375C50.9766 2.34375 50.5078 2.57812 50.2734 3.04687C50.0391 3.39844 50.0391 3.98438 50.2734 4.33594L56.6016 15.1172C45.5859 21.0938 38.4375 32.3438 37.3828 44.7656H112.617C111.68 32.2266 104.414 21.0938 93.3984 15.1172" fill="#3DDC84"/>
<path d="M123.75 68.0859H118.828C118.594 68.2031 118.359 68.4375 118.359 68.7891V146.719C118.359 147.07 118.594 147.305 118.945 147.305H124.102C130.078 147.305 134.883 142.383 134.883 136.523V57.1875C134.883 63.1641 130.078 67.9688 124.102 67.9688H123.75V68.0859Z" fill="#073042"/>
</svg>
