<svg width="185" height="150" viewBox="0 0 185 150" fill="none" xmlns="http://www.w3.org/2000/svg">
<g clip-path="url(#clip0_90_174)">
<path d="M72.4278 83.0733C73.0992 71.0978 78.9629 60.5481 87.81 53.069C96.4855 45.7233 108.162 41.2334 120.904 41.2334C133.632 41.2334 145.31 45.7233 153.992 53.069C162.832 60.5473 168.696 71.0978 169.374 83.0603C170.045 95.3647 165.099 106.795 156.423 115.268C147.577 123.886 134.994 129.294 120.904 129.294C106.814 129.294 94.2059 123.886 85.3653 115.268C76.6833 106.794 71.7499 95.3639 72.4278 83.0733Z" fill="white"/>
<path d="M96.0369 84.1414C96.3809 77.9971 99.3903 72.5834 103.929 68.7462C108.381 64.9774 114.372 62.6733 120.91 62.6733C127.441 62.6733 133.433 64.9774 137.888 68.7462C142.424 72.5834 145.432 77.9971 145.78 84.1356C146.125 90.4486 143.588 96.3137 139.135 100.661C134.596 105.083 128.14 107.858 120.91 107.858C113.681 107.858 107.211 105.083 102.675 100.661C98.2206 96.3137 95.6893 90.4486 96.0369 84.1414Z" fill="#265787"/>
<path d="M56.548 96.7644C56.5913 99.1731 57.3593 103.856 58.5124 107.513C60.9348 115.253 65.0439 122.414 70.7619 128.724C76.63 135.211 83.8552 140.421 92.2018 144.12C100.974 148.005 110.479 149.984 120.351 149.968C130.208 149.955 139.714 147.936 148.486 144.022C156.832 140.287 164.05 135.054 169.909 128.564C175.623 122.228 179.726 115.054 182.156 107.314C183.377 103.403 184.148 99.4342 184.458 95.4512C184.76 91.5221 184.633 87.5718 184.077 83.6705C182.989 76.0183 180.341 68.8385 176.265 62.2933C172.536 56.2789 167.73 51.0137 162.015 46.5815L162.028 46.5721L104.358 2.28967C104.305 2.25073 104.262 2.20891 104.207 2.17285C100.424 -0.73196 94.0602 -0.721864 89.8992 2.18871C85.692 5.13246 85.2102 10.001 88.9545 13.0709L88.9386 13.0875L112.993 32.6481L39.678 32.726H39.58C33.5201 32.7332 27.6953 36.7089 26.5415 41.7332C25.3566 46.8519 29.473 51.0981 35.7737 51.1212L35.7636 51.1435L72.9247 51.0714L6.61312 101.971C6.52875 102.033 6.43716 102.098 6.35928 102.16C0.10399 106.95 -1.91813 114.915 2.02154 119.955C6.02034 125.081 14.5227 125.091 20.8429 119.985L57.0333 90.3664C57.0333 90.3664 56.5054 94.3644 56.548 96.7644ZM149.544 110.153C142.088 117.751 131.647 122.058 120.352 122.081C109.039 122.101 98.5999 117.832 91.1432 110.248C87.4992 106.552 84.823 102.299 83.1715 97.7697C81.5477 93.3123 80.9231 88.5524 81.342 83.8269C81.7357 79.1668 83.1232 74.7224 85.3372 70.7005C87.5122 66.7479 90.5078 63.1753 94.2074 60.1536C101.455 54.2474 110.684 51.0491 120.335 51.0361C129.997 51.0231 139.218 54.1918 146.474 60.0793C150.166 63.0873 153.159 66.6469 155.334 70.5938C157.577 74.637 158.943 79.1069 159.346 83.713C159.758 88.4356 159.131 93.1914 157.509 97.6457C155.854 102.189 153.188 106.442 149.544 110.153Z" fill="#EA7600"/>
</g>
<defs>
<clipPath id="clip0_90_174">
<rect width="184.62" height="150" fill="white"/>
</clipPath>
</defs>
</svg>
