<svg width="158" height="166" viewBox="0 0 158 166" fill="none" xmlns="http://www.w3.org/2000/svg">
<path d="M110.211 57.9549L109.364 57.0993C101.904 49.6407 91.7879 45.4501 81.2391 45.4488H78.9636C69.018 45.4488 59.4797 49.3997 52.4471 56.4323C45.4145 63.4649 41.4635 73.0032 41.4635 82.9488C41.4635 92.8944 45.4145 102.433 52.4471 109.465C59.4797 116.498 69.018 120.449 78.9636 120.449H81.2391C86.4625 120.449 91.6348 119.42 96.4605 117.421C101.286 115.422 105.671 112.492 109.364 108.798L110.211 107.952M116.464 23.5768L86.3362 5.98277C84.1094 4.68422 81.5777 4 78.9999 4C76.4222 4 73.8906 4.68422 71.6638 5.98277L11.2269 41.2346C9.02804 42.5168 7.20364 44.353 5.93561 46.5601C4.66757 48.7672 4.00025 51.2681 4 53.8135V112.066C4.00025 114.611 4.66757 117.112 5.93561 119.319C7.20364 121.526 9.02804 123.363 11.2269 124.645L71.6638 159.906C73.8906 161.204 76.4222 161.889 78.9999 161.889C81.5777 161.889 84.1094 161.204 86.3362 159.906L146.773 124.645C148.972 123.363 150.796 121.526 152.064 119.319C153.332 117.112 154 114.611 154 112.066V53.8135C154 51.2681 153.332 48.7672 152.064 46.5601C150.796 44.353 148.972 42.5168 146.773 41.2346L116.464 23.5768Z" stroke="#004481" stroke-width="6.25" stroke-miterlimit="10"/>
<path d="M75.8179 88.6106C74.3941 88.3915 73.3536 87.9534 72.6965 87.2963C72.0393 86.5844 71.7107 85.8177 71.7107 84.9963C71.7107 84.1201 72.0667 83.2986 72.7786 82.532C73.4905 81.7653 74.6131 81.3546 76.1465 81.2998H84.3609V69.7176C84.6347 68.5128 85.1275 67.6366 85.8394 67.089C86.5514 66.5413 87.4002 66.2675 88.3859 66.2675C89.2621 66.2675 90.0835 66.5413 90.8502 67.089C91.6169 67.5818 92.1371 68.3759 92.4109 69.4711V81.2998H102.597C103.802 81.6284 104.678 82.1486 105.225 82.8605C105.828 83.5177 106.129 84.2296 106.129 84.9963C106.129 85.7629 105.8 86.4749 105.143 87.132C104.541 87.7892 103.61 88.282 102.35 88.6106H92.4109V100.357C92.3562 101.781 91.9181 102.794 91.0966 103.396C90.2752 104.054 89.3716 104.382 88.3859 104.382C87.4002 104.382 86.524 104.081 85.7573 103.479C84.9906 102.876 84.5251 101.945 84.3609 100.686V88.6106H75.8179ZM115.892 88.6106C114.468 88.3915 113.428 87.9534 112.77 87.2963C112.113 86.5844 111.785 85.8177 111.785 84.9963C111.785 84.1201 112.141 83.2986 112.853 82.532C113.564 81.7653 114.687 81.3546 116.22 81.2998H124.435V69.7176C124.709 68.5128 125.201 67.6366 125.913 67.089C126.625 66.5413 127.474 66.2675 128.46 66.2675C129.336 66.2675 130.157 66.5413 130.924 67.089C131.691 67.5818 132.211 68.3759 132.485 69.4711V81.2998H142.671C143.875 81.6284 144.752 82.1486 145.299 82.8605C145.902 83.5177 146.203 84.2296 146.203 84.9963C146.203 85.7629 145.874 86.4749 145.217 87.132C144.615 87.7892 143.684 88.282 142.424 88.6106H132.485V100.357C132.43 101.781 131.992 102.794 131.171 103.396C130.349 104.054 129.446 104.382 128.46 104.382C127.474 104.382 126.598 104.081 125.831 103.479C125.065 102.876 124.599 101.945 124.435 100.686V88.6106H115.892Z" fill="#004481"/>
</svg>
