<svg width="158" height="165" viewBox="0 0 158 165" fill="none" xmlns="http://www.w3.org/2000/svg">
<path d="M110.256 57.9211L109.401 57.0746C105.708 53.3799 101.323 50.4492 96.4976 48.4501C91.6717 46.451 86.499 45.4228 81.2755 45.4242H79C69.0544 45.4242 59.5161 49.375 52.4835 56.4076C45.4509 63.4403 41.5001 72.9785 41.5001 82.9242C41.5001 92.8698 45.4509 102.408 52.4835 109.441C59.5161 116.473 69.0544 120.424 79 120.424H81.2755C86.4989 120.424 91.6713 119.396 96.497 117.397C101.323 115.398 105.707 112.468 109.401 108.774L110.256 107.927M116.5 23.5522L86.3453 5.98544C84.1174 4.68518 81.5841 4 79.0046 4C76.425 4 73.8918 4.68518 71.6639 5.98544L11.227 41.2372C9.02815 42.5195 7.20375 44.3557 5.93572 46.5627C4.66769 48.7698 4.00025 51.2707 4 53.8161V112.069C4.00025 114.614 4.66769 117.115 5.93572 119.322C7.20375 121.529 9.02815 123.365 11.227 124.647L71.6639 159.899C73.8918 161.199 76.425 161.885 79.0046 161.885C81.5841 161.885 84.1174 161.199 86.3453 159.899L146.782 124.647C148.979 123.364 150.802 121.527 152.068 119.32C153.335 117.113 154.001 114.613 154 112.069V53.8161C154.001 51.2716 153.335 48.7713 152.068 46.5643C150.802 44.3573 148.979 42.5206 146.782 41.2372L116.5 23.5522Z" stroke="#283592" stroke-width="6.25" stroke-miterlimit="10"/>
</svg>
