<svg width="158" height="158" viewBox="0 0 158 158" fill="none" xmlns="http://www.w3.org/2000/svg">
<path d="M35.3104 66.5037C26.2566 69.5637 20.6857 73.7756 20.6857 78.4735C20.6857 84.8364 31.1075 90.3802 46.4882 93.2512C40.7733 96.1401 37.3623 99.8121 37.3623 103.808C37.3623 113.132 56.01 120.692 79.0225 120.692C84.6083 120.702 90.1847 120.232 95.6902 119.288M46.4612 93.2332C54.4459 94.6553 62.5423 95.3571 70.6527 95.3301C83.4594 95.3301 95.1412 93.7102 103.952 91.0283M112.277 64.9288C101.693 68.0607 86.9333 70.0047 70.6167 70.0047C38.4063 70.0047 12.2798 62.4448 12.2798 53.112C12.2798 45.9122 27.8585 39.7653 49.7821 37.3353" stroke="#EB4E20" stroke-width="6.25" stroke-linecap="round" stroke-linejoin="round"/>
<path d="M154 132.022C154 144.163 120.422 154 79.0045 154C37.5873 154 4 144.172 4 132.022C4 123.401 16.8068 115.931 41.5023 112.331M129.7 54.912C161.308 46.7041 165.817 95.9241 120.701 112.331M120.701 4C115.157 4.89998 104.708 10.1199 107.372 23.4486C110.036 36.7773 106.256 43.8242 104.042 45.6692M87.3654 4C81.8125 5.11598 71.3637 11.3348 74.0276 27.3365C76.6916 43.3382 72.9206 47.6131 70.6977 49.8361" stroke="#EB4E20" stroke-width="6.25" stroke-linecap="round" stroke-linejoin="round"/>
</svg>
