<svg width="165" height="120" viewBox="0 0 165 120" fill="none" xmlns="http://www.w3.org/2000/svg">
<path d="M153.905 46.7244C150.523 44.3776 142.784 43.4725 136.735 44.6703C136.031 38.8114 132.795 33.6897 127.164 29.1478L123.912 26.801L121.657 30.1722C118.844 34.5677 117.435 40.7192 117.863 46.5781C118.107 49.7512 119.121 52.8169 120.817 55.51C118.85 56.6861 114.768 58.1495 109.435 58.1495H7.67762L7.39577 59.3201C6.40936 65.179 6.40935 83.4873 17.9536 97.5518C26.6796 108.245 39.6331 113.665 56.6514 113.665C93.5064 113.665 120.828 95.9367 133.613 63.862C138.681 64.0083 149.521 63.862 155.005 52.8759C155.146 52.5833 155.428 51.9979 156.415 49.7975L156.957 48.6268L153.905 46.7244Z" stroke="#2395EC" stroke-width="12.5" stroke-miterlimit="10"/>
<path d="M89.0242 0H73.5451V14.6499H89.0242V0Z" fill="#2395EC"/>
<path d="M89.0242 17.5767H73.5451V32.2265H89.0242V17.5767Z" fill="#2395EC"/>
<path d="M70.7267 17.5767H55.2477V32.2265H70.7267V17.5767Z" fill="#2395EC"/>
<path d="M52.4293 17.5767H36.9503V32.2265H52.4293V17.5767Z" fill="#2395EC"/>
<path d="M34.1319 35.1531H18.6528V49.8029H34.1319V35.1531Z" fill="#2395EC"/>
<path d="M52.4293 35.1531H36.9503V49.8029H52.4293V35.1531Z" fill="#2395EC"/>
<path d="M70.7267 35.1531H55.2477V49.8029H70.7267V35.1531Z" fill="#2395EC"/>
<path d="M89.0187 35.1531H73.5397V49.8029H89.0187V35.1531Z" fill="#2395EC"/>
<path d="M107.316 35.1531H91.8371V49.8029H107.316V35.1531Z" fill="#2395EC"/>
</svg>
