<svg width="176" height="176" viewBox="0 0 176 176" fill="none" xmlns="http://www.w3.org/2000/svg">
<path d="M87.5399 0.00049459C85.9461 -0.0126593 84.3656 0.291835 82.8907 0.896201C81.4159 1.50057 80.0762 2.3927 78.95 3.5205L61.3599 21.2905C60.4135 21.7979 59.6116 22.5378 59.0299 23.4405L3.54993 78.9005C1.27646 81.1833 0 84.2738 0 87.4955C0 90.7172 1.27646 93.8077 3.54993 96.0905L78.95 171.49C81.2374 173.751 84.3238 175.019 87.5399 175.019C90.756 175.019 93.8425 173.751 96.1299 171.49L171.53 96.0905C173.803 93.8077 175.08 90.7172 175.08 87.4955C175.08 84.2738 173.803 81.1833 171.53 78.9005L96.1299 3.51049C95.0028 2.38449 93.6628 1.49422 92.1879 0.891585C90.7131 0.288952 89.133 -0.0139696 87.5399 0.00049459ZM87.5399 12.6905L162.35 87.5005L87.5399 162.311L12.7299 87.5005L64.4999 35.7405L75.4299 46.6805C74.7535 49.3426 74.9591 52.1522 76.0157 54.6875C77.0724 57.2228 78.9231 59.3468 81.2899 60.7405V114.26C79.3926 115.339 77.8149 116.902 76.7172 118.788C75.6194 120.674 75.0407 122.818 75.0399 125C75.0399 128.316 76.3569 131.495 78.7011 133.839C81.0453 136.184 84.2247 137.501 87.5399 137.501C90.8551 137.501 94.0346 136.184 96.3788 133.839C98.723 131.495 100.04 128.316 100.04 125C100.037 122.818 99.4576 120.676 98.36 118.79C97.2625 116.903 95.6858 115.341 93.7899 114.26V65.2605L112.93 84.3905C112.208 87.178 112.47 90.1294 113.673 92.7459C114.875 95.3624 116.944 97.4834 119.53 98.7505C121.248 99.5832 123.131 100.017 125.04 100.021C126.82 100.027 128.581 99.6537 130.205 98.9254C131.829 98.197 133.279 97.1305 134.458 95.797C135.637 94.4634 136.518 92.8937 137.042 91.1925C137.566 89.4914 137.721 87.698 137.496 85.9322C137.272 84.1665 136.673 82.4689 135.74 80.9531C134.807 79.4372 133.561 78.1379 132.086 77.142C130.61 76.1461 128.939 75.4765 127.185 75.1779C125.43 74.8793 123.632 74.9586 121.91 75.4105L99.65 53.1405C100.127 51.2934 100.175 49.3616 99.7902 47.493C99.4054 45.6245 98.5981 43.8688 97.4299 42.3605C96.2619 40.8506 94.7628 39.6289 93.0481 38.7898C91.3334 37.9507 89.4489 37.5164 87.5399 37.5205C86.424 37.4996 85.3104 37.6308 84.2299 37.9105L73.2899 26.9705L87.5399 12.6905Z" fill="#EF5233"/>
</svg>
