<svg width="214" height="190" viewBox="0 0 214 190" fill="none" xmlns="http://www.w3.org/2000/svg">
<path d="M148.128 159.614L109.148 175.081L114.486 188.511L153.467 173.044L148.128 159.614Z" stroke="black" stroke-miterlimit="10"/>
<path d="M144.791 117.412C144.639 113.212 142.991 109.205 140.144 106.113L89.7873 51.3976L84.7053 53.4143L107.807 111.547C109.364 111.266 110.97 111.574 112.313 112.41C113.655 113.246 114.64 114.551 115.074 116.071C115.508 117.591 115.362 119.218 114.663 120.636C113.964 122.054 112.763 123.163 111.292 123.746C109.821 124.329 108.186 124.345 106.704 123.792C105.222 123.238 103.999 122.154 103.272 120.75C102.545 119.346 102.366 117.722 102.769 116.194C103.173 114.665 104.131 113.341 105.457 112.479L82.3555 54.3459L77.3553 56.3294L78.0793 129.815C78.1283 134.857 80.0255 139.706 83.412 143.445L107.947 170.521L146.125 154.988L144.791 117.412Z" stroke="black" stroke-miterlimit="10"/>
<path d="M205.949 83.7196L199.183 86.4035C179.834 43.4982 131.958 21.2801 86.9233 33.2154L142.09 11.3308C143 12.7026 144.387 13.6888 145.982 14.0991C147.577 14.5093 149.268 14.3145 150.728 13.5521C152.187 12.7898 153.313 11.514 153.886 9.97128C154.46 8.42852 154.441 6.7282 153.833 5.19867C153.225 3.66914 152.071 2.41892 150.595 1.68945C149.118 0.959985 147.423 0.803022 145.838 1.24888C144.252 1.69473 142.888 2.71177 142.009 4.10358C141.13 5.4954 140.799 7.16325 141.079 8.78503L84.7091 31.1501L82.7111 26.1237L64.9463 33.1681L66.943 38.1945L13.2124 59.5091C12.3025 58.1373 10.916 57.1511 9.32086 56.7408C7.72568 56.3306 6.03494 56.5254 4.57515 57.2878C3.11537 58.0501 1.99009 59.3259 1.41665 60.8686C0.843215 62.4114 0.862287 64.1117 1.47019 65.6412C2.07809 67.1708 3.23169 68.421 4.70821 69.1505C6.18473 69.8799 7.87942 70.0369 9.46499 69.591C11.0506 69.1452 12.4145 68.1281 13.2935 66.7363C14.1725 65.3445 14.5041 63.6767 14.2242 62.0549L65.5296 41.7014C24.5649 63.8824 4.98112 112.861 20.3603 157.342L14.3061 159.743L21.3593 177.492L39.1241 170.445L32.0709 152.696L25.5306 155.291C10.9816 112.826 30.211 66.0704 69.9132 45.6632L71.9995 50.9132L89.7643 43.874L87.7292 38.7517C130.262 27.1602 175.628 47.9943 194.012 88.4585L188.185 90.7704L195.235 108.516L213 101.469L205.949 83.7196Z" stroke="black" stroke-miterlimit="10"/>
</svg>
