<svg width="32" height="48" viewBox="0 0 32 48" fill="none" xmlns="http://www.w3.org/2000/svg">
<g clip-path="url(#clip0_122_315)">
<path d="M15.5601 42.12C14.7701 41 14 40 13.23 38.9C10.67 35.48 8.06005 32.09 5.53005 28.64C3.85806 26.329 2.42726 23.8527 1.26005 21.25C-1.68995 14.72 0.910049 7.81 5.28005 4C7.26594 2.2626 9.65069 1.04331 12.2219 0.450715C14.7931 -0.141876 17.471 -0.0893696 20.017 0.603557C22.563 1.29648 24.8981 2.60832 26.8144 4.42223C28.7306 6.23614 30.1686 8.49581 31 11C31.5749 12.74 31.7828 14.5803 31.6107 16.4048C31.4386 18.2292 30.8901 19.9982 30 21.6C27.9926 25.2869 25.6848 28.8021 23.1 32.11L16.1901 41.29C16.0001 41.55 15.7701 41.82 15.5601 42.12ZM15.8101 24.34C17.1905 24.3222 18.535 23.8967 19.6742 23.1168C20.8135 22.3369 21.6966 21.2376 22.2127 19.957C22.7287 18.6765 22.8546 17.2719 22.5744 15.92C22.2942 14.5681 21.6205 13.3293 20.6381 12.3593C19.6556 11.3893 18.4083 10.7315 17.0529 10.4686C15.6976 10.2058 14.2947 10.3495 13.0209 10.8819C11.747 11.4143 10.6591 12.3114 9.8938 13.4605C9.12854 14.6096 8.72016 15.9594 8.72005 17.34C8.73852 19.2064 9.49429 20.9898 10.8225 22.3011C12.1507 23.6124 13.9436 24.3454 15.8101 24.34Z" fill="#0C0C0C"/>
<path d="M15.5501 43.4097C15.6601 43.2697 15.7401 43.1697 15.8101 43.0597L19.8101 37.5397C19.8677 37.4325 19.9625 37.3499 20.0766 37.3076C20.1907 37.2652 20.3164 37.266 20.4301 37.3097C21.9229 37.628 23.3502 38.1996 24.6501 38.9997C25.0083 39.2299 25.3432 39.4945 25.6501 39.7897C26.0517 40.0916 26.3767 40.4839 26.5986 40.9348C26.8204 41.3857 26.933 41.8824 26.9272 42.3849C26.9213 42.8874 26.7972 43.3814 26.5649 43.827C26.3326 44.2726 25.9987 44.6572 25.5901 44.9497C24.3574 45.9929 22.8935 46.7266 21.3201 47.0897C17.2789 48.2057 12.9946 48.0733 9.03005 46.7097C7.72306 46.3042 6.53976 45.575 5.59005 44.5897C5.26217 44.3002 5.00157 43.9424 4.82652 43.5416C4.65146 43.1407 4.56619 42.7064 4.57667 42.2691C4.58715 41.8318 4.69313 41.4021 4.88718 41.0101C5.08124 40.6181 5.35868 40.2732 5.70005 39.9997C7.16119 38.6521 8.98103 37.7561 10.9401 37.4197C11.0601 37.4197 11.2901 37.5397 11.3901 37.6697C12.6701 39.423 13.9434 41.1797 15.2101 42.9397L15.5501 43.4097Z" fill="#68481C"/>
</g>
<defs>
<clipPath id="clip0_122_315">
<rect width="31.63" height="47.8" fill="white"/>
</clipPath>
</defs>
</svg>
