<svg width="274" height="154" viewBox="0 0 274 154" fill="none" xmlns="http://www.w3.org/2000/svg">
<path d="M41.8767 90.561C41.6009 85.3682 41.2696 86.4475 41.3236 81.8064H41.1587C39.8874 86.1717 38.3404 90.8114 36.462 95.9502L30.4312 112.524C30.1044 113.42 29.253 114.017 28.298 114.017H26.2413L20.2195 96.283C18.4521 91.0347 16.959 86.2272 15.9096 81.8079H15.7987C15.6878 86.449 15.4119 92.6912 15.0807 98.2723L14.0853 114.239H11.3839C10.366 114.239 9.56104 113.376 9.63149 112.361L11.9821 78.6433C12.0465 77.7184 12.8155 77.0018 13.742 77.0018H18.2287L24.5818 95.0133C26.1289 99.599 27.4001 103.687 28.3385 107.555H28.5034C29.4433 103.798 30.7685 99.7099 32.4265 95.0133L39.057 77.0018H43.908C44.6275 77.0018 45.2242 77.5625 45.2691 78.2806L45.9272 88.885C45.9917 89.9269 45.1642 90.8069 44.1208 90.8069H41.8392L41.8767 90.561Z" fill="#0C0C0C"/>
<path d="M47.1761 115.156L46.9303 113.011H46.8253C45.8764 114.347 44.0475 115.542 41.622 115.542C38.1771 115.542 36.4187 113.116 36.4187 110.656C36.4187 106.543 40.075 104.294 46.6484 104.329V103.976C46.6484 102.57 46.2617 100.04 42.7808 100.04C41.8724 100.04 40.9399 100.202 40.084 100.488C39.0781 100.822 37.9942 100.269 37.6494 99.2677C39.0556 98.3532 41.0943 97.7566 43.238 97.7566C48.4413 97.7566 49.7065 101.306 49.7065 104.717V111.079C49.7065 111.658 49.717 112.23 49.7425 112.782C49.8025 114.077 48.7621 115.156 47.4654 115.156H47.1761ZM46.7189 106.474C43.3445 106.403 39.5128 107.001 39.5128 110.305C39.5128 112.31 40.8485 113.259 42.43 113.259C44.6442 113.259 46.0503 111.852 46.542 110.412C46.6469 110.096 46.7174 109.743 46.7174 109.427V106.474H46.7189Z" fill="#0C0C0C"/>
<path d="M143.879 94.0928V95.3745C143.879 95.5109 143.772 95.6159 143.637 95.6159H119.655V100.812H119.723C120.213 99.9362 120.989 99.1597 121.94 98.632C122.853 98.1044 123.938 97.7566 125.1 97.7566C127.384 97.7566 131.042 99.1597 131.042 105.035V115.156H129.865C128.81 115.156 127.949 114.296 127.949 113.241V105.382C127.949 102.645 126.932 100.321 124.013 100.321C122.007 100.321 120.423 101.725 119.865 103.414C119.684 103.837 119.654 104.297 119.654 104.892V112.939C119.654 114.161 118.658 115.156 117.436 115.156H116.561V95.6159H57.791V100.812H57.8585C58.3487 99.9362 59.1252 99.1597 60.0756 98.632C60.9886 98.1044 62.0814 97.7566 63.2357 97.7566C65.5203 97.7566 69.178 99.1597 69.178 105.035V121.498L67.7299 121.271C66.7795 121.12 66.0854 120.306 66.0854 119.348V105.381C66.0854 102.644 65.0676 100.32 62.1488 100.32C60.1431 100.32 58.5586 101.723 58.0009 103.413C57.827 103.835 57.7895 104.296 57.7895 104.891V113.269C57.7895 114.309 56.944 115.155 55.9037 115.155H54.6969V95.6159H37.9342V94.3417C37.9342 94.2053 38.0391 94.0928 38.1756 94.0928H54.6999V82.4495L56.4419 83.7237C57.2933 84.3428 57.7925 85.3232 57.7925 86.3711V94.0943H116.564V85.8209C116.564 84.9229 117.024 84.0865 117.786 83.6113L119.657 82.4495V94.0943H143.879V94.0928Z" fill="#0C0C0C"/>
<path d="M83.6247 115.156L83.3788 113.013H83.2739C82.325 114.348 80.4961 115.543 78.0706 115.543C74.6257 115.543 72.8688 113.118 72.8688 110.658C72.8688 106.544 76.525 104.296 83.0985 104.33V103.978C83.0985 102.572 82.7117 100.041 79.2324 100.041C78.3239 100.041 77.39 100.203 76.5355 100.489C75.5296 100.824 74.4458 100.271 74.0995 99.2677C75.5057 98.3532 77.5444 97.7566 79.6896 97.7566C84.8929 97.7566 86.1581 101.306 86.1581 104.717V111.079C86.1581 111.56 86.1656 112.038 86.1836 112.503C86.2376 113.951 85.0878 115.156 83.6382 115.156H83.6247ZM83.169 106.474C79.7945 106.403 75.9629 107.001 75.9629 110.305C75.9629 112.31 77.2986 113.259 78.8801 113.259C81.0957 113.259 82.5004 111.852 82.9936 110.412C83.0985 110.096 83.169 109.743 83.169 109.427V106.474Z" fill="#0C0C0C"/>
<path d="M91.1471 103.45C91.1471 101.446 91.1112 99.7233 91.0062 98.1418H91.9971C92.9535 98.1418 93.736 98.9003 93.766 99.8567L93.817 101.482H93.9579C94.7314 99.1971 96.5948 97.755 98.668 97.755C99.0188 97.755 99.2647 97.7895 99.5465 97.8599V99.6319C99.5465 100.205 99.0773 100.674 98.5046 100.672H98.4926C96.313 100.672 94.7659 102.324 94.3447 104.645C94.2742 105.066 94.2053 105.559 94.2053 106.085V112.885C94.2053 114.138 93.1889 115.155 91.9357 115.155H91.1471V103.45Z" fill="#0C0C0C"/>
<path d="M102.219 111.993C103.134 112.591 104.75 113.224 106.297 113.224C108.547 113.224 109.601 112.1 109.601 110.694C109.601 109.217 108.722 108.409 106.438 107.565C103.38 106.475 101.938 104.787 101.938 102.749C101.938 100.007 104.152 97.7566 107.808 97.7566C108.553 97.7566 109.258 97.848 109.895 97.9979C111.074 98.2753 111.746 99.5255 111.352 100.671L111.218 101.061C110.55 100.639 109.32 100.076 107.737 100.076C105.91 100.076 104.891 101.13 104.891 102.396C104.891 103.802 105.91 104.435 108.124 105.279C111.077 106.403 112.588 107.88 112.588 110.412C112.588 113.4 110.268 115.509 106.226 115.509C105.475 115.509 104.747 115.434 104.066 115.3C102.594 115.008 101.738 113.456 102.206 112.032L102.219 111.993Z" fill="#0C0C0C"/>
<path d="M139.025 90.0318C139.059 91.0857 138.286 91.9297 137.056 91.9297C135.967 91.9297 135.193 91.0857 135.193 90.0318C135.193 88.942 136.001 88.098 137.127 88.098C138.287 88.098 139.025 88.942 139.025 90.0318ZM136.068 114.504V98.1419H139.161V115.644V116.62C137.454 116.621 136.068 116.213 136.068 114.504Z" fill="#0C0C0C"/>
<path d="M77.4411 117.302C77.1622 117.302 76.9134 117.46 76.792 117.717L75.3139 120.952L73.8283 117.724C73.7158 117.468 73.458 117.302 73.1717 117.302H72.5765L74.8461 121.962H75.2299C75.5612 121.962 75.8715 121.773 76.0139 121.472L78.0497 117.302H77.4411Z" fill="#0C0C0C"/>
<path d="M80.4272 117.302C80.1033 117.302 79.838 117.565 79.838 117.882V121.962H80.1708C80.5321 121.962 80.8199 121.668 80.8199 121.313V117.302H80.4272Z" fill="#0C0C0C"/>
<path d="M87.7427 117.302C87.395 117.302 87.0787 117.505 86.9287 117.822L85.4956 120.952L83.9576 117.595C83.8751 117.414 83.6937 117.302 83.4973 117.302H82.7583L85.0279 121.962H85.5031C85.7819 121.962 86.0383 121.803 86.1597 121.554L88.2329 117.302H87.7427Z" fill="#0C0C0C"/>
<path d="M90.5024 117.302V117.317C90.54 117.309 90.585 117.302 90.6301 117.302H90.5024Z" fill="#0C0C0C"/>
<path d="M91.0002 117.919V119.337H93.9789V119.956H91.0002V121.337H94.5066V121.964H90.0273V117.906C90.0273 117.619 90.2237 117.378 90.5025 117.318C90.54 117.31 90.585 117.303 90.63 117.303H94.5066V117.921H91.0002V117.919Z" fill="#0C0C0C"/>
<path d="M101.974 121.962H101.068C100.879 121.962 100.705 121.88 100.585 121.743L98.7521 119.685L97.6128 120.613V121.382C97.6128 121.698 97.3489 121.962 97.0236 121.962H96.6309V117.822C96.6309 117.535 96.8647 117.302 97.151 117.302H97.6113V119.738L100.229 117.513C100.388 117.376 100.59 117.302 100.801 117.302H101.684L99.4446 119.126L101.974 121.962Z" fill="#0C0C0C"/>
<path d="M106.408 117.302H105.57L102.997 121.962H103.684C103.91 121.962 104.122 121.833 104.227 121.631L104.58 120.937H107.394L107.71 121.556C107.839 121.805 108.096 121.964 108.375 121.964H108.977L106.408 117.302ZM104.9 120.318L105.985 118.198L107.079 120.318H104.9Z" fill="#0C0C0C"/>
<path d="M121.024 117.302H120.186L117.615 121.962H118.294C118.528 121.962 118.739 121.833 118.844 121.623L119.199 120.937H122.012L122.382 121.661C122.479 121.842 122.668 121.962 122.88 121.962H123.596L121.024 117.302ZM119.516 120.318L120.601 118.198L121.686 120.318H119.516Z" fill="#0C0C0C"/>
<path d="M130.014 117.302C129.765 117.302 129.568 117.505 129.568 117.747L129.681 120.907L126.272 117.302H125.382V121.955H125.857C126.128 121.955 126.354 121.736 126.354 121.464L126.233 118.409L129.634 121.955H129.898C130.252 121.955 130.532 121.676 130.532 121.321V117.302H130.014ZM115.398 117.305C115.149 117.305 114.952 117.508 114.952 117.75L115.065 120.91L111.656 117.305H110.766V121.958H111.241C111.512 121.958 111.738 121.739 111.738 121.467L111.617 118.412L115.018 121.958H115.282C115.636 121.958 115.916 121.679 115.916 121.324V117.305H115.398Z" fill="#0C0C0C"/>
<path d="M137.547 118.071C137.343 117.814 137.041 117.625 136.641 117.498C136.248 117.37 135.766 117.302 135.208 117.302H133.534C133.24 117.302 132.998 117.543 132.998 117.837V121.766C132.998 121.871 133.081 121.962 133.195 121.962H135.208C135.766 121.962 136.241 121.895 136.641 121.766C137.041 121.638 137.343 121.442 137.547 121.193C137.758 120.944 137.863 120.643 137.863 120.288V118.968C137.864 118.621 137.758 118.319 137.547 118.071ZM136.862 120.318C136.862 120.641 136.718 120.89 136.439 121.072C136.152 121.253 135.752 121.336 135.24 121.336H133.98V117.919H135.24C135.752 117.919 136.152 118.009 136.439 118.19C136.718 118.372 136.862 118.621 136.862 118.945V120.318Z" fill="#0C0C0C"/>
<path d="M84.5196 88.5192C84.5196 88.5192 80.4391 61.7066 99.1956 49.4427C117.952 37.1787 126.851 34.0516 134.665 19.2632C134.665 19.2632 144.525 90.2027 86.4504 90.444C86.4504 90.444 113.984 76.0154 125.648 43.7926C125.648 43.7911 108.92 73.6093 84.5196 88.5192Z" fill="#0C0C0C"/>
<path d="M85.7293 85.2722C85.7293 85.2722 83.6846 60.383 99.4369 51.0047C99.4369 51.0047 131.24 34.0516 134.667 19.2617C134.667 19.2617 130.218 49.9224 85.7293 85.2722Z" fill="#0C0C0C"/>
<path d="M92.6432 88.5192C92.6432 88.5192 133.567 91.3989 134.477 19.9812C134.478 19.9812 122.403 68.1392 92.6432 88.5192Z" fill="#0C0C0C"/>
<path d="M82.364 89.1204C82.364 89.1204 85.611 62.0665 45.9319 64.4725C45.9319 64.4725 55.4301 70.7252 59.9993 81.3057C59.9993 81.3057 63.5536 91.6089 80.9204 90.4441C80.9204 90.4441 70.6997 74.8132 58.3158 69.6428C58.3158 69.6413 73.3456 74.8117 82.364 89.1204Z" fill="#0C0C0C"/>
<path d="M45.9319 64.4709C45.9319 64.4709 62.4233 69.5258 74.1971 81.9083L80.9204 90.4425C80.9204 90.4425 64.7633 90.459 59.4956 80.2008C59.4956 80.2008 52.6043 65.8546 45.9319 64.4709Z" fill="#0C0C0C"/>
<path d="M45.9319 64.4711C45.9319 64.4711 80.5606 60.9242 80.9204 86.5345C80.9204 86.5345 65.0497 66.0346 45.9319 64.4711Z" fill="#0C0C0C"/>
<line x1="155.274" y1="20.5146" x2="155.274" y2="133.699" stroke="black" stroke-width="0.7074"/>
<path d="M166.267 63.3958V51.3417H170.444C171.734 51.3417 172.809 51.6133 173.67 52.1566C174.541 52.6885 175.192 53.4129 175.622 54.3297C176.052 55.2352 176.267 56.2425 176.267 57.3517C176.267 58.5741 176.029 59.638 175.554 60.5435C175.079 61.449 174.405 62.1507 173.534 62.6487C172.662 63.1467 171.632 63.3958 170.444 63.3958H166.267ZM174.722 57.3517C174.722 56.4463 174.552 55.6426 174.213 54.9409C173.885 54.2392 173.404 53.6902 172.77 53.2941C172.136 52.8979 171.361 52.6999 170.444 52.6999H167.795V62.0375H170.444C171.372 62.0375 172.153 61.8338 172.787 61.4263C173.421 61.0076 173.902 60.4473 174.23 59.7456C174.558 59.0325 174.722 58.2346 174.722 57.3517ZM182.104 63.5655C181.437 63.5655 180.825 63.4467 180.271 63.209C179.728 62.96 179.252 62.6261 178.845 62.2073C178.449 61.7772 178.137 61.2849 177.911 60.7303C177.696 60.1757 177.588 59.5871 177.588 58.9646C177.588 58.127 177.781 57.363 178.166 56.6726C178.55 55.9822 179.082 55.4276 179.761 55.0088C180.452 54.59 181.239 54.3806 182.121 54.3806C183.016 54.3806 183.791 54.5957 184.447 55.0258C185.115 55.4446 185.63 55.9992 185.992 56.6896C186.366 57.3687 186.553 58.1044 186.553 58.8967C186.553 59.0099 186.547 59.1231 186.536 59.2362C186.536 59.3381 186.53 59.4173 186.519 59.4739H179.167C179.213 60.0512 179.371 60.5662 179.643 61.0189C179.926 61.4603 180.288 61.8112 180.729 62.0715C181.171 62.3205 181.646 62.445 182.155 62.445C182.699 62.445 183.208 62.3092 183.683 62.0375C184.17 61.7659 184.504 61.4094 184.685 60.968L185.975 61.3245C185.783 61.7546 185.494 62.1394 185.109 62.479C184.736 62.8185 184.289 63.0845 183.768 63.2769C183.259 63.4693 182.704 63.5655 182.104 63.5655ZM179.116 58.4383H185.16C185.115 57.8611 184.951 57.3517 184.668 56.9103C184.385 56.4689 184.023 56.1237 183.581 55.8747C183.14 55.6257 182.653 55.5012 182.121 55.5012C181.601 55.5012 181.12 55.6257 180.678 55.8747C180.237 56.1237 179.875 56.4689 179.592 56.9103C179.32 57.3517 179.162 57.8611 179.116 58.4383ZM191.252 63.5655C190.517 63.5655 189.826 63.4467 189.181 63.209C188.536 62.96 187.981 62.5921 187.517 62.1055L188.094 61.0528C188.604 61.5282 189.113 61.8678 189.622 62.0715C190.132 62.2752 190.652 62.3771 191.184 62.3771C191.796 62.3771 192.294 62.2639 192.678 62.0375C193.063 61.7999 193.256 61.4546 193.256 61.0019C193.256 60.6737 193.154 60.4303 192.95 60.2719C192.758 60.1134 192.48 59.9833 192.118 59.8814C191.756 59.7682 191.326 59.6437 190.828 59.5079C190.217 59.3268 189.702 59.1344 189.283 58.9306C188.864 58.7269 188.547 58.4722 188.332 58.1666C188.117 57.8611 188.01 57.4762 188.01 57.0122C188.01 56.4463 188.157 55.9709 188.451 55.5861C188.745 55.1899 189.147 54.89 189.656 54.6862C190.177 54.4825 190.766 54.3806 191.422 54.3806C192.078 54.3806 192.673 54.4825 193.205 54.6862C193.737 54.89 194.195 55.1899 194.58 55.5861L193.901 56.6217C193.55 56.2595 193.165 55.9935 192.746 55.8237C192.327 55.6426 191.858 55.5521 191.337 55.5521C191.032 55.5521 190.732 55.5917 190.437 55.6709C190.143 55.7389 189.9 55.869 189.707 56.0614C189.515 56.2425 189.419 56.5028 189.419 56.8424C189.419 57.1254 189.492 57.3517 189.639 57.5215C189.798 57.68 190.024 57.8158 190.318 57.929C190.624 58.0421 190.992 58.1666 191.422 58.3025C192.09 58.4949 192.667 58.6873 193.154 58.8797C193.652 59.0721 194.037 59.3211 194.308 59.6267C194.58 59.9323 194.716 60.3568 194.716 60.9C194.716 61.7376 194.399 62.3941 193.765 62.8694C193.131 63.3335 192.294 63.5655 191.252 63.5655ZM196.503 63.3958V54.5334H197.997V63.3958H196.503ZM196.503 52.8696V51.0021H197.997V52.8696H196.503ZM203.947 63.4976C203.347 63.4976 202.793 63.3788 202.283 63.1411C201.785 62.8921 201.355 62.5582 200.993 62.1394C200.631 61.7093 200.348 61.2226 200.144 60.6793C199.952 60.1361 199.856 59.5701 199.856 58.9816C199.856 58.3591 199.952 57.7705 200.144 57.2159C200.348 56.6613 200.631 56.1746 200.993 55.7558C201.367 55.3257 201.802 54.9918 202.3 54.7542C202.798 54.5051 203.353 54.3806 203.964 54.3806C204.7 54.3806 205.339 54.5617 205.883 54.9239C206.437 55.2861 206.901 55.7445 207.275 56.2991V54.5334H208.599V63.2939C208.599 64.1314 208.395 64.8388 207.988 65.4161C207.592 65.9933 207.048 66.4291 206.358 66.7234C205.679 67.029 204.921 67.1818 204.083 67.1818C203.087 67.1818 202.272 67.0063 201.638 66.6555C201.004 66.3046 200.478 65.8292 200.059 65.2293L200.925 64.4653C201.276 64.986 201.729 65.3765 202.283 65.6368C202.849 65.8971 203.449 66.0273 204.083 66.0273C204.626 66.0273 205.124 65.9254 205.577 65.7217C206.041 65.5293 206.409 65.2293 206.681 64.8219C206.964 64.4144 207.105 63.9051 207.105 63.2939V61.7319C206.777 62.2752 206.324 62.7053 205.747 63.0222C205.181 63.3392 204.581 63.4976 203.947 63.4976ZM204.406 62.2752C204.723 62.2752 205.028 62.2186 205.322 62.1055C205.617 61.9923 205.888 61.8451 206.137 61.664C206.386 61.4716 206.596 61.2566 206.766 61.0189C206.935 60.7812 207.048 60.5379 207.105 60.2888V57.7422C206.947 57.3347 206.72 56.9782 206.426 56.6726C206.132 56.3557 205.798 56.1124 205.424 55.9426C205.051 55.7615 204.666 55.6709 204.27 55.6709C203.817 55.6709 203.41 55.7671 203.047 55.9596C202.697 56.152 202.397 56.4123 202.148 56.7405C201.899 57.0574 201.706 57.414 201.57 57.8101C201.435 58.2063 201.367 58.6081 201.367 59.0155C201.367 59.4569 201.446 59.8757 201.604 60.2719C201.763 60.6567 201.978 61.0019 202.249 61.3075C202.521 61.6131 202.844 61.8508 203.217 62.0206C203.591 62.1903 203.987 62.2752 204.406 62.2752ZM218.701 63.3958H217.207V58.4383C217.207 57.4989 217.06 56.8141 216.766 56.384C216.483 55.9426 216.047 55.7219 215.458 55.7219C215.051 55.7219 214.644 55.8237 214.236 56.0275C213.84 56.2312 213.483 56.5085 213.166 56.8594C212.861 57.1989 212.64 57.5951 212.504 58.0478V63.3958H211.01V54.5334H212.369V56.4349C212.606 56.0162 212.912 55.654 213.285 55.3484C213.659 55.0428 214.083 54.8051 214.559 54.6353C215.034 54.4655 215.532 54.3806 216.053 54.3806C216.562 54.3806 216.986 54.4768 217.326 54.6693C217.677 54.8504 217.949 55.1107 218.141 55.4502C218.345 55.7785 218.486 56.169 218.565 56.6217C218.656 57.0744 218.701 57.5668 218.701 58.0987V63.3958ZM166.267 83.3958V71.3417H170.444C171.734 71.3417 172.809 71.6133 173.67 72.1566C174.541 72.6885 175.192 73.4129 175.622 74.3297C176.052 75.2352 176.267 76.2425 176.267 77.3517C176.267 78.5741 176.029 79.638 175.554 80.5435C175.079 81.449 174.405 82.1507 173.534 82.6487C172.662 83.1467 171.632 83.3958 170.444 83.3958H166.267ZM174.722 77.3517C174.722 76.4463 174.552 75.6426 174.213 74.9409C173.885 74.2392 173.404 73.6902 172.77 73.2941C172.136 72.8979 171.361 72.6999 170.444 72.6999H167.795V82.0375H170.444C171.372 82.0375 172.153 81.8338 172.787 81.4263C173.421 81.0076 173.902 80.4473 174.23 79.7456C174.558 79.0325 174.722 78.2346 174.722 77.3517ZM182.104 83.5655C181.437 83.5655 180.825 83.4467 180.271 83.209C179.728 82.96 179.252 82.6261 178.845 82.2073C178.449 81.7772 178.137 81.2849 177.911 80.7303C177.696 80.1757 177.588 79.5871 177.588 78.9646C177.588 78.127 177.781 77.363 178.166 76.6726C178.55 75.9822 179.082 75.4276 179.761 75.0088C180.452 74.59 181.239 74.3806 182.121 74.3806C183.016 74.3806 183.791 74.5957 184.447 75.0258C185.115 75.4446 185.63 75.9992 185.992 76.6896C186.366 77.3687 186.553 78.1044 186.553 78.8967C186.553 79.0099 186.547 79.1231 186.536 79.2362C186.536 79.3381 186.53 79.4173 186.519 79.4739H179.167C179.213 80.0512 179.371 80.5662 179.643 81.0189C179.926 81.4603 180.288 81.8112 180.729 82.0715C181.171 82.3205 181.646 82.445 182.155 82.445C182.699 82.445 183.208 82.3092 183.683 82.0375C184.17 81.7659 184.504 81.4094 184.685 80.968L185.975 81.3245C185.783 81.7546 185.494 82.1394 185.109 82.479C184.736 82.8185 184.289 83.0845 183.768 83.2769C183.259 83.4693 182.704 83.5655 182.104 83.5655ZM179.116 78.4383H185.16C185.115 77.8611 184.951 77.3517 184.668 76.9103C184.385 76.4689 184.023 76.1237 183.581 75.8747C183.14 75.6257 182.653 75.5012 182.121 75.5012C181.601 75.5012 181.12 75.6257 180.678 75.8747C180.237 76.1237 179.875 76.4689 179.592 76.9103C179.32 77.3517 179.162 77.8611 179.116 78.4383ZM190.528 83.3958L187.047 74.5334H188.609L191.394 81.9696L194.178 74.5334H195.638L192.158 83.3958H190.528ZM200.757 83.5655C200.089 83.5655 199.478 83.4467 198.923 83.209C198.38 82.96 197.904 82.6261 197.497 82.2073C197.101 81.7772 196.789 81.2849 196.563 80.7303C196.348 80.1757 196.24 79.5871 196.24 78.9646C196.24 78.127 196.433 77.363 196.818 76.6726C197.203 75.9822 197.735 75.4276 198.414 75.0088C199.104 74.59 199.891 74.3806 200.774 74.3806C201.668 74.3806 202.443 74.5957 203.099 75.0258C203.767 75.4446 204.282 75.9992 204.644 76.6896C205.018 77.3687 205.205 78.1044 205.205 78.8967C205.205 79.0099 205.199 79.1231 205.188 79.2362C205.188 79.3381 205.182 79.4173 205.171 79.4739H197.819C197.865 80.0512 198.023 80.5662 198.295 81.0189C198.578 81.4603 198.94 81.8112 199.381 82.0715C199.823 82.3205 200.298 82.445 200.807 82.445C201.351 82.445 201.86 82.3092 202.335 82.0375C202.822 81.7659 203.156 81.4094 203.337 80.968L204.627 81.3245C204.435 81.7546 204.146 82.1394 203.762 82.479C203.388 82.8185 202.941 83.0845 202.42 83.2769C201.911 83.4693 201.356 83.5655 200.757 83.5655ZM197.768 78.4383H203.812C203.767 77.8611 203.603 77.3517 203.32 76.9103C203.037 76.4689 202.675 76.1237 202.234 75.8747C201.792 75.6257 201.305 75.5012 200.774 75.5012C200.253 75.5012 199.772 75.6257 199.33 75.8747C198.889 76.1237 198.527 76.4689 198.244 76.9103C197.972 77.3517 197.814 77.8611 197.768 78.4383ZM206.899 71.0021H208.393V81.1038C208.393 81.5905 208.461 81.8904 208.597 82.0036C208.733 82.1168 208.897 82.1734 209.089 82.1734C209.327 82.1734 209.554 82.1507 209.769 82.1055C209.984 82.0489 210.165 81.9923 210.312 81.9357L210.55 83.1581C210.301 83.2599 210.006 83.3448 209.667 83.4127C209.327 83.4806 209.027 83.5146 208.767 83.5146C208.19 83.5146 207.731 83.3505 207.392 83.0222C207.063 82.694 206.899 82.2356 206.899 81.6471V71.0021ZM215.594 83.5655C214.926 83.5655 214.321 83.4467 213.778 83.209C213.234 82.96 212.765 82.6261 212.368 82.2073C211.972 81.7772 211.667 81.2849 211.452 80.7303C211.237 80.1757 211.129 79.5928 211.129 78.9816C211.129 78.3591 211.237 77.7705 211.452 77.2159C211.667 76.6613 211.972 76.1746 212.368 75.7558C212.765 75.3257 213.234 74.9918 213.778 74.7542C214.332 74.5051 214.938 74.3806 215.594 74.3806C216.262 74.3806 216.867 74.5051 217.411 74.7542C217.954 74.9918 218.424 75.3257 218.82 75.7558C219.227 76.1746 219.539 76.6613 219.754 77.2159C219.969 77.7705 220.076 78.3591 220.076 78.9816C220.076 79.5928 219.969 80.1757 219.754 80.7303C219.539 81.2849 219.233 81.7772 218.837 82.2073C218.441 82.6261 217.965 82.96 217.411 83.209C216.867 83.4467 216.262 83.5655 215.594 83.5655ZM212.657 78.9986C212.657 79.6097 212.787 80.1643 213.048 80.6624C213.319 81.1604 213.676 81.5565 214.117 81.8508C214.559 82.1337 215.051 82.2752 215.594 82.2752C216.137 82.2752 216.63 82.1281 217.071 81.8338C217.524 81.5395 217.88 81.1434 218.141 80.6454C218.412 80.1361 218.548 79.5758 218.548 78.9646C218.548 78.3534 218.412 77.7988 218.141 77.3008C217.88 76.8028 217.524 76.4066 217.071 76.1124C216.63 75.8181 216.137 75.6709 215.594 75.6709C215.051 75.6709 214.559 75.8237 214.117 76.1293C213.676 76.4236 213.319 76.8198 213.048 77.3178C212.787 77.8158 212.657 78.376 212.657 78.9986ZM226.657 83.5655C225.933 83.5655 225.288 83.3844 224.722 83.0222C224.156 82.6601 223.709 82.2017 223.381 81.6471V87.012H221.887V74.5334H223.211V76.1972C223.562 75.654 224.02 75.2182 224.586 74.89C225.152 74.5504 225.769 74.3806 226.437 74.3806C227.048 74.3806 227.608 74.5051 228.117 74.7542C228.627 75.0032 229.068 75.3427 229.442 75.7728C229.815 76.2029 230.104 76.6953 230.308 77.2499C230.523 77.7931 230.63 78.3647 230.63 78.9646C230.63 79.8022 230.46 80.5718 230.121 81.2736C229.793 81.9753 229.328 82.5356 228.729 82.9543C228.129 83.3618 227.438 83.5655 226.657 83.5655ZM226.199 82.2752C226.64 82.2752 227.036 82.1847 227.387 82.0036C227.75 81.8112 228.055 81.5622 228.304 81.2566C228.564 80.9397 228.763 80.5831 228.898 80.187C229.034 79.7908 229.102 79.3834 229.102 78.9646C229.102 78.5232 229.023 78.1044 228.864 77.7083C228.717 77.3121 228.502 76.9612 228.219 76.6556C227.948 76.35 227.625 76.1124 227.252 75.9426C226.889 75.7615 226.493 75.6709 226.063 75.6709C225.791 75.6709 225.509 75.7219 225.214 75.8237C224.931 75.9256 224.66 76.0727 224.399 76.2652C224.139 76.4463 223.918 76.6556 223.737 76.8933C223.556 77.131 223.437 77.3857 223.381 77.6573V80.187C223.55 80.5718 223.777 80.9227 224.06 81.2396C224.343 81.5565 224.671 81.8112 225.044 82.0036C225.418 82.1847 225.803 82.2752 226.199 82.2752ZM245.826 83.3958H244.332V78.4383C244.332 77.5102 244.179 76.8254 243.873 76.384C243.579 75.9426 243.138 75.7219 242.549 75.7219C241.949 75.7219 241.406 75.9426 240.919 76.384C240.433 76.8141 240.087 77.3744 239.884 78.0648V83.3958H238.39V78.4383C238.39 77.4989 238.243 76.8141 237.948 76.384C237.654 75.9426 237.213 75.7219 236.624 75.7219C236.035 75.7219 235.492 75.9369 234.994 76.367C234.507 76.7858 234.162 77.3461 233.958 78.0478V83.3958H232.464V74.5334H233.823V76.4349C234.185 75.7785 234.655 75.2748 235.232 74.9239C235.809 74.5617 236.46 74.3806 237.184 74.3806C237.92 74.3806 238.508 74.5844 238.95 74.9918C239.391 75.388 239.663 75.903 239.765 76.5368C240.161 75.8351 240.642 75.3031 241.208 74.9409C241.774 74.5674 242.419 74.3806 243.143 74.3806C243.653 74.3806 244.077 74.4768 244.417 74.6693C244.768 74.8504 245.045 75.1107 245.249 75.4502C245.452 75.7785 245.599 76.169 245.69 76.6217C245.781 77.0744 245.826 77.5668 245.826 78.0987V83.3958ZM252.071 83.5655C251.403 83.5655 250.792 83.4467 250.237 83.209C249.694 82.96 249.218 82.6261 248.811 82.2073C248.415 81.7772 248.104 81.2849 247.877 80.7303C247.662 80.1757 247.555 79.5871 247.555 78.9646C247.555 78.127 247.747 77.363 248.132 76.6726C248.517 75.9822 249.049 75.4276 249.728 75.0088C250.418 74.59 251.205 74.3806 252.088 74.3806C252.982 74.3806 253.757 74.5957 254.414 75.0258C255.081 75.4446 255.596 75.9992 255.959 76.6896C256.332 77.3687 256.519 78.1044 256.519 78.8967C256.519 79.0099 256.513 79.1231 256.502 79.2362C256.502 79.3381 256.496 79.4173 256.485 79.4739H249.134C249.179 80.0512 249.337 80.5662 249.609 81.0189C249.892 81.4603 250.254 81.8112 250.695 82.0715C251.137 82.3205 251.612 82.445 252.122 82.445C252.665 82.445 253.174 82.3092 253.65 82.0375C254.136 81.7659 254.47 81.4094 254.651 80.968L255.942 81.3245C255.749 81.7546 255.461 82.1394 255.076 82.479C254.702 82.8185 254.255 83.0845 253.734 83.2769C253.225 83.4693 252.671 83.5655 252.071 83.5655ZM249.083 78.4383H255.127C255.081 77.8611 254.917 77.3517 254.634 76.9103C254.351 76.4689 253.989 76.1237 253.548 75.8747C253.106 75.6257 252.62 75.5012 252.088 75.5012C251.567 75.5012 251.086 75.6257 250.645 75.8747C250.203 76.1237 249.841 76.4689 249.558 76.9103C249.286 77.3517 249.128 77.8611 249.083 78.4383ZM265.87 83.3958H264.376V78.4383C264.376 77.4989 264.229 76.8141 263.935 76.384C263.652 75.9426 263.216 75.7219 262.628 75.7219C262.22 75.7219 261.813 75.8237 261.405 76.0275C261.009 76.2312 260.653 76.5085 260.336 76.8594C260.03 77.1989 259.809 77.5951 259.674 78.0478V83.3958H258.18V74.5334H259.538V76.4349C259.775 76.0162 260.081 75.654 260.455 75.3484C260.828 75.0428 261.253 74.8051 261.728 74.6353C262.203 74.4655 262.701 74.3806 263.222 74.3806C263.731 74.3806 264.156 74.4768 264.495 74.6693C264.846 74.8504 265.118 75.1107 265.31 75.4502C265.514 75.7785 265.655 76.169 265.735 76.6217C265.825 77.0744 265.87 77.5668 265.87 78.0987V83.3958ZM272.695 82.9543C272.57 83.0109 272.4 83.0845 272.185 83.175C271.97 83.2656 271.721 83.3448 271.438 83.4127C271.155 83.4806 270.856 83.5146 270.539 83.5146C270.176 83.5146 269.843 83.4523 269.537 83.3278C269.231 83.192 268.988 82.9883 268.807 82.7166C268.626 82.4337 268.535 82.0828 268.535 81.664V75.7049H267.33V74.5334H268.535V71.5793H270.029V74.5334H272.016V75.7049H270.029V81.2056C270.052 81.5226 270.159 81.7602 270.352 81.9187C270.544 82.0658 270.771 82.1394 271.031 82.1394C271.325 82.1394 271.597 82.0885 271.846 81.9866C272.095 81.8847 272.259 81.8112 272.338 81.7659L272.695 82.9543ZM166.267 103.396V91.3417H171.293C171.825 91.3417 172.311 91.4548 172.753 91.6812C173.194 91.8963 173.579 92.1905 173.907 92.564C174.235 92.9262 174.49 93.3394 174.671 93.8034C174.852 94.2561 174.943 94.7202 174.943 95.1956C174.943 95.852 174.796 96.4802 174.501 97.0801C174.207 97.6686 173.794 98.1497 173.262 98.5232C172.73 98.8854 172.108 99.0665 171.395 99.0665H167.795V103.396H166.267ZM167.795 97.7083H171.31C171.728 97.7083 172.091 97.5951 172.396 97.3687C172.713 97.1423 172.956 96.8367 173.126 96.4519C173.307 96.0671 173.398 95.6483 173.398 95.1956C173.398 94.7202 173.296 94.2958 173.092 93.9222C172.889 93.5374 172.623 93.2375 172.294 93.0224C171.966 92.8074 171.604 92.6999 171.208 92.6999H167.795V97.7083ZM181.293 95.8407C180.546 95.852 179.884 96.0444 179.307 96.418C178.741 96.7801 178.339 97.2838 178.102 97.929V103.396H176.607V94.5334H178V96.5877C178.305 95.9765 178.707 95.4842 179.205 95.1107C179.714 94.7259 180.246 94.5108 180.801 94.4655C180.914 94.4655 181.01 94.4655 181.09 94.4655C181.169 94.4655 181.237 94.4712 181.293 94.4825V95.8407ZM182.775 103.396V94.5334H184.269V103.396H182.775ZM182.775 92.8696V91.0021H184.269V92.8696H182.775ZM194.379 103.396H192.885V98.4383C192.885 97.4989 192.738 96.8141 192.443 96.384C192.16 95.9426 191.725 95.7219 191.136 95.7219C190.729 95.7219 190.321 95.8237 189.914 96.0275C189.518 96.2312 189.161 96.5085 188.844 96.8594C188.538 97.1989 188.318 97.5951 188.182 98.0478V103.396H186.688V94.5334H188.046V96.4349C188.284 96.0162 188.589 95.654 188.963 95.3484C189.336 95.0428 189.761 94.8051 190.236 94.6353C190.712 94.4655 191.21 94.3806 191.73 94.3806C192.24 94.3806 192.664 94.4768 193.004 94.6693C193.354 94.8504 193.626 95.1107 193.819 95.4502C194.022 95.7785 194.164 96.169 194.243 96.6217C194.334 97.0744 194.379 97.5668 194.379 98.0987V103.396ZM201.203 102.954C201.079 103.011 200.909 103.084 200.694 103.175C200.479 103.266 200.23 103.345 199.947 103.413C199.664 103.481 199.364 103.515 199.047 103.515C198.685 103.515 198.351 103.452 198.045 103.328C197.74 103.192 197.496 102.988 197.315 102.717C197.134 102.434 197.044 102.083 197.044 101.664V95.7049H195.838V94.5334H197.044V91.5793H198.538V94.5334H200.524V95.7049H198.538V101.206C198.56 101.523 198.668 101.76 198.86 101.919C199.053 102.066 199.279 102.139 199.539 102.139C199.834 102.139 200.105 102.088 200.354 101.987C200.603 101.885 200.767 101.811 200.847 101.766L201.203 102.954ZM205.627 103.566C204.891 103.566 204.201 103.447 203.556 103.209C202.91 102.96 202.356 102.592 201.892 102.105L202.469 101.053C202.978 101.528 203.488 101.868 203.997 102.071C204.506 102.275 205.027 102.377 205.559 102.377C206.17 102.377 206.668 102.264 207.053 102.038C207.438 101.8 207.63 101.455 207.63 101.002C207.63 100.674 207.528 100.43 207.325 100.272C207.132 100.113 206.855 99.9833 206.493 99.8814C206.131 99.7682 205.7 99.6437 205.202 99.5079C204.591 99.3268 204.076 99.1344 203.657 98.9306C203.239 98.7269 202.922 98.4722 202.707 98.1666C202.492 97.8611 202.384 97.4762 202.384 97.0122C202.384 96.4463 202.531 95.9709 202.826 95.5861C203.12 95.1899 203.522 94.89 204.031 94.6862C204.552 94.4825 205.14 94.3806 205.797 94.3806C206.453 94.3806 207.047 94.4825 207.579 94.6862C208.111 94.89 208.57 95.1899 208.954 95.5861L208.275 96.6217C207.924 96.2595 207.54 95.9935 207.121 95.8237C206.702 95.6426 206.232 95.5521 205.712 95.5521C205.406 95.5521 205.106 95.5917 204.812 95.6709C204.518 95.7389 204.274 95.869 204.082 96.0614C203.889 96.2425 203.793 96.5028 203.793 96.8424C203.793 97.1254 203.867 97.3517 204.014 97.5215C204.172 97.68 204.399 97.8158 204.693 97.929C204.999 98.0421 205.367 98.1666 205.797 98.3025C206.464 98.4949 207.042 98.6873 207.528 98.8797C208.026 99.0721 208.411 99.3211 208.683 99.6267C208.954 99.9323 209.09 100.357 209.09 100.9C209.09 101.738 208.773 102.394 208.14 102.869C207.506 103.334 206.668 103.566 205.627 103.566Z" fill="black"/>
</svg>
