<svg width="107" height="53" viewBox="0 0 107 53" fill="none" xmlns="http://www.w3.org/2000/svg">
<path d="M0.267315 12.3958V0.341743H4.44381C5.7341 0.341743 6.80935 0.613384 7.66955 1.15667C8.54107 1.68863 9.19188 2.41301 9.62198 3.3298C10.0521 4.23527 10.2671 5.24261 10.2671 6.35182C10.2671 7.5742 10.0294 8.63813 9.55407 9.54361C9.07869 10.4491 8.40525 11.1508 7.53373 11.6488C6.66221 12.1468 5.63224 12.3958 4.44381 12.3958H0.267315ZM8.72216 6.35182C8.72216 5.44634 8.55239 4.64274 8.21284 3.941C7.8846 3.23925 7.40357 2.69031 6.76974 2.29417C6.13591 1.89802 5.3606 1.69995 4.44381 1.69995H1.7953V11.0376H4.44381C5.37192 11.0376 6.15289 10.8339 6.78672 10.4264C7.42055 10.0077 7.90158 9.4474 8.22981 8.74566C8.55805 8.0326 8.72216 7.23465 8.72216 6.35182ZM16.1044 12.5656C15.4366 12.5656 14.8254 12.4468 14.2708 12.2091C13.7275 11.9601 13.2521 11.6262 12.8447 11.2074C12.4485 10.7773 12.1373 10.285 11.9109 9.73036C11.6959 9.17576 11.5883 8.5872 11.5883 7.96469C11.5883 7.12713 11.7807 6.36313 12.1656 5.67271C12.5504 4.98229 13.0824 4.42769 13.7615 4.00891C14.4519 3.59012 15.2385 3.38073 16.1213 3.38073C17.0155 3.38073 17.7908 3.59578 18.4473 4.02588C19.1151 4.44466 19.6301 4.99927 19.9922 5.68969C20.3657 6.36879 20.5525 7.10449 20.5525 7.89678C20.5525 8.00996 20.5468 8.12315 20.5355 8.23633C20.5355 8.3382 20.5299 8.41742 20.5185 8.47402H13.1672C13.2125 9.05126 13.371 9.56624 13.6426 10.019C13.9256 10.4604 14.2878 10.8113 14.7292 11.0716C15.1706 11.3206 15.646 11.4451 16.1553 11.4451C16.6986 11.4451 17.2079 11.3093 17.6833 11.0376C18.17 10.766 18.5039 10.4095 18.685 9.96805L19.9753 10.3246C19.7829 10.7547 19.4942 11.1395 19.1094 11.4791C18.7359 11.8186 18.2888 12.0846 17.7682 12.277C17.2588 12.4694 16.7042 12.5656 16.1044 12.5656ZM13.1163 7.43838H19.1603C19.1151 6.86114 18.9509 6.35182 18.668 5.9104C18.385 5.46898 18.0228 5.12377 17.5814 4.87476C17.14 4.62576 16.6533 4.50126 16.1213 4.50126C15.6007 4.50126 15.1197 4.62576 14.6783 4.87476C14.2368 5.12377 13.8746 5.46898 13.5917 5.9104C13.32 6.35182 13.1616 6.86114 13.1163 7.43838ZM25.2522 12.5656C24.5166 12.5656 23.8261 12.4468 23.181 12.2091C22.5358 11.9601 21.9812 11.5922 21.5172 11.1055L22.0944 10.0529C22.6037 10.5283 23.1131 10.8679 23.6224 11.0716C24.1317 11.2753 24.6524 11.3772 25.1843 11.3772C25.7955 11.3772 26.2935 11.264 26.6784 11.0376C27.0632 10.7999 27.2556 10.4547 27.2556 10.002C27.2556 9.67377 27.1537 9.43042 26.95 9.27196C26.7576 9.11351 26.4803 8.98334 26.1181 8.88148C25.7559 8.76829 25.3258 8.64379 24.8278 8.50797C24.2166 8.32688 23.7016 8.13446 23.2828 7.93073C22.8641 7.727 22.5471 7.47234 22.3321 7.16674C22.1171 6.86114 22.0095 6.47632 22.0095 6.01226C22.0095 5.44634 22.1567 4.97097 22.4509 4.58614C22.7452 4.19 23.147 3.89006 23.6564 3.68633C24.177 3.4826 24.7656 3.38073 25.422 3.38073C26.0785 3.38073 26.6727 3.4826 27.2047 3.68633C27.7366 3.89006 28.195 4.19 28.5799 4.58614L27.9008 5.62178C27.5499 5.25959 27.1651 4.99361 26.7463 4.82383C26.3275 4.64274 25.8578 4.55219 25.3371 4.55219C25.0315 4.55219 24.7316 4.5918 24.4373 4.67103C24.143 4.73894 23.8997 4.8691 23.7073 5.06152C23.5149 5.24261 23.4187 5.50294 23.4187 5.84249C23.4187 6.12545 23.4922 6.35182 23.6394 6.52159C23.7978 6.68005 24.0242 6.81587 24.3185 6.92905C24.6241 7.04224 24.9919 7.16674 25.422 7.30256C26.0898 7.49497 26.667 7.68739 27.1537 7.8798C27.6518 8.07221 28.0366 8.32122 28.3082 8.62681C28.5799 8.93241 28.7157 9.35685 28.7157 9.90014C28.7157 10.7377 28.3988 11.3942 27.7649 11.8695C27.1311 12.3336 26.2935 12.5656 25.2522 12.5656ZM30.5031 12.3958V3.53353H31.9971V12.3958H30.5031ZM30.5031 1.86973V0.00219093H31.9971V1.86973H30.5031ZM37.9473 12.4977C37.3474 12.4977 36.7928 12.3789 36.2834 12.1412C35.7854 11.8922 35.3553 11.5583 34.9932 11.1395C34.631 10.7094 34.348 10.2227 34.1443 9.67943C33.9519 9.13614 33.8557 8.57022 33.8557 7.98167C33.8557 7.35915 33.9519 6.7706 34.1443 6.21599C34.348 5.66139 34.631 5.1747 34.9932 4.75592C35.3667 4.32582 35.8024 3.99193 36.3004 3.75424C36.7984 3.50524 37.353 3.38073 37.9642 3.38073C38.6999 3.38073 39.3394 3.56183 39.8827 3.92402C40.4373 4.28621 40.9014 4.7446 41.2749 5.2992V3.53353H42.5991V12.294C42.5991 13.1315 42.3954 13.8389 41.9879 14.4162C41.5918 14.9934 41.0485 15.4292 40.3581 15.7235C39.679 16.0291 38.9206 16.1818 38.0831 16.1818C37.0871 16.1818 36.2721 16.0064 35.6383 15.6555C35.0045 15.3047 34.4782 14.8293 34.0594 14.2294L34.9252 13.4654C35.2761 13.9861 35.7288 14.3766 36.2834 14.6369C36.8494 14.8972 37.4492 15.0274 38.0831 15.0274C38.6264 15.0274 39.1244 14.9255 39.5771 14.7218C40.0412 14.5294 40.409 14.2294 40.6806 13.822C40.9636 13.4145 41.1051 12.9052 41.1051 12.294V10.732C40.7769 11.2753 40.3241 11.7054 39.7469 12.0223C39.181 12.3393 38.5811 12.4977 37.9473 12.4977ZM38.4057 11.2753C38.7226 11.2753 39.0282 11.2187 39.3224 11.1055C39.6167 10.9924 39.8884 10.8452 40.1374 10.6641C40.3864 10.4717 40.5958 10.2567 40.7655 10.019C40.9353 9.78129 41.0485 9.53795 41.1051 9.28894V6.7423C40.9466 6.33484 40.7203 5.97831 40.426 5.67271C40.1317 5.3558 39.7978 5.11245 39.4243 4.94267C39.0508 4.76158 38.666 4.67103 38.2698 4.67103C37.8171 4.67103 37.4096 4.76724 37.0474 4.95965C36.6966 5.15206 36.3966 5.41239 36.1476 5.74062C35.8986 6.05754 35.7062 6.41407 35.5704 6.81021C35.4346 7.20636 35.3667 7.60816 35.3667 8.01562C35.3667 8.45704 35.4459 8.87582 35.6043 9.27196C35.7628 9.65679 35.9779 10.002 36.2495 10.3076C36.5211 10.6132 36.8437 10.8509 37.2172 11.0207C37.5907 11.1904 37.9869 11.2753 38.4057 11.2753ZM52.7012 12.3958H51.2072V7.43838C51.2072 6.49895 51.06 5.81419 50.7657 5.38409C50.4828 4.94267 50.047 4.72197 49.4585 4.72197C49.051 4.72197 48.6435 4.82383 48.2361 5.02756C47.8399 5.23129 47.4834 5.50859 47.1665 5.85946C46.8609 6.19902 46.6402 6.59516 46.5044 7.0479V12.3958H45.0103V3.53353H46.3685V5.43502C46.6062 5.01624 46.9118 4.65405 47.2853 4.34846C47.6588 4.04286 48.0833 3.80517 48.5587 3.6354C49.034 3.46562 49.532 3.38073 50.0527 3.38073C50.562 3.38073 50.9865 3.47694 51.326 3.66935C51.6769 3.85045 51.9485 4.11077 52.1409 4.45032C52.3447 4.77856 52.4861 5.16904 52.5654 5.62178C52.6559 6.07451 52.7012 6.56687 52.7012 7.09883V12.3958ZM0.267315 32.3958V20.3417H4.44381C5.7341 20.3417 6.80935 20.6134 7.66955 21.1567C8.54107 21.6886 9.19188 22.413 9.62198 23.3298C10.0521 24.2353 10.2671 25.2426 10.2671 26.3518C10.2671 27.5742 10.0294 28.6381 9.55407 29.5436C9.07869 30.4491 8.40525 31.1508 7.53373 31.6488C6.66221 32.1468 5.63224 32.3958 4.44381 32.3958H0.267315ZM8.72216 26.3518C8.72216 25.4463 8.55239 24.6427 8.21284 23.941C7.8846 23.2393 7.40357 22.6903 6.76974 22.2942C6.13591 21.898 5.3606 21.7 4.44381 21.7H1.7953V31.0376H4.44381C5.37192 31.0376 6.15289 30.8339 6.78672 30.4264C7.42055 30.0077 7.90158 29.4474 8.22981 28.7457C8.55805 28.0326 8.72216 27.2347 8.72216 26.3518ZM16.1044 32.5656C15.4366 32.5656 14.8254 32.4468 14.2708 32.2091C13.7275 31.9601 13.2521 31.6262 12.8447 31.2074C12.4485 30.7773 12.1373 30.285 11.9109 29.7304C11.6959 29.1758 11.5883 28.5872 11.5883 27.9647C11.5883 27.1271 11.7807 26.3631 12.1656 25.6727C12.5504 24.9823 13.0824 24.4277 13.7615 24.0089C14.4519 23.5901 15.2385 23.3807 16.1213 23.3807C17.0155 23.3807 17.7908 23.5958 18.4473 24.0259C19.1151 24.4447 19.6301 24.9993 19.9922 25.6897C20.3657 26.3688 20.5525 27.1045 20.5525 27.8968C20.5525 28.01 20.5468 28.1231 20.5355 28.2363C20.5355 28.3382 20.5299 28.4174 20.5185 28.474H13.1672C13.2125 29.0513 13.371 29.5662 13.6426 30.019C13.9256 30.4604 14.2878 30.8113 14.7292 31.0716C15.1706 31.3206 15.646 31.4451 16.1553 31.4451C16.6986 31.4451 17.2079 31.3093 17.6833 31.0376C18.17 30.766 18.5039 30.4095 18.685 29.968L19.9753 30.3246C19.7829 30.7547 19.4942 31.1395 19.1094 31.4791C18.7359 31.8186 18.2888 32.0846 17.7682 32.277C17.2588 32.4694 16.7042 32.5656 16.1044 32.5656ZM13.1163 27.4384H19.1603C19.1151 26.8611 18.9509 26.3518 18.668 25.9104C18.385 25.469 18.0228 25.1238 17.5814 24.8748C17.14 24.6258 16.6533 24.5013 16.1213 24.5013C15.6007 24.5013 15.1197 24.6258 14.6783 24.8748C14.2368 25.1238 13.8746 25.469 13.5917 25.9104C13.32 26.3518 13.1616 26.8611 13.1163 27.4384ZM24.5278 32.3958L21.0474 23.5335H22.6093L25.3936 30.9697L28.178 23.5335H29.638L26.1576 32.3958H24.5278ZM34.7565 32.5656C34.0887 32.5656 33.4775 32.4468 32.9229 32.2091C32.3797 31.9601 31.9043 31.6262 31.4968 31.2074C31.1007 30.7773 30.7894 30.285 30.5631 29.7304C30.348 29.1758 30.2405 28.5872 30.2405 27.9647C30.2405 27.1271 30.4329 26.3631 30.8177 25.6727C31.2025 24.9823 31.7345 24.4277 32.4136 24.0089C33.104 23.5901 33.8907 23.3807 34.7735 23.3807C35.6677 23.3807 36.443 23.5958 37.0994 24.0259C37.7672 24.4447 38.2822 24.9993 38.6444 25.6897C39.0179 26.3688 39.2047 27.1045 39.2047 27.8968C39.2047 28.01 39.199 28.1231 39.1877 28.2363C39.1877 28.3382 39.182 28.4174 39.1707 28.474H31.8194C31.8647 29.0513 32.0231 29.5662 32.2948 30.019C32.5777 30.4604 32.9399 30.8113 33.3813 31.0716C33.8228 31.3206 34.2981 31.4451 34.8075 31.4451C35.3507 31.4451 35.8601 31.3093 36.3354 31.0376C36.8221 30.766 37.156 30.4095 37.3371 29.968L38.6274 30.3246C38.435 30.7547 38.1464 31.1395 37.7616 31.4791C37.3881 31.8186 36.941 32.0846 36.4203 32.277C35.911 32.4694 35.3564 32.5656 34.7565 32.5656ZM31.7685 27.4384H37.8125C37.7672 26.8611 37.6031 26.3518 37.3201 25.9104C37.0372 25.469 36.675 25.1238 36.2336 24.8748C35.7922 24.6258 35.3055 24.5013 34.7735 24.5013C34.2529 24.5013 33.7718 24.6258 33.3304 24.8748C32.889 25.1238 32.5268 25.469 32.2438 25.9104C31.9722 26.3518 31.8137 26.8611 31.7685 27.4384ZM40.8994 20.0022H42.3934V30.1039C42.3934 30.5906 42.4613 30.8905 42.5971 31.0037C42.733 31.1169 42.8971 31.1735 43.0895 31.1735C43.3272 31.1735 43.5535 31.1508 43.7686 31.1055C43.9836 31.049 44.1647 30.9924 44.3119 30.9358L44.5496 32.1582C44.3005 32.26 44.0063 32.3449 43.6667 32.4128C43.3272 32.4807 43.0272 32.5147 42.7669 32.5147C42.1897 32.5147 41.7313 32.3506 41.3917 32.0223C41.0635 31.6941 40.8994 31.2357 40.8994 30.6471V20.0022ZM49.5942 32.5656C48.9264 32.5656 48.3208 32.4468 47.7776 32.2091C47.2343 31.9601 46.7646 31.6262 46.3684 31.2074C45.9723 30.7773 45.6667 30.285 45.4516 29.7304C45.2366 29.1758 45.129 28.5929 45.129 27.9817C45.129 27.3592 45.2366 26.7706 45.4516 26.216C45.6667 25.6614 45.9723 25.1747 46.3684 24.7559C46.7646 24.3258 47.2343 23.9919 47.7776 23.7542C48.3322 23.5052 48.9377 23.3807 49.5942 23.3807C50.2619 23.3807 50.8675 23.5052 51.4108 23.7542C51.954 23.9919 52.4238 24.3258 52.8199 24.7559C53.2274 25.1747 53.5386 25.6614 53.7537 26.216C53.9687 26.7706 54.0762 27.3592 54.0762 27.9817C54.0762 28.5929 53.9687 29.1758 53.7537 29.7304C53.5386 30.285 53.233 30.7773 52.8369 31.2074C52.4407 31.6262 51.9654 31.9601 51.4108 32.2091C50.8675 32.4468 50.2619 32.5656 49.5942 32.5656ZM46.657 27.9986C46.657 28.6098 46.7872 29.1644 47.0475 29.6624C47.3192 30.1605 47.6757 30.5566 48.1171 30.8509C48.5585 31.1338 49.0509 31.2753 49.5942 31.2753C50.1374 31.2753 50.6298 31.1282 51.0712 30.8339C51.5239 30.5396 51.8805 30.1435 52.1408 29.6455C52.4124 29.1361 52.5483 28.5759 52.5483 27.9647C52.5483 27.3535 52.4124 26.7989 52.1408 26.3009C51.8805 25.8029 51.5239 25.4067 51.0712 25.1125C50.6298 24.8182 50.1374 24.671 49.5942 24.671C49.0509 24.671 48.5585 24.8238 48.1171 25.1294C47.6757 25.4237 47.3192 25.8199 47.0475 26.3179C46.7872 26.8159 46.657 27.3761 46.657 27.9986ZM60.6573 32.5656C59.9329 32.5656 59.2878 32.3845 58.7219 32.0223C58.156 31.6601 57.7089 31.2018 57.3806 30.6471V36.0121H55.8866V23.5335H57.2109V25.1973C57.5617 24.6541 58.0201 24.2183 58.5861 23.8901C59.152 23.5505 59.7688 23.3807 60.4366 23.3807C61.0478 23.3807 61.6081 23.5052 62.1174 23.7542C62.6267 24.0032 63.0681 24.3428 63.4417 24.7729C63.8152 25.203 64.1038 25.6953 64.3075 26.2499C64.5226 26.7932 64.6301 27.3648 64.6301 27.9647C64.6301 28.8023 64.4603 29.5719 64.1208 30.2736C63.7925 30.9754 63.3285 31.5356 62.7286 31.9544C62.1287 32.3619 61.4383 32.5656 60.6573 32.5656ZM60.1989 31.2753C60.6403 31.2753 61.0365 31.1848 61.3874 31.0037C61.7495 30.8113 62.0551 30.5623 62.3042 30.2567C62.5645 29.9397 62.7625 29.5832 62.8984 29.1871C63.0342 28.7909 63.1021 28.3835 63.1021 27.9647C63.1021 27.5233 63.0229 27.1045 62.8644 26.7083C62.7173 26.3122 62.5022 25.9613 62.2193 25.6557C61.9476 25.3501 61.625 25.1125 61.2515 24.9427C60.8894 24.7616 60.4932 24.671 60.0631 24.671C59.7915 24.671 59.5085 24.722 59.2142 24.8238C58.9313 24.9257 58.6596 25.0728 58.3993 25.2652C58.139 25.4463 57.9183 25.6557 57.7372 25.8934C57.5561 26.1311 57.4372 26.3858 57.3806 26.6574V29.1871C57.5504 29.5719 57.7768 29.9228 58.0597 30.2397C58.3427 30.5566 58.6709 30.8113 59.0445 31.0037C59.418 31.1848 59.8028 31.2753 60.1989 31.2753ZM79.8258 32.3958H78.3318V27.4384C78.3318 26.5103 78.179 25.8255 77.8734 25.3841C77.5791 24.9427 77.1377 24.722 76.5492 24.722C75.9493 24.722 75.406 24.9427 74.9193 25.3841C74.4326 25.8142 74.0874 26.3745 73.8837 27.0649V32.3958H72.3896V27.4384C72.3896 26.499 72.2425 25.8142 71.9482 25.3841C71.6539 24.9427 71.2125 24.722 70.624 24.722C70.0354 24.722 69.4921 24.937 68.9941 25.3671C68.5074 25.7859 68.1622 26.3462 67.9585 27.0479V32.3958H66.4645V23.5335H67.8227V25.435C68.1849 24.7786 68.6546 24.2749 69.2318 23.924C69.809 23.5618 70.4599 23.3807 71.1842 23.3807C71.9199 23.3807 72.5085 23.5845 72.9499 23.9919C73.3913 24.3881 73.663 24.9031 73.7648 25.5369C74.161 24.8351 74.642 24.3032 75.2079 23.941C75.7738 23.5675 76.419 23.3807 77.1434 23.3807C77.6527 23.3807 78.0771 23.4769 78.4167 23.6694C78.7676 23.8504 79.0449 24.1108 79.2486 24.4503C79.4523 24.7786 79.5995 25.169 79.69 25.6218C79.7806 26.0745 79.8258 26.5669 79.8258 27.0988V32.3958ZM86.0707 32.5656C85.4029 32.5656 84.7917 32.4468 84.2371 32.2091C83.6938 31.9601 83.2184 31.6262 82.811 31.2074C82.4148 30.7773 82.1036 30.285 81.8772 29.7304C81.6622 29.1758 81.5546 28.5872 81.5546 27.9647C81.5546 27.1271 81.747 26.3631 82.1319 25.6727C82.5167 24.9823 83.0487 24.4277 83.7278 24.0089C84.4182 23.5901 85.2048 23.3807 86.0877 23.3807C86.9818 23.3807 87.7571 23.5958 88.4136 24.0259C89.0814 24.4447 89.5964 24.9993 89.9585 25.6897C90.3321 26.3688 90.5188 27.1045 90.5188 27.8968C90.5188 28.01 90.5131 28.1231 90.5018 28.2363C90.5018 28.3382 90.4962 28.4174 90.4849 28.474H83.1335C83.1788 29.0513 83.3373 29.5662 83.6089 30.019C83.8919 30.4604 84.2541 30.8113 84.6955 31.0716C85.1369 31.3206 85.6123 31.4451 86.1216 31.4451C86.6649 31.4451 87.1742 31.3093 87.6496 31.0376C88.1363 30.766 88.4702 30.4095 88.6513 29.968L89.9416 30.3246C89.7492 30.7547 89.4605 31.1395 89.0757 31.4791C88.7022 31.8186 88.2551 32.0846 87.7345 32.277C87.2252 32.4694 86.6705 32.5656 86.0707 32.5656ZM83.0826 27.4384H89.1266C89.0814 26.8611 88.9173 26.3518 88.6343 25.9104C88.3513 25.469 87.9891 25.1238 87.5477 24.8748C87.1063 24.6258 86.6196 24.5013 86.0877 24.5013C85.567 24.5013 85.086 24.6258 84.6446 24.8748C84.2031 25.1238 83.8409 25.469 83.558 25.9104C83.2863 26.3518 83.1279 26.8611 83.0826 27.4384ZM99.8704 32.3958H98.3764V27.4384C98.3764 26.499 98.2292 25.8142 97.935 25.3841C97.652 24.9427 97.2163 24.722 96.6277 24.722C96.2202 24.722 95.8128 24.8238 95.4053 25.0276C95.0092 25.2313 94.6526 25.5086 94.3357 25.8595C94.0301 26.199 93.8094 26.5952 93.6736 27.0479V32.3958H92.1796V23.5335H93.5378V25.435C93.7755 25.0162 94.0811 24.6541 94.4546 24.3485C94.8281 24.0429 95.2525 23.8052 95.7279 23.6354C96.2033 23.4656 96.7013 23.3807 97.2219 23.3807C97.7312 23.3807 98.1557 23.4769 98.4952 23.6694C98.8461 23.8504 99.1177 24.1108 99.3102 24.4503C99.5139 24.7786 99.6554 25.169 99.7346 25.6218C99.8251 26.0745 99.8704 26.5669 99.8704 27.0988V32.3958ZM106.695 31.9544C106.57 32.011 106.4 32.0846 106.185 32.1751C105.97 32.2657 105.721 32.3449 105.438 32.4128C105.155 32.4807 104.856 32.5147 104.539 32.5147C104.176 32.5147 103.843 32.4524 103.537 32.3279C103.231 32.1921 102.988 31.9884 102.807 31.7167C102.626 31.4338 102.535 31.0829 102.535 30.6641V24.705H101.33V23.5335H102.535V20.5794H104.029V23.5335H106.016V24.705H104.029V30.2057C104.052 30.5226 104.159 30.7603 104.352 30.9188C104.544 31.0659 104.771 31.1395 105.031 31.1395C105.325 31.1395 105.597 31.0886 105.846 30.9867C106.095 30.8848 106.259 30.8113 106.338 30.766L106.695 31.9544ZM0.267315 52.3958V40.3417H5.29269C5.82465 40.3417 6.31134 40.4549 6.75276 40.6813C7.19418 40.8963 7.579 41.1906 7.90724 41.5641C8.23547 41.9263 8.49014 42.3394 8.67123 42.8035C8.85233 43.2562 8.94287 43.7203 8.94287 44.1957C8.94287 44.8521 8.79573 45.4803 8.50145 46.0802C8.20718 46.6687 7.79405 47.1498 7.26209 47.5233C6.73012 47.8855 6.10761 48.0666 5.39455 48.0666H1.7953V52.3958H0.267315ZM1.7953 46.7083H5.30966C5.72845 46.7083 6.09063 46.5952 6.39623 46.3688C6.71315 46.1424 6.95649 45.8368 7.12627 45.452C7.30736 45.0672 7.39791 44.6484 7.39791 44.1957C7.39791 43.7203 7.29604 43.2958 7.09231 42.9223C6.88858 42.5375 6.6226 42.2376 6.29437 42.0225C5.96613 41.8075 5.60394 41.7 5.2078 41.7H1.7953V46.7083ZM15.2933 44.8408C14.5463 44.8521 13.8842 45.0445 13.3069 45.418C12.741 45.7802 12.3392 46.2839 12.1015 46.9291V52.3958H10.6075V43.5335H11.9996V45.5878C12.3052 44.9766 12.707 44.4843 13.205 44.1108C13.7144 43.7259 14.2463 43.5109 14.8009 43.4656C14.9141 43.4656 15.0103 43.4656 15.0896 43.4656C15.1688 43.4656 15.2367 43.4713 15.2933 43.4826V44.8408ZM16.7751 52.3958V43.5335H18.2691V52.3958H16.7751ZM16.7751 41.8697V40.0022H18.2691V41.8697H16.7751ZM28.3788 52.3958H26.8848V47.4384C26.8848 46.499 26.7376 45.8142 26.4433 45.3841C26.1604 44.9427 25.7246 44.722 25.1361 44.722C24.7286 44.722 24.3211 44.8238 23.9137 45.0276C23.5175 45.2313 23.161 45.5086 22.8441 45.8595C22.5385 46.199 22.3178 46.5952 22.182 47.0479V52.3958H20.6879V43.5335H22.0461V45.435C22.2838 45.0162 22.5894 44.6541 22.9629 44.3485C23.3364 44.0429 23.7609 43.8052 24.2362 43.6354C24.7116 43.4656 25.2096 43.3807 25.7303 43.3807C26.2396 43.3807 26.664 43.4769 27.0036 43.6694C27.3545 43.8504 27.6261 44.1108 27.8185 44.4503C28.0223 44.7786 28.1637 45.169 28.243 45.6218C28.3335 46.0745 28.3788 46.5669 28.3788 47.0988V52.3958ZM35.2031 51.9544C35.0786 52.011 34.9088 52.0846 34.6938 52.1751C34.4787 52.2657 34.2297 52.3449 33.9468 52.4128C33.6638 52.4807 33.3639 52.5147 33.047 52.5147C32.6848 52.5147 32.3509 52.4524 32.0453 52.3279C31.7397 52.1921 31.4963 51.9884 31.3152 51.7167C31.1342 51.4338 31.0436 51.0829 31.0436 50.6641V44.705H29.8382V43.5335H31.0436V40.5794H32.5376V43.5335H34.524V44.705H32.5376V50.2057C32.5603 50.5226 32.6678 50.7603 32.8602 50.9188C33.0526 51.0659 33.279 51.1395 33.5393 51.1395C33.8336 51.1395 34.1052 51.0886 34.3542 50.9867C34.6032 50.8848 34.7674 50.8113 34.8466 50.766L35.2031 51.9544ZM39.6268 52.5656C38.8911 52.5656 38.2007 52.4468 37.5556 52.2091C36.9104 51.9601 36.3558 51.5922 35.8918 51.1055L36.469 50.0529C36.9783 50.5283 37.4877 50.8679 37.997 51.0716C38.5063 51.2753 39.027 51.3772 39.5589 51.3772C40.1701 51.3772 40.6681 51.264 41.053 51.0376C41.4378 50.7999 41.6302 50.4547 41.6302 50.002C41.6302 49.6738 41.5283 49.4304 41.3246 49.272C41.1322 49.1135 40.8549 48.9833 40.4927 48.8815C40.1305 48.7683 39.7004 48.6438 39.2024 48.508C38.5912 48.3269 38.0762 48.1345 37.6574 47.9307C37.2387 47.727 36.9217 47.4723 36.7067 47.1667C36.4916 46.8611 36.3841 46.4763 36.3841 46.0123C36.3841 45.4463 36.5313 44.971 36.8255 44.5861C37.1198 44.19 37.5216 43.8901 38.0309 43.6863C38.5516 43.4826 39.1402 43.3807 39.7966 43.3807C40.4531 43.3807 41.0473 43.4826 41.5793 43.6863C42.1112 43.8901 42.5696 44.19 42.9545 44.5861L42.2754 45.6218C41.9245 45.2596 41.5397 44.9936 41.1209 44.8238C40.7021 44.6427 40.2324 44.5522 39.7117 44.5522C39.4061 44.5522 39.1062 44.5918 38.8119 44.671C38.5176 44.7389 38.2743 44.8691 38.0819 45.0615C37.8895 45.2426 37.7933 45.5029 37.7933 45.8425C37.7933 46.1254 37.8668 46.3518 38.014 46.5216C38.1724 46.68 38.3988 46.8159 38.6931 46.9291C38.9987 47.0422 39.3665 47.1667 39.7966 47.3026C40.4644 47.495 41.0416 47.6874 41.5283 47.8798C42.0263 48.0722 42.4112 48.3212 42.6828 48.6268C42.9545 48.9324 43.0903 49.3569 43.0903 49.9001C43.0903 50.7377 42.7734 51.3942 42.1395 51.8695C41.5057 52.3336 40.6681 52.5656 39.6268 52.5656Z" fill="black"/>
</svg>
