<svg width="154" height="150" viewBox="0 0 154 150" fill="none" xmlns="http://www.w3.org/2000/svg">
<g clip-path="url(#clip0_90_185)">
<path d="M128.1 0H25.5C11.4167 0 0 11.4167 0 25.5V124.26C0 138.343 11.4167 149.76 25.5 149.76H128.1C142.183 149.76 153.6 138.343 153.6 124.26V25.5C153.6 11.4167 142.183 0 128.1 0Z" fill="#001E36"/>
<path d="M80.6658 105.845H40.068C39.3804 105.845 39.037 105.467 39.0378 104.711V39.282C39.0198 39.156 39.0313 39.0276 39.0715 38.9069C39.1117 38.7861 39.1795 38.6764 39.2694 38.5864C39.3594 38.4964 39.469 38.4286 39.5897 38.3883C39.7104 38.3481 39.8388 38.3364 39.9648 38.3544H52.536C52.634 38.3406 52.7339 38.3497 52.8277 38.3811C52.9215 38.4125 53.0068 38.4653 53.0768 38.5353C53.1467 38.6053 53.1994 38.6906 53.2307 38.7845C53.262 38.8784 53.2711 38.9782 53.2572 39.0762V92.8632H82.8294C83.4474 92.8632 83.688 93.1722 83.5512 93.7902L81.696 104.918C81.6917 105.07 81.6522 105.219 81.5807 105.353C81.5091 105.487 81.4075 105.603 81.2838 105.691C81.0927 105.79 80.8811 105.843 80.6658 105.846M90.8658 54.6348H102.097C102.724 54.6408 103.271 55.0608 103.436 55.6656C103.682 56.1169 103.856 56.6035 103.952 57.108C104.096 57.7716 104.198 58.4414 104.261 59.1174C104.329 59.8386 104.363 60.6114 104.364 61.4358C106.29 59.1928 108.613 57.324 111.216 55.923C114.14 54.3418 117.424 53.5431 120.748 53.6046C120.874 53.5866 121.002 53.5983 121.123 53.6385C121.243 53.6788 121.353 53.7466 121.443 53.8366C121.533 53.9266 121.601 54.0364 121.641 54.1571C121.681 54.2778 121.693 54.4062 121.675 54.5322V67.0002C121.675 67.4814 121.331 67.7218 120.644 67.7214C116.494 67.4646 112.342 68.2065 108.537 69.885C107.244 70.445 106.072 71.2497 105.085 72.255V104.919C105.085 105.537 104.81 105.846 104.261 105.846H91.7928C91.6529 105.866 91.5102 105.853 91.376 105.809C91.2419 105.764 91.12 105.689 91.02 105.589C90.92 105.489 90.8447 105.367 90.8 105.233C90.7554 105.098 90.7425 104.956 90.7626 104.816V69.3696C90.7626 68.5068 90.757 67.6154 90.7458 66.6954L90.7248 65.295C90.7208 65.0578 90.7162 64.819 90.711 64.5786C90.6848 63.3257 90.6492 62.0731 90.6042 60.8208L90.5562 59.5812C90.5107 58.1656 90.3732 56.7544 90.1446 55.3566C90.1204 55.2632 90.1195 55.1653 90.1418 55.0714C90.164 54.9776 90.2089 54.8906 90.2725 54.818C90.3361 54.7454 90.4164 54.6895 90.5066 54.6551C90.5967 54.6206 90.6938 54.6087 90.7896 54.6204L90.8658 54.6348Z" fill="#31A8FF"/>
</g>
<defs>
<clipPath id="clip0_90_185">
<rect width="153.6" height="150" fill="white"/>
</clipPath>
</defs>
</svg>
