<svg width="474" height="340" viewBox="0 0 474 340" fill="none" xmlns="http://www.w3.org/2000/svg">
<rect y="6" width="329" height="312" rx="16" fill="#FAFAFC"/>
<rect x="145" y="28" width="329" height="312" rx="16" fill="#FAFAFC"/>
<path d="M286.84 4H207.152C197.83 4.00199 188.89 7.70619 182.298 14.2981C175.706 20.8901 172.002 29.8301 172 39.1525V118.84C172 128.164 175.703 137.106 182.295 143.699C188.888 150.293 197.829 153.998 207.152 154H286.84C296.165 154 305.108 150.296 311.702 143.702C318.296 137.108 322 128.165 322 118.84V39.1525C321.998 29.8288 318.293 20.8876 311.699 14.2955C305.106 7.70331 296.164 4 286.84 4Z" stroke="#023430" stroke-width="6.25" stroke-miterlimit="10"/>
<path d="M272.297 67.0373C266.125 39.8048 253.255 32.5373 249.97 27.4298C248.618 25.1708 247.42 22.823 246.385 20.4023C246.212 22.8248 245.89 24.3473 243.835 26.1848C239.702 29.8673 222.167 44.1848 220.69 75.0998C219.317 103.952 241.9 121.742 244.885 123.587C247.18 124.712 249.977 123.587 251.342 122.575C262.225 115.075 277.105 95.1774 272.342 67.0373" stroke="#12914F" stroke-width="10" stroke-linejoin="round"/>
<path d="M247.315 108.22C246.752 115.36 246.34 119.515 244.9 123.595C244.9 123.595 245.845 130.39 246.512 137.59H248.867C249.429 132.519 250.286 127.486 251.432 122.515C248.387 121.015 247.435 114.49 247.315 108.22Z" fill="#B7C3C1"/>
<path d="M251.462 122.523C248.38 121.098 247.488 114.43 247.353 108.22C248.115 97.9764 248.338 87.6997 248.02 77.4326C247.855 72.0476 248.095 27.5351 246.693 21.0176C247.639 23.2179 248.732 25.3527 249.962 27.4076C253.247 32.5376 266.118 39.7901 272.29 67.0226C277.105 95.1326 262.307 115 251.462 122.523Z" stroke="#12914F" stroke-width="10" stroke-linecap="round" stroke-linejoin="round"/>
</svg>
