<svg width="150" height="150" viewBox="0 0 150 150" fill="none" xmlns="http://www.w3.org/2000/svg">
<g clip-path="url(#clip0_85_237)">
<path d="M75 149.725C72.8625 149.725 70.875 149.169 69.0188 148.206L50.0875 137.344C47.2437 135.831 48.6687 135.281 49.525 135.006C53.3625 133.769 54.075 133.494 58.0625 131.288C58.4875 131.013 59.0625 131.15 59.4875 131.425L74.0062 139.819C74.5687 140.094 75.2875 140.094 75.7125 139.819L132.506 108.044C133.069 107.769 133.356 107.219 133.356 106.531V43.1188C133.356 42.4313 133.075 41.8813 132.506 41.6063L75.7125 9.97501C75.1438 9.70001 74.4312 9.70001 74.0062 9.97501L17.2125 41.6063C16.6437 41.8813 16.3563 42.5688 16.3563 43.1188V106.531C16.3563 107.081 16.6437 107.769 17.2125 108.044L32.725 116.713C41.125 120.838 46.3875 116.025 46.3875 111.213V48.625C46.3875 47.8 47.1 46.975 48.1 46.975H55.3563C56.2125 46.975 57.0625 47.6625 57.0625 48.625V111.206C57.0625 122.075 50.9437 128.4 40.2687 128.4C36.9937 128.4 34.4312 128.4 27.175 124.963L12.2313 116.713C10.4305 115.722 8.92677 114.269 7.87529 112.504C6.82382 110.738 6.26274 108.724 6.25 106.669V43.2563C6.25 39.1313 8.525 35.2813 12.2313 33.2188L69.025 1.43751C70.874 0.489295 72.9221 -0.00524902 75 -0.00524902C77.0779 -0.00524902 79.126 0.489295 80.975 1.43751L137.775 33.2125C141.475 35.275 143.75 39.125 143.75 43.25V106.663C143.75 110.788 141.475 114.638 137.775 116.706L80.9812 148.475C79.0935 149.293 77.0575 149.715 75 149.713M92.5062 106.106C67.6 106.106 62.475 95.1063 62.475 85.75C62.475 84.925 63.1875 84.1 64.1813 84.1H71.5813C72.4375 84.1 73.1438 84.65 73.1438 85.475C74.2875 92.7625 77.5625 96.3375 92.65 96.3375C104.606 96.3375 109.731 93.725 109.731 87.5375C109.731 83.9625 108.306 81.35 89.6625 79.5625C74.1437 78.0438 64.4687 74.75 64.4687 62.7813C64.4687 51.6375 74.1438 45.0313 90.375 45.0313C108.594 45.0313 117.562 51.0875 118.7 64.2938C118.687 64.7409 118.537 65.1731 118.269 65.5313C117.988 65.8063 117.562 66.0813 117.131 66.0813H109.731C109.372 66.0726 109.025 65.9471 108.743 65.7239C108.461 65.5006 108.26 65.1917 108.169 64.8438C106.456 57.2813 102.044 54.8 90.375 54.8C77.275 54.8 75.7125 59.2 75.7125 62.5063C75.7125 66.4938 77.5625 67.7313 95.2125 69.9313C112.719 72.1313 120.975 75.2938 120.975 87.1188C120.831 99.2313 110.587 106.106 92.5062 106.106Z" fill="#8DC651"/>
</g>
<defs>
<clipPath id="clip0_85_237">
<rect width="150" height="150" fill="white"/>
</clipPath>
</defs>
</svg>
