<svg width="150" height="150" viewBox="0 0 150 150" fill="none" xmlns="http://www.w3.org/2000/svg">
<g clip-path="url(#clip0_90_170)">
<path fill-rule="evenodd" clip-rule="evenodd" d="M112.125 15.2126L113.312 15.9438L125.688 24.1938C127.253 25.2383 128.562 26.6228 129.518 28.2439C130.473 29.865 131.05 31.681 131.206 33.5563L131.25 34.5938V112.963C131.25 115.944 130.184 118.827 128.245 121.092C126.306 123.356 123.621 124.853 120.675 125.313L119.706 125.425L47.65 130.969C45.732 131.116 43.8059 130.819 42.0215 130.1C40.2372 129.382 38.6428 128.261 37.3625 126.825L36.6937 126.006L22.5 107.081C20.3429 104.204 19.0585 100.768 18.8 97.1813L18.75 95.8313V30.7876C18.7502 27.8061 19.8161 24.923 21.7552 22.6583C23.6944 20.3937 26.3791 18.8967 29.325 18.4376L30.2938 18.3251L101.469 12.8501C105.174 12.5646 108.881 13.3869 112.119 15.2126H112.125ZM118.75 44.2501L50 49.5376V118.25L118.75 112.963V44.2501ZM100 53.1251C101.658 53.1251 103.247 53.7835 104.419 54.9557C105.592 56.1278 106.25 57.7175 106.25 59.3751V103.125C106.25 104.783 105.592 106.372 104.419 107.544C103.247 108.717 101.658 109.375 100 109.375H96.875C95.8072 109.375 94.7571 109.102 93.8249 108.581C92.8927 108.06 92.1095 107.31 91.55 106.4L75 79.5001V106.25C75 107.908 74.3415 109.497 73.1694 110.669C71.9973 111.842 70.4076 112.5 68.75 112.5C67.0924 112.5 65.5027 111.842 64.3306 110.669C63.1585 109.497 62.5 107.908 62.5 106.25V62.5001C62.5 60.8425 63.1585 59.2528 64.3306 58.0807C65.5027 56.9085 67.0924 56.2501 68.75 56.2501H71.875C72.9428 56.2498 73.9929 56.5231 74.9251 57.0438C75.8573 57.5647 76.6405 58.3156 77.2 59.2251L93.75 86.1188V59.3751C93.75 57.7175 94.4085 56.1278 95.5806 54.9557C96.7527 53.7835 98.3424 53.1251 100 53.1251ZM102.425 25.3126L39.0312 30.1876L46.1375 37.2938L114.875 32.0126L106.375 26.3438C105.211 25.5676 103.82 25.2045 102.425 25.3126Z" fill="#0C0C0C"/>
</g>
<defs>
<clipPath id="clip0_90_170">
<rect width="150" height="150" fill="white"/>
</clipPath>
</defs>
</svg>
