<svg width="150" height="150" viewBox="0 0 150 150" fill="none" xmlns="http://www.w3.org/2000/svg">
<g clip-path="url(#clip0_90_195)">
<path d="M105.172 23.6719L149 60.1248L133.219 92.2342L106.797 84.9064H83.9373L105.172 23.6719Z" fill="url(#paint0_linear_90_195)"/>
<path d="M61.0154 47.3438L52.5311 92.2342L51.7189 107.484L30.3281 116.75L0 120.016L9.20332 23.0314L64.1561 0L98.0156 22.2029L61.0154 47.3438Z" fill="url(#paint1_linear_90_195)"/>
<path d="M61.0154 47.3438L65.1404 133.844L51.4377 150L0 120.016L42.2344 57.0779L61.0154 47.3438Z" fill="url(#paint2_linear_90_195)"/>
<path d="M117.609 41.0314H65.6408L111.562 0L117.609 41.0314Z" fill="url(#paint3_linear_90_195)"/>
<path d="M150 134.187L104.25 149.719L43.3283 132.562L61.0154 47.3438L68.0783 41.0314L105.172 37.5469L101.812 74.7967L131.313 63.3592L150 134.187Z" fill="url(#paint4_linear_90_195)"/>
<path d="M28.125 28.125H121.875V121.875H28.125V28.125Z" fill="black"/>
<path d="M39.8127 104.156H74.9689V110.016H39.8127V104.156ZM39.8438 39.8437H54.2186C62.5096 39.8437 67.5697 44.7134 67.6705 51.7698L67.6717 52.078C67.6717 60.2032 61.3436 64.422 53.4686 64.422H47.6561V74.953H39.8438V39.8437ZM53.6877 57.5466C57.4816 57.5466 59.7352 55.3271 59.8107 52.3868L59.8125 52.1407C59.8125 48.672 57.4061 46.8122 53.5623 46.8122H47.6561V57.5466H53.6877ZM71.8594 57.5155V57.4218C71.8142 55.0131 72.2577 52.6202 73.163 50.3877C74.0683 48.1552 75.4167 46.1293 77.1268 44.4324C78.8368 42.7354 80.8731 41.4027 83.1125 40.5146C85.352 39.6266 87.7482 39.2016 90.1565 39.2653C92.7151 39.1358 95.2721 39.5507 97.6584 40.4827C100.045 41.4147 102.206 42.8425 104 44.6718L99.0938 50.3437C96.7327 47.8976 93.5078 46.4731 90.1096 46.3751C84.2531 46.3751 80.0168 51.188 79.9236 57.1124L79.9219 57.4218C79.9219 63.4376 84.0938 68.4532 90.1096 68.4532C93.76 68.4532 96.1189 67.1618 98.5957 65.0138L98.9684 64.6851C99.0934 64.5734 99.2184 64.4595 99.3434 64.3435L104.25 69.297C102.483 71.3627 100.269 72.999 97.7756 74.0818C95.2823 75.1646 92.5751 75.6655 89.8594 75.5466C87.483 75.5825 85.1237 75.1404 82.9216 74.2466C80.7195 73.3528 78.7195 72.0254 77.0404 70.3435C75.3613 68.6615 74.0375 66.6592 73.1474 64.4556C72.2574 62.2519 71.8194 59.8918 71.8594 57.5155Z" fill="white"/>
</g>
<defs>
<linearGradient id="paint0_linear_90_195" x1="-2953.57" y1="3451.79" x2="5973" y2="3451.79" gradientUnits="userSpaceOnUse">
<stop stop-color="#21D789"/>
<stop offset="1" stop-color="#07C3F2"/>
</linearGradient>
<linearGradient id="paint1_linear_90_195" x1="-1877.98" y1="12659.4" x2="12541.1" y2="2015.5" gradientUnits="userSpaceOnUse">
<stop offset="0.01" stop-color="#FCF84A"/>
<stop offset="0.11" stop-color="#A7EB62"/>
<stop offset="0.21" stop-color="#5FE077"/>
<stop offset="0.27" stop-color="#32DA84"/>
<stop offset="0.31" stop-color="#21D789"/>
<stop offset="0.58" stop-color="#21D789"/>
<stop offset="0.6" stop-color="#21D789"/>
<stop offset="0.69" stop-color="#20D68C"/>
<stop offset="0.76" stop-color="#1ED497"/>
<stop offset="0.83" stop-color="#19D1A9"/>
<stop offset="0.9" stop-color="#13CCC2"/>
<stop offset="0.97" stop-color="#0BC6E1"/>
<stop offset="1" stop-color="#07C3F2"/>
</linearGradient>
<linearGradient id="paint2_linear_90_195" x1="2750.88" y1="11952.1" x2="5647.62" y2="2861.48" gradientUnits="userSpaceOnUse">
<stop stop-color="#21D789"/>
<stop offset="0.16" stop-color="#24D888"/>
<stop offset="0.3" stop-color="#2FD985"/>
<stop offset="0.43" stop-color="#41DC80"/>
<stop offset="0.55" stop-color="#5AE079"/>
<stop offset="0.67" stop-color="#7AE46F"/>
<stop offset="0.79" stop-color="#A1EA64"/>
<stop offset="0.9" stop-color="#CFF157"/>
<stop offset="1" stop-color="#FCF84A"/>
</linearGradient>
<linearGradient id="paint3_linear_90_195" x1="-439.026" y1="5931.1" x2="4613.77" y2="-862.736" gradientUnits="userSpaceOnUse">
<stop stop-color="#21D789"/>
<stop offset="0.09" stop-color="#23D986"/>
<stop offset="0.17" stop-color="#2ADE7B"/>
<stop offset="0.25" stop-color="#36E669"/>
<stop offset="0.27" stop-color="#3BEA62"/>
<stop offset="0.35" stop-color="#47EB61"/>
<stop offset="0.49" stop-color="#67ED5D"/>
<stop offset="0.69" stop-color="#9AF156"/>
<stop offset="0.92" stop-color="#E0F64D"/>
<stop offset="1" stop-color="#FCF84A"/>
</linearGradient>
<linearGradient id="paint4_linear_90_195" x1="11342" y1="5700.09" x2="-814.423" y2="5586.99" gradientUnits="userSpaceOnUse">
<stop offset="0.39" stop-color="#FCF84A"/>
<stop offset="0.46" stop-color="#ECF74C"/>
<stop offset="0.61" stop-color="#C1F451"/>
<stop offset="0.82" stop-color="#7EEF5A"/>
<stop offset="1" stop-color="#3BEA62"/>
</linearGradient>
<clipPath id="clip0_90_195">
<rect width="150" height="150" fill="white"/>
</clipPath>
</defs>
</svg>
