<svg width="158" height="158" viewBox="0 0 158 158" fill="none" xmlns="http://www.w3.org/2000/svg">
<path d="M92.8225 47.6275C79.8175 51.3775 71.1325 63.4825 61.195 72.04C55.8175 77.935 41.8975 86.7775 52.5775 94.27C44.98 102.52 36.91 110.327 29.155 118.427C23.5375 122.927 27.22 132.077 34.405 131.365C41.785 130.892 53.905 134.47 54.9325 123.865C55.12 122.612 55.9525 120.962 56.98 120.4C77.755 107.732 100.368 90.4825 109.825 67.4575C113.095 56.17 104.058 45.28 92.8225 47.6275ZM59.7175 84.07C60.34 83.395 60.9775 82.72 61.6225 82.0525C62.2675 81.385 62.9275 80.71 63.595 80.05C71.905 71.8 81.595 64.075 90.04 55.99C91.7725 54.49 94.885 54.49 97.36 53.8075C97.5925 54.2725 97.8325 54.7375 98.065 55.21C90.0475 63.8275 81.5125 71.98 73.6075 80.71C69.445 86.215 63.2275 86.0275 56.995 87.19C57.87 86.13 58.7775 85.09 59.7175 84.07ZM47.7475 124.33H33.115L43.2775 116.222C44.3725 118.09 49.105 119.125 47.7475 124.33ZM103.248 62.995C103.083 63.6925 102.895 64.39 102.678 65.095C102.603 65.3425 102.52 65.5975 102.438 65.845C102.355 66.0925 102.34 66.13 102.288 66.2725C102.198 66.5425 102.1 66.82 101.995 67.09C101.89 67.36 101.763 67.705 101.635 68.0125C101.635 68.0725 101.583 68.1325 101.56 68.2C101.44 68.5 101.313 68.7925 101.178 69.0925C101.043 69.3925 100.885 69.76 100.72 70.09C100.555 70.42 100.405 70.7575 100.233 71.0875C99.8875 71.7775 99.52 72.46 99.13 73.15C98.96 73.455 98.78 73.7625 98.59 74.0725C96.5058 77.522 94.1296 80.7865 91.4875 83.83C90.9425 84.47 90.3875 85.1 89.8225 85.72C89.4625 86.1175 89.0725 86.5075 88.735 86.8975C88.3975 87.2875 87.985 87.6475 87.625 88.0675C87.265 88.4875 86.9425 88.7725 86.59 89.125C86.485 89.2375 86.38 89.35 86.2675 89.455C85.7875 89.935 85.3075 90.415 84.82 90.8875L84.1675 91.51C83.7775 91.89 83.38 92.265 82.975 92.635L82.3525 93.2125L81.535 93.9625C79.915 95.4325 78.2625 96.8625 76.5775 98.2525L74.5525 99.895C72.52 101.522 70.465 103.082 68.4325 104.575C67.7575 105.062 67.09 105.542 66.4225 106.007C65.2525 106.832 64.09 107.635 62.95 108.4L62.2 108.88L61.45 109.397C61.12 109.615 60.7975 109.832 60.475 110.035L58.3225 111.4C57.64 111.827 56.965 112.24 56.305 112.637C54.895 113.492 53.54 114.28 52.24 115L47.3125 109.855C52.6375 104.425 57.8125 98.86 63.355 93.715C64.7125 92.4625 67.405 92.7625 69.355 91.9975C71.305 91.2325 73.57 90.3925 75.0325 88.9225C84.2575 79.645 93.3025 70.1725 102.415 60.7825L103.623 61.0825C103.563 61.705 103.42 62.335 103.278 62.965L103.248 62.995Z" fill="#FF6C37"/>
<path d="M103.652 39.9173C103.36 58.3523 131.545 58.5848 131.575 40.1723C131.695 21.9923 103.892 21.7673 103.652 39.9173ZM113.357 45.4597C107.552 40.7047 111.812 31.9597 118.697 33.3397C117.19 37.5322 110.312 38.8297 113.357 45.4597Z" fill="#FF6C37"/>
<path d="M125.673 4H32.3275C16.6827 4 4 16.6826 4 32.3275V125.673C4 141.317 16.6827 154 32.3275 154H125.673C141.317 154 154 141.317 154 125.673V32.3275C154 16.6826 141.317 4 125.673 4Z" stroke="#FF6C37" stroke-width="6.25" stroke-miterlimit="10"/>
</svg>
