<svg width="150" height="150" viewBox="0 0 150 150" fill="none" xmlns="http://www.w3.org/2000/svg">
<g clip-path="url(#clip0_90_181)">
<path d="M114.844 0H35.1562C15.74 0 0 15.74 0 35.1562V114.844C0 134.26 15.74 150 35.1562 150H114.844C134.26 150 150 134.26 150 114.844V35.1562C150 15.74 134.26 0 114.844 0Z" fill="#00005B"/>
<path d="M31.6406 107.039V42.6639C31.6406 42.2268 31.8281 41.9766 32.2658 41.9766C33.3281 41.9766 34.3283 41.9766 35.7656 41.9139C37.2656 41.8518 38.8283 41.8518 40.5158 41.7891C42.2033 41.7264 44.0156 41.7264 45.9533 41.6643C47.8904 41.6016 49.7654 41.6016 51.6404 41.6016C56.7656 41.6016 61.0154 42.2268 64.5158 43.5393C67.6532 44.6046 70.514 46.3552 72.8906 48.6639C74.9045 50.6845 76.4605 53.1144 77.4533 55.7889C78.3908 58.4139 78.8906 61.1016 78.8906 63.9141C78.8906 69.2889 77.6408 73.7268 75.1406 77.2266C72.6404 80.7264 69.1406 83.3514 65.0783 84.8514C60.8279 86.4141 56.1404 86.9766 51.0158 86.9766C49.5158 86.9766 48.5156 86.9766 47.8904 86.9139C47.2658 86.8518 46.3904 86.8518 45.2033 86.8518V106.914C45.2654 107.351 44.9531 107.726 44.5154 107.789H32.3906C31.8908 107.789 31.6406 107.539 31.6406 106.976V107.039ZM45.2654 54.1014V75.1014C46.1408 75.1641 46.9529 75.2268 47.7029 75.2268H51.0158C53.4533 75.2268 55.8908 74.8518 58.2029 74.1018C60.2033 73.5393 61.9529 72.3516 63.3281 70.7889C64.6406 69.2268 65.2658 67.1016 65.2658 64.3518C65.3244 62.3986 64.8257 60.469 63.8279 58.7889C62.7656 57.1641 61.2656 55.9143 59.4533 55.2264C57.1406 54.2889 54.6404 53.9139 52.0781 53.9766C50.4533 53.9766 49.0154 53.9766 47.8283 54.0393C46.5779 53.9766 45.7031 54.0393 45.2654 54.1014ZM87.8906 57.7893H98.8283C99.4535 57.7893 99.9533 58.2264 100.141 58.7889C100.328 59.2893 100.453 59.7891 100.516 60.3516C100.641 60.9768 100.766 61.6641 100.828 62.2893C100.891 62.9766 100.954 63.7266 100.954 64.5393C102.83 62.3483 105.098 60.5255 107.641 59.1639C110.516 57.5391 113.828 56.7264 117.141 56.7264C117.578 56.6643 117.953 56.9766 118.016 57.4143V69.8514C118.016 70.3518 117.703 70.5393 117.016 70.5393C114.766 70.4766 112.453 70.6641 110.266 71.1639C108.454 71.5389 106.703 72.1014 105.016 72.8514C103.828 73.4139 102.703 74.1639 101.828 75.1641V107.039C101.828 107.664 101.578 107.914 101.016 107.914H88.7033C88.2035 107.977 87.7658 107.664 87.7031 107.164V72.2889C87.7031 70.7889 87.7031 69.2268 87.641 67.6014C87.5783 65.9766 87.5783 64.3518 87.5156 62.7264C87.5156 61.2891 87.3908 59.9139 87.266 58.4766C87.2033 58.1643 87.3908 57.8514 87.7031 57.7893C87.7031 57.7266 87.8285 57.7266 87.8906 57.7893Z" fill="#9999FF"/>
</g>
<defs>
<clipPath id="clip0_90_181">
<rect width="150" height="150" fill="white"/>
</clipPath>
</defs>
</svg>
