<svg width="150" height="150" viewBox="0 0 150 150" fill="none" xmlns="http://www.w3.org/2000/svg">
<g clip-path="url(#clip0_90_149)">
<path d="M114.844 0H35.1562C15.74 0 0 15.74 0 35.1562V114.844C0 134.26 15.74 150 35.1562 150H114.844C134.26 150 150 134.26 150 114.844V35.1562C150 15.74 134.26 0 114.844 0Z" fill="#001E36"/>
<path d="M33.75 104.32V40.0079C33.75 39.5702 33.9375 39.3206 34.3752 39.3206C35.4375 39.3206 36.4377 39.3206 37.875 39.2579C39.375 39.1952 40.9377 39.1952 42.6252 39.1331C44.3127 39.0704 46.125 39.0704 48.0627 39.0077C49.9998 38.9456 51.8748 38.9456 53.7498 38.9456C58.875 38.9456 63.1248 39.5702 66.6252 40.8827C69.7626 41.9482 72.6235 43.699 75 46.0079C77.0139 48.0285 78.5699 50.4583 79.5627 53.1329C80.5002 55.7579 81 58.4456 81 61.2581C81 66.6329 79.7502 71.0702 77.25 74.5706C74.7498 78.0704 71.25 80.6954 67.1877 82.1954C62.9373 83.7581 58.2498 84.3206 53.1252 84.3206C51.6252 84.3206 50.625 84.3206 49.9998 84.2579C49.3752 84.1952 48.4998 84.1952 47.3127 84.1952V104.258C47.3748 104.695 47.0625 105.07 46.6248 105.133H34.5C34.0002 105.133 33.75 104.883 33.75 104.32ZM47.3748 51.3827V72.3827C48.2502 72.4454 49.0623 72.5081 49.8123 72.5081H53.1252C55.5627 72.5081 58.0002 72.1331 60.3123 71.3831C62.3127 70.8206 64.0623 69.6329 65.4375 68.0702C66.75 66.5081 67.3752 64.3829 67.3752 61.6331C67.4339 59.6798 66.9351 57.7503 65.9373 56.0702C64.875 54.4454 63.375 53.1956 61.5627 52.5077C59.25 51.5702 56.7498 51.1952 54.1875 51.2579C52.5627 51.2579 51.1248 51.2579 49.9377 51.3206C48.6873 51.2579 47.8125 51.3206 47.3748 51.3827ZM120 68.5706C118.125 67.5704 116.125 66.8831 114 66.4454C111.687 65.9456 109.375 65.6327 107 65.6327C105.75 65.5706 104.438 65.7581 103.25 66.0704C102.438 66.2579 101.75 66.6956 101.313 67.3202C101 67.8206 100.812 68.4452 100.812 69.0077C100.812 69.5702 101.062 70.1327 101.438 70.6331C102 71.3204 102.75 71.8829 103.563 72.3206C105.012 73.071 106.492 73.7592 108 74.3831C111.375 75.5081 114.625 77.0702 117.625 78.9452C119.688 80.2577 121.375 82.0079 122.562 84.1331C123.562 86.1329 124.062 88.3202 124 90.5702C124.062 93.5081 123.188 96.4454 121.563 98.8829C119.819 101.378 117.387 103.311 114.563 104.445C111.5 105.758 107.75 106.446 103.25 106.446C100.375 106.446 97.5627 106.195 94.7502 105.633C92.5459 105.252 90.402 104.58 88.3752 103.633C87.9375 103.383 87.6252 102.945 87.6873 102.445V91.5704C87.6873 91.3829 87.75 91.1327 87.9375 91.0079C88.125 90.8831 88.3125 90.9452 88.5 91.0706C90.9375 92.5079 93.4998 93.5081 96.2502 94.1327C98.625 94.7579 101.125 95.0702 103.625 95.0702C106 95.0702 107.688 94.7579 108.813 94.1954C109.812 93.7577 110.5 92.6954 110.5 91.5704C110.5 90.6956 110 89.8829 109 89.0702C108 88.2581 105.938 87.3206 102.875 86.1329C99.7332 85.0258 96.7497 83.513 94.0002 81.6329C92.0417 80.2369 90.419 78.422 89.25 76.3202C88.2498 74.3204 87.75 72.1331 87.8127 69.9452C87.8127 67.2581 88.5627 64.6952 89.9373 62.3831C91.5 59.8829 93.8127 57.8831 96.4998 56.6327C99.4377 55.1327 103.125 54.4454 107.562 54.4454C110.125 54.4454 112.75 54.6329 115.313 55.0079C117.188 55.2581 119 55.7579 120.687 56.4452C120.938 56.5079 121.188 56.7581 121.312 57.0077C121.375 57.2579 121.437 57.5081 121.437 57.7577V67.9454C121.437 68.1956 121.312 68.4452 121.125 68.5706C120.562 68.6954 120.25 68.6954 120 68.5706Z" fill="#31A8FF"/>
</g>
<defs>
<clipPath id="clip0_90_149">
<rect width="150" height="150" fill="white"/>
</clipPath>
</defs>
</svg>
