<svg width="207" height="206" viewBox="0 0 207 206" fill="none" xmlns="http://www.w3.org/2000/svg">
<path d="M55.331 23.2674C54.791 -4.02265 147.5 -1.23535 147.031 24.7646C147.031 22.2146 146.881 71.5873 147.031 71.9173C147.701 87.1073 135.411 95.4473 122.531 95.5473C75.0909 97.1573 38.041 82.2174 43.921 147.757C35.191 147.277 24.351 149.847 16.921 142.837C-0.149046 134.217 -1.07906 67.2774 18.7809 59.7874C23.058 56.8423 28.1842 55.3842 33.371 55.6373H103.951V43.7874H55.381V23.4373V23.2674M73.7909 14.2674C75.2759 14.258 76.748 14.544 78.1214 15.1088C79.4948 15.6737 80.7422 16.506 81.7909 17.5573C82.8328 18.5987 83.6587 19.8358 84.2209 21.1973C84.7805 22.562 85.0692 24.0224 85.071 25.4973M73.8409 14.2674C72.3692 14.2681 70.9118 14.5568 69.551 15.1173C67.4788 15.9549 65.7029 17.3903 64.4492 19.2406C63.1955 21.0908 62.5208 23.2723 62.511 25.5073C62.5105 27.7235 63.164 29.8906 64.3896 31.7371C65.6152 33.5835 67.3585 35.0272 69.401 35.8873C70.7618 36.4478 72.2192 36.7366 73.691 36.7373C75.176 36.7467 76.648 36.4606 78.0214 35.8958C79.3948 35.331 80.6422 34.4987 81.691 33.4473C82.7329 32.406 83.5587 31.1689 84.121 29.8073C84.6815 28.443 84.9702 26.9823 84.9709 25.5073" stroke="#3674A4" stroke-width="6.25" stroke-miterlimit="10"/>
<path d="M151.741 182.677C152.271 209.967 60.181 207.677 60.181 181.677C60.181 184.677 60.1809 134.357 60.0309 134.037C59.3609 118.847 71.6609 110.507 84.5309 110.407C131.971 108.797 169.031 123.727 163.151 58.1973C171.881 58.6773 182.721 56.1073 190.151 63.1173C207.211 71.7373 208.151 138.667 188.281 146.117C184.007 149.071 178.879 150.533 173.691 150.277H173.561H103.161V162.137H151.691V182.487V182.667M133.271 191.667C131.795 191.675 130.333 191.386 128.971 190.817C127.609 190.255 126.372 189.429 125.331 188.387C124.289 187.34 123.46 186.1 122.891 184.737C122.329 183.373 122.041 181.912 122.041 180.437C122.042 178.966 122.33 177.508 122.891 176.147C123.46 174.784 124.289 173.545 125.331 172.497C126.372 171.455 127.609 170.63 128.971 170.067C130.333 169.498 131.795 169.209 133.271 169.217C134.747 169.207 136.21 169.496 137.571 170.067C139.623 170.915 141.378 172.353 142.611 174.2C143.845 176.046 144.503 178.217 144.501 180.437C144.501 181.912 144.213 183.373 143.651 184.737C143.087 186.1 142.259 187.339 141.216 188.382C140.173 189.425 138.934 190.253 137.571 190.817C136.21 191.388 134.747 191.677 133.271 191.667Z" stroke="#FDD84B" stroke-width="6.25" stroke-miterlimit="10"/>
</svg>
