<svg width="150" height="134" viewBox="0 0 150 134" fill="none" xmlns="http://www.w3.org/2000/svg">
<path d="M123.323 43.2509C121.724 42.706 120.118 42.1963 118.495 41.7334C118.765 40.6202 119.017 39.5186 119.239 38.4406C122.896 20.6932 120.505 6.40275 112.343 1.69785C104.521 -2.81369 91.7249 1.8912 78.7997 13.1349C77.5224 14.2481 76.2763 15.3907 75.0615 16.5625C74.2471 15.7832 73.421 15.0157 72.5772 14.2716C59.0309 2.24275 45.4552 -2.82541 37.3051 1.89121C29.489 6.42033 27.1689 19.8553 30.4617 36.6711C30.7898 38.3351 31.1589 39.9913 31.5691 41.6396C29.6473 42.1865 27.7978 42.7724 26.0205 43.3974C10.1363 48.9343 0 57.6117 0 66.6113C0 75.9039 10.8863 85.2317 27.4266 90.8858C28.7684 91.3369 30.116 91.7646 31.4812 92.1514C31.0359 93.9091 30.6433 95.7078 30.3094 97.5066C27.1688 114.029 29.6238 127.148 37.4165 131.642C45.4728 136.288 58.984 131.513 72.1495 120.012C73.2159 119.074 74.2588 118.113 75.2783 117.129C76.5986 118.394 77.9501 119.627 79.3329 120.826C92.0824 131.794 104.668 136.224 112.46 131.718C120.505 127.06 123.118 112.969 119.726 95.8192C119.456 94.4774 119.14 93.1357 118.823 91.8115C119.773 91.5303 120.702 91.2393 121.612 90.9385C138.809 85.2434 150 76.0328 150 66.6113C150 57.5648 139.53 48.8288 123.323 43.2509ZM119.591 84.8508C118.771 85.1204 117.933 85.384 117.072 85.636C114.966 79.1369 112.422 72.7885 109.455 66.6348C112.305 60.5554 114.744 54.2916 116.755 47.8855C118.29 48.3308 119.777 48.7995 121.214 49.2917C135.094 54.0728 143.561 61.1389 143.561 66.582C143.59 72.3943 134.456 79.9233 119.597 84.845L119.591 84.8508ZM113.433 97.0555C114.933 104.637 115.15 111.492 114.154 116.854C113.263 121.67 111.464 124.881 109.244 126.164C104.515 128.9 94.4084 125.343 83.5046 115.963C82.2156 114.85 80.9577 113.703 79.7312 112.524C84.28 107.493 88.481 102.159 92.305 96.5574C99.1402 95.9839 105.928 94.9385 112.619 93.4286C112.935 94.663 113.208 95.8699 113.439 97.0496L113.433 97.0555ZM51.1386 125.689C46.5216 127.318 42.8421 127.365 40.5922 126.082C35.858 123.351 33.8893 112.817 36.5727 98.6902C36.895 97.0203 37.2583 95.3563 37.6685 93.7099C44.3322 95.144 51.0858 96.1228 57.8825 96.6395C61.824 102.22 66.1301 107.534 70.7727 112.547C69.843 113.449 68.8899 114.328 67.9134 115.184C62.1128 120.264 56.2771 123.873 51.1386 125.689ZM29.5067 84.8098C22.1886 82.308 16.1478 79.062 12.0112 75.5114C8.29069 72.3299 6.40987 69.1659 6.40987 66.5996C6.40987 61.1389 14.5541 54.1724 28.1356 49.4382C29.7821 48.8523 31.5105 48.3191 33.2975 47.8093C35.3132 54.2783 37.756 60.6064 40.6097 66.752C37.7207 72.9879 35.2467 79.4079 33.2037 85.9699C31.9577 85.6145 30.7254 85.2278 29.5067 84.8098ZM36.7544 35.4407C33.9362 21.033 35.8111 10.1643 40.5219 7.43982C45.5373 4.51024 56.6345 8.67609 68.3294 19.0585C69.1106 19.7382 69.8605 20.4315 70.5793 21.1385C65.9762 26.1248 61.7074 31.4095 57.8005 36.9582C51.0682 37.558 44.3823 38.5972 37.7856 40.0694C37.3911 38.5304 37.0474 36.9875 36.7544 35.4407ZM101.457 51.4186C99.9922 48.8796 98.4727 46.3777 96.8986 43.913C101.68 44.4989 106.273 45.3251 110.574 46.3035C109.279 50.4459 107.644 54.7817 105.775 59.1937C104.389 56.5844 102.949 53.9927 101.457 51.4186ZM75.0908 25.7145C78.2081 29.1177 81.153 32.6747 83.9147 36.3723C78.0087 36.091 72.1007 36.091 66.1908 36.3723C69.0852 32.5287 72.0734 28.9546 75.0732 25.7145H75.0908ZM48.5371 51.4596C47.0685 54.0142 45.6564 56.6 44.301 59.2171C42.4378 54.7934 40.8382 50.4284 39.5375 46.2391C43.8147 45.2782 48.3789 44.4813 53.1366 43.8954C51.5312 46.3836 49.9921 48.905 48.5196 51.4596H48.5371ZM53.2713 89.7491C48.6288 89.2481 44.0154 88.5069 39.4496 87.5285C40.7738 83.2513 42.3792 78.8042 44.3069 74.2868C45.6662 76.9039 47.0841 79.4897 48.5606 82.0443C50.0684 84.6692 51.6328 87.2375 53.2538 89.7491H53.2713ZM75.2666 107.912C72.2315 104.637 69.2023 101.01 66.2435 97.1141C69.1144 97.2273 72.044 97.284 75.0322 97.284C78.0848 97.284 81.1082 97.2136 84.0846 97.0847C81.336 100.848 78.3967 104.467 75.2783 107.93L75.2666 107.912ZM105.851 74.0349C107.756 78.3433 109.436 82.7475 110.884 87.2297C106.265 88.2698 101.595 89.0677 96.8927 89.6202C98.4825 87.1047 100.018 84.5657 101.498 82.0033C102.978 79.4409 104.424 76.7906 105.834 74.0524L105.851 74.0349ZM95.9494 78.7866C93.676 82.7318 91.2777 86.6008 88.7543 90.3936C84.1842 90.7139 79.6063 90.874 75.0205 90.874C70.3332 90.874 65.8099 90.7334 61.439 90.4463C58.8493 86.6652 56.404 82.7904 54.1033 78.8218C51.8026 74.8532 49.6699 70.8241 47.7051 66.7344C49.6777 62.6291 51.8046 58.598 54.0857 54.6411C56.3669 50.692 58.7907 46.8328 61.357 43.0634C65.8216 42.7295 70.3918 42.5537 75.0147 42.5537C79.6375 42.5537 84.2428 42.7294 88.7016 43.0693C91.2445 46.8308 93.6526 50.6764 95.9259 54.6059C98.1993 58.5355 100.348 62.547 102.371 66.6406C100.371 70.7772 98.2247 74.8317 95.9318 78.8042L95.9494 78.7866ZM109.168 7.22889C114.189 10.1585 116.146 21.8064 112.988 37.1105C112.789 38.089 112.56 39.0792 112.314 40.0928C105.707 38.591 99.0065 37.532 92.2581 36.923C88.3929 31.3702 84.1569 26.0849 79.5789 21.1033C80.7038 20.0174 81.8542 18.9628 83.0299 17.9394C94.0861 8.33041 104.433 4.52782 109.15 7.24646L109.168 7.22889ZM75.0205 53.188C77.6696 53.188 80.2592 53.9736 82.4618 55.4453C84.6645 56.9171 86.3812 59.0089 87.395 61.4564C88.4087 63.9038 88.6739 66.5969 88.1571 69.1951C87.6403 71.7933 86.3647 74.1798 84.4915 76.053C82.6183 77.9262 80.2317 79.2019 77.6335 79.7187C75.0354 80.2355 72.3423 79.9703 69.8949 78.9565C67.4474 77.9427 65.3555 76.226 63.8838 74.0234C62.412 71.8207 61.6265 69.2311 61.6265 66.582C61.6311 63.0358 63.0419 59.6362 65.5495 57.1286C68.057 54.6211 71.4567 53.2103 75.0029 53.2056L75.0205 53.188Z" fill="#00D7FF"/>
</svg>
