<svg width="200" height="200" viewBox="0 0 200 200" fill="none" xmlns="http://www.w3.org/2000/svg">
<path d="M20.8333 99.9999C20.8333 62.6832 20.8333 44.0166 32.425 32.4249C44.0167 20.8333 62.675 20.8333 100 20.8333C137.317 20.8333 155.983 20.8333 167.575 32.4249C179.167 44.0166 179.167 62.6749 179.167 99.9999C179.167 137.317 179.167 155.983 167.575 167.575C155.983 179.167 137.325 179.167 100 179.167C62.6833 179.167 44.0167 179.167 32.425 167.575C20.8333 155.983 20.8333 137.325 20.8333 99.9999Z" stroke="#EC4E20" stroke-width="6.25" stroke-linecap="round" stroke-linejoin="round"/>
<path d="M70.125 83.3333C69.3612 81.173 68.0183 79.2642 66.2431 77.8155C64.4678 76.3667 62.3285 75.4339 60.0588 75.1188C57.7892 74.8037 55.4767 75.1185 53.3739 76.0288C51.2711 76.9391 49.459 78.4099 48.1356 80.2805C46.8122 82.151 46.0284 84.3493 45.8699 86.6352C45.7113 88.9211 46.1842 91.2066 47.2367 93.2419C48.2893 95.2772 49.881 96.9841 51.838 98.1759C53.795 99.3678 56.042 99.9988 58.3334 100C60.6247 100.001 62.8717 100.632 64.8287 101.824C66.7857 103.016 68.3774 104.723 69.43 106.758C70.4825 108.793 70.9554 111.079 70.7969 113.365C70.6383 115.651 69.8545 117.849 68.5311 119.72C67.2077 121.59 65.3956 123.061 63.2928 123.971C61.19 124.882 58.8775 125.196 56.6079 124.881C54.3383 124.566 52.1989 123.633 50.4237 122.185C48.6484 120.736 47.3055 118.827 46.5417 116.667M104.167 125C100.851 125 97.6721 123.683 95.3278 121.339C92.9836 118.995 91.6667 115.815 91.6667 112.5V87.5C91.6667 84.1848 92.9836 81.0054 95.3278 78.6612C97.6721 76.317 100.851 75 104.167 75C107.482 75 110.661 76.317 113.006 78.6612C115.35 81.0054 116.667 84.1848 116.667 87.5V112.5C116.667 115.815 115.35 118.995 113.006 121.339C110.661 123.683 107.482 125 104.167 125ZM104.167 125L116.667 137.5M137.5 75V108.333C137.5 116.192 137.5 120.117 139.942 122.558C142.383 125 146.308 125 154.167 125" stroke="#EC4E20" stroke-width="6.25" stroke-linecap="round" stroke-linejoin="round"/>
</svg>
