<svg width="172" height="172" viewBox="0 0 172 172" fill="none" xmlns="http://www.w3.org/2000/svg">
<g clip-path="url(#clip0_95_346)">
<path d="M7.35 14.2C11.1332 14.2 14.2 11.1332 14.2 7.35C14.2 3.56685 11.1332 0.5 7.35 0.5C3.56685 0.5 0.5 3.56685 0.5 7.35C0.5 11.1332 3.56685 14.2 7.35 14.2Z" stroke="black" stroke-miterlimit="10"/>
<path d="M7.35 92.1C11.1332 92.1 14.2 89.0332 14.2 85.25C14.2 81.4669 11.1332 78.4 7.35 78.4C3.56685 78.4 0.5 81.4669 0.5 85.25C0.5 89.0332 3.56685 92.1 7.35 92.1Z" stroke="black" stroke-miterlimit="10"/>
<path d="M7.35 170.97C11.1332 170.97 14.2 167.903 14.2 164.12C14.2 160.337 11.1332 157.27 7.35 157.27C3.56685 157.27 0.5 160.337 0.5 164.12C0.5 167.903 3.56685 170.97 7.35 170.97Z" stroke="black" stroke-miterlimit="10"/>
<path d="M85.93 14.2C89.7132 14.2 92.78 11.1332 92.78 7.35C92.78 3.56685 89.7132 0.5 85.93 0.5C82.1469 0.5 79.08 3.56685 79.08 7.35C79.08 11.1332 82.1469 14.2 85.93 14.2Z" stroke="black" stroke-miterlimit="10"/>
<path d="M164.51 14.2C168.293 14.2 171.36 11.1332 171.36 7.35C171.36 3.56685 168.293 0.5 164.51 0.5C160.727 0.5 157.66 3.56685 157.66 7.35C157.66 11.1332 160.727 14.2 164.51 14.2Z" stroke="black" stroke-miterlimit="10"/>
<path d="M7.34998 92.1V157.27" stroke="black" stroke-miterlimit="10"/>
<path d="M14.19 7.34998H79.08" stroke="black" stroke-miterlimit="10"/>
<path d="M92.77 7.34998H157.66" stroke="black" stroke-miterlimit="10"/>
<path d="M36.03 164.12H81.86" stroke="black" stroke-miterlimit="10"/>
<path d="M7.34998 14.19V78.41" stroke="black" stroke-miterlimit="10"/>
<path d="M164.51 35.52V81.83" stroke="black" stroke-miterlimit="10"/>
<path d="M26.76 165.95C28.3119 165.95 29.57 164.692 29.57 163.14C29.57 161.588 28.3119 160.33 26.76 160.33C25.2081 160.33 23.95 161.588 23.95 163.14C23.95 164.692 25.2081 165.95 26.76 165.95Z" fill="black"/>
<path d="M164.51 28.76C166.062 28.76 167.32 27.5019 167.32 25.95C167.32 24.3981 166.062 23.14 164.51 23.14C162.958 23.14 161.7 24.3981 161.7 25.95C161.7 27.5019 162.958 28.76 164.51 28.76Z" fill="black"/>
<path d="M128.69 31.05C129.241 31.0396 129.792 31.0663 130.34 31.13C130.795 31.294 131.175 31.6173 131.41 32.04C131.828 32.7315 132.027 33.5333 131.98 34.34V60.66C132.027 61.4666 131.828 62.2685 131.41 62.96C131.175 63.3827 130.795 63.706 130.34 63.87C129.792 63.9336 129.241 63.9604 128.69 63.95H109C108.449 63.9604 107.898 63.9336 107.35 63.87C106.892 63.7118 106.51 63.3869 106.28 62.96C105.862 62.2685 105.663 61.4666 105.71 60.66V54.08H99.09V126.46H105.67C106.218 126.445 106.766 126.471 107.31 126.54C107.64 126.54 107.99 126.9 108.38 127.44C108.803 128.133 109.006 128.939 108.96 129.75V146.19C109.006 147.001 108.803 147.807 108.38 148.5C107.99 149.05 107.64 149.35 107.31 149.4C106.766 149.469 106.218 149.495 105.67 149.48H66.19C65.6387 149.496 65.0871 149.469 64.54 149.4C64.21 149.35 63.86 149.05 63.47 148.5C63.0501 147.806 62.8513 147 62.9 146.19V129.75C62.8513 128.94 63.0501 128.134 63.47 127.44C63.86 126.9 64.21 126.59 64.54 126.54C65.0871 126.471 65.6387 126.444 66.19 126.46H72.77V54.08H66.19V60.66C66.2395 61.4682 66.0368 62.2719 65.61 62.96C65.3803 63.3869 64.9983 63.7118 64.54 63.87C63.9969 63.9501 63.449 63.9936 62.9 64H43.16C42.6088 64.0104 42.0576 63.9836 41.51 63.92C41.0571 63.7514 40.6806 63.4246 40.45 63C40.0232 62.3119 39.8205 61.5082 39.87 60.7V34.34C39.8205 33.5317 40.0232 32.7281 40.45 32.04C40.6824 31.6191 41.0587 31.296 41.51 31.13C42.0576 31.0663 42.6088 31.0396 43.16 31.05H128.69Z" stroke="black"/>
</g>
<defs>
<clipPath id="clip0_95_346">
<rect width="171.85" height="171.46" fill="white"/>
</clipPath>
</defs>
</svg>
