<svg width="160" height="160" viewBox="0 0 160 160" fill="none" xmlns="http://www.w3.org/2000/svg">
<g clip-path="url(#clip0_77_190)">
<path d="M80.34 92.29C91.1151 92.29 99.85 83.5551 99.85 72.78C99.85 62.0049 91.1151 53.27 80.34 53.27C69.5649 53.27 60.83 62.0049 60.83 72.78C60.83 83.5551 69.5649 92.29 80.34 92.29Z" stroke="black" stroke-miterlimit="10"/>
<path d="M80.34 124.07C104.635 124.07 124.33 104.375 124.33 80.08C124.33 55.785 104.635 36.09 80.34 36.09C56.045 36.09 36.35 55.785 36.35 80.08C36.35 104.375 56.045 124.07 80.34 124.07Z" stroke="black" stroke-miterlimit="10"/>
<path d="M80.34 134.86C110.594 134.86 135.12 110.334 135.12 80.08C135.12 49.8258 110.594 25.3 80.34 25.3C50.0858 25.3 25.56 49.8258 25.56 80.08C25.56 110.334 50.0858 134.86 80.34 134.86Z" stroke="black" stroke-miterlimit="10"/>
<path d="M0.890015 72.81C2.55187 54.693 10.3536 37.6876 23.0025 24.6113C35.6514 11.535 52.3883 3.17272 70.44 0.909973L77.81 7.13997L70.44 13.52C55.6634 15.7318 42.0424 22.7966 31.7227 33.6015C21.403 44.4064 14.971 58.3373 13.44 73.2" stroke="black" stroke-miterlimit="10"/>
<path d="M86.93 0.5C105.046 2.16045 122.051 9.96194 135.126 22.6113C148.201 35.2607 156.561 51.9984 158.82 70.05L152.6 77.41L146.21 70.05C144.009 55.2658 136.95 41.6345 126.146 31.3051C115.342 20.9757 101.408 14.5356 86.54 13" stroke="black" stroke-miterlimit="10"/>
<path d="M159.46 87.31C157.8 105.426 149.998 122.431 137.349 135.506C124.699 148.581 107.962 156.941 89.91 159.2L82.54 153L89.91 146.61C104.686 144.4 118.307 137.337 128.626 126.534C138.946 115.731 145.379 101.801 146.91 86.94" stroke="black" stroke-miterlimit="10"/>
<path d="M72.42 159.35C54.3031 157.688 37.2976 149.886 24.2213 137.238C11.145 124.589 2.78273 107.852 0.519989 89.8L6.74999 82.43L13.13 89.8C15.3418 104.577 22.4066 118.198 33.2115 128.517C44.0164 138.837 57.9474 145.269 72.81 146.8" stroke="black" stroke-miterlimit="10"/>
<path d="M0.890015 72.81C2.55187 54.693 10.3536 37.6876 23.0025 24.6113C35.6514 11.535 52.3883 3.17272 70.44 0.909973L77.81 7.13997L70.44 13.52C55.6634 15.7318 42.0424 22.7966 31.7227 33.6015C21.403 44.4064 14.971 58.3373 13.44 73.2" stroke="black" stroke-miterlimit="10"/>
<path d="M49.86 111.63V97.93C49.8587 97.189 50.0037 96.455 50.2866 95.7701C50.5696 95.0852 50.985 94.463 51.509 93.939C52.033 93.415 52.6552 92.9996 53.3401 92.7166C54.025 92.4337 54.759 92.2887 55.5 92.29H105.17C105.911 92.2887 106.646 92.4336 107.331 92.7164C108.017 92.9993 108.64 93.4145 109.165 93.9384C109.689 94.4622 110.106 95.0844 110.39 95.7693C110.674 96.4543 110.82 97.1885 110.82 97.93V111.63" stroke="black" stroke-miterlimit="10"/>
<path d="M86.54 92.29V112.43" stroke="black" stroke-miterlimit="10"/>
<path d="M79.67 96.34V116.48" stroke="black" stroke-miterlimit="10"/>
<path d="M72.81 91.89V123.06" stroke="black" stroke-miterlimit="10"/>
<path d="M0.519989 21.84H7.93999" stroke="black" stroke-miterlimit="10"/>
<path d="M4.23001 18.13V25.55" stroke="black" stroke-miterlimit="10"/>
<path d="M148.49 148.79H155.92" stroke="black" stroke-miterlimit="10"/>
<path d="M152.2 145.08V152.5" stroke="black" stroke-miterlimit="10"/>
</g>
<defs>
<clipPath id="clip0_77_190">
<rect width="159.96" height="159.84" fill="white"/>
</clipPath>
</defs>
</svg>
