<svg width="261" height="194" viewBox="0 0 261 194" fill="none" xmlns="http://www.w3.org/2000/svg">
<g clip-path="url(#clip0_95_434)">
<path d="M241.99 10.7026H19.0098C14.4729 10.7026 10.7949 14.3874 10.7949 18.9329V175.07C10.7949 179.616 14.4729 183.301 19.0098 183.301H241.99C246.527 183.301 250.205 179.616 250.205 175.07V18.9329C250.205 14.3874 246.527 10.7026 241.99 10.7026Z" stroke="black" stroke-miterlimit="10"/>
<path d="M235.659 37.8979H25.3379C22.6104 37.8979 20.3993 40.1131 20.3993 42.8457V168.541C20.3993 171.273 22.6104 173.489 25.3379 173.489H235.659C238.386 173.489 240.598 171.273 240.598 168.541V42.8457C240.598 40.1131 238.386 37.8979 235.659 37.8979Z" stroke="black" stroke-miterlimit="10"/>
<path d="M28.2259 30.4103C31.3061 30.4103 33.8031 27.9086 33.8031 24.8227C33.8031 21.7367 31.3061 19.2351 28.2259 19.2351C25.1458 19.2351 22.6488 21.7367 22.6488 24.8227C22.6488 27.9086 25.1458 30.4103 28.2259 30.4103Z" stroke="black" stroke-miterlimit="10"/>
<path d="M44.0974 30.4103C47.1776 30.4103 49.6745 27.9086 49.6745 24.8227C49.6745 21.7367 47.1776 19.2351 44.0974 19.2351C41.0172 19.2351 38.5202 21.7367 38.5202 24.8227C38.5202 27.9086 41.0172 30.4103 44.0974 30.4103Z" stroke="black" stroke-miterlimit="10"/>
<path d="M59.9721 30.4103C63.0523 30.4103 65.5492 27.9086 65.5492 24.8227C65.5492 21.7367 63.0523 19.2351 59.9721 19.2351C56.8919 19.2351 54.3949 21.7367 54.3949 24.8227C54.3949 27.9086 56.8919 30.4103 59.9721 30.4103Z" stroke="black" stroke-miterlimit="10"/>
<path d="M94.0159 96.3651H33.8031V105.695H94.0159V96.3651Z" stroke="black" stroke-miterlimit="10"/>
<path d="M227.409 50.9281H135.658V96.3618H227.409V50.9281Z" stroke="black" stroke-miterlimit="10"/>
<path d="M160.018 114.063H132.337V141.796H160.018V114.063Z" stroke="black" stroke-miterlimit="10"/>
<path d="M194.228 114.063H166.548V141.796H194.228V114.063Z" stroke="black" stroke-miterlimit="10"/>
<path d="M228.442 114.063H200.762V141.796H228.442V114.063Z" stroke="black" stroke-miterlimit="10"/>
<path d="M135.613 147.898H156.741" stroke="black" stroke-miterlimit="10"/>
<path d="M141.595 152.961H150.76" stroke="black" stroke-miterlimit="10"/>
<path d="M175.806 152.961H184.97" stroke="black" stroke-miterlimit="10"/>
<path d="M210.019 152.961H219.184" stroke="black" stroke-miterlimit="10"/>
<path d="M169.824 147.898H190.955" stroke="black" stroke-miterlimit="10"/>
<path d="M204.035 147.898H225.166" stroke="black" stroke-miterlimit="10"/>
<path d="M135.658 50.9281L227.406 96.365" stroke="black" stroke-miterlimit="10"/>
<path d="M227.406 50.9281L135.658 96.365" stroke="black" stroke-miterlimit="10"/>
<path d="M132.337 114.063L160.018 141.796V114.063L132.337 141.796" stroke="black" stroke-miterlimit="10"/>
<path d="M166.548 114.063L194.228 141.796V114.063L166.548 141.796" stroke="black" stroke-miterlimit="10"/>
<path d="M200.762 114.063L228.442 141.796" stroke="black" stroke-miterlimit="10"/>
<path d="M228.442 114.063L200.762 141.796" stroke="black" stroke-miterlimit="10"/>
<path d="M41.7388 117.159H114.515" stroke="black" stroke-miterlimit="10"/>
<path d="M42.294 131.607H115.067" stroke="black" stroke-miterlimit="10"/>
<path d="M42.294 142.947H115.067" stroke="black" stroke-miterlimit="10"/>
<path d="M41.7388 124.319H82.1588" stroke="black" stroke-miterlimit="10"/>
<path d="M94.0158 124.319H114.515" stroke="black" stroke-miterlimit="10"/>
<path d="M52.7199 81.0458H41.1131L38.7609 88.1187H33.848L44.9735 56.4578H48.8595L59.9849 88.1187H55.0913L52.7199 81.0458ZM51.3978 76.7924L46.9694 62.9424H46.886L42.4544 76.7924H51.3978Z" stroke="black"/>
<path d="M75.1601 86.1319H75.0895C74.6786 86.9016 74.009 87.5007 73.1994 87.8229C72.3629 88.198 71.2023 88.3866 69.7177 88.3887C67.281 88.3587 65.407 87.6922 64.0956 86.389C63.4166 85.7746 62.8789 85.0196 62.5199 84.1764C62.1608 83.3332 61.989 82.4219 62.0162 81.5055C61.9889 80.6393 62.1343 79.7762 62.4439 78.9669C62.7536 78.1577 63.2213 77.4184 63.8196 76.7924C65.024 75.5193 66.7868 74.8688 69.108 74.8409H75.1729V72.4619C75.2028 70.4686 73.7128 69.5041 70.7028 69.5684C69.8334 69.5377 68.9652 69.6562 68.1357 69.9188C67.4762 70.196 66.9291 70.6875 66.5825 71.3141L63.1393 68.5975C64.8058 66.3492 67.2596 65.255 70.5007 65.315C73.2411 65.2872 75.4296 65.823 77.0662 66.9225C78.7027 68.022 79.5349 69.9617 79.5627 72.7416V88.138H75.1601V86.1319ZM75.1601 78.5703H69.9038C67.3495 78.6281 66.0873 79.5337 66.1172 81.2869C66.118 81.6675 66.2078 82.0425 66.3794 82.382C66.5511 82.7215 66.7998 83.0159 67.1056 83.2416C67.7474 83.8353 68.7924 84.1322 70.2407 84.1322C72.0762 84.1643 73.3727 83.9403 74.13 83.4602C74.8167 82.9801 75.1601 81.8935 75.1601 80.2003V78.5703Z" stroke="black"/>
</g>
<defs>
<clipPath id="clip0_95_434">
<rect width="261" height="194" fill="white"/>
</clipPath>
</defs>
</svg>
