<svg width="150" height="150" viewBox="0 0 150 150" fill="none" xmlns="http://www.w3.org/2000/svg">
<g clip-path="url(#clip0_90_145)">
<path d="M114.844 0H35.1562C15.74 0 0 15.74 0 35.1562V114.844C0 134.26 15.74 150 35.1562 150H114.844C134.26 150 150 134.26 150 114.844V35.1562C150 15.74 134.26 0 114.844 0Z" fill="#330000"/>
<path d="M72.4998 89.2576H49.2498L44.4996 103.945C44.3748 104.508 43.875 104.883 43.3125 104.82H31.5621C30.8748 104.82 30.6873 104.445 30.8748 103.695L51 45.7576C51.1875 45.133 51.375 44.4451 51.6246 43.6951C51.8748 42.3826 51.9996 41.008 51.9996 39.6328C51.9375 39.3205 52.1871 39.0076 52.5 38.9455H68.6871C69.1875 38.9455 69.4371 39.133 69.4998 39.4453L92.3121 103.821C92.4996 104.508 92.3121 104.82 91.6875 104.82H78.6246C78.1875 104.883 77.7498 104.571 77.625 104.133L72.4998 89.2576ZM52.875 76.5703H68.7498C68.3748 75.2578 67.875 73.6951 67.3125 72.0703C66.75 70.3828 66.1875 68.5705 65.625 66.6955C64.9998 64.7578 64.4373 62.8828 63.8121 60.9451C63.1875 59.008 62.625 57.1951 62.1246 55.3828C61.6248 53.6332 61.1871 52.0078 60.75 50.5078H60.6246C60.0621 53.1955 59.3748 55.8832 58.5 58.5703C57.5625 61.5703 56.625 64.6951 55.6248 67.8205C54.8176 70.7704 53.9004 73.689 52.875 76.5703ZM106.25 49.8826C104.187 49.9453 102.188 49.1326 100.688 47.6953C99.2502 46.1326 98.5002 44.0701 98.5623 41.9455C98.5002 39.8203 99.3123 37.8205 100.812 36.3826C102.312 34.9453 104.313 34.1953 106.375 34.1953C108.813 34.1953 110.688 34.9453 112.062 36.3826C113.447 37.8979 114.187 39.8935 114.125 41.9455C114.187 44.0701 113.437 46.1326 111.937 47.6953C110.5 49.1953 108.375 50.008 106.25 49.8826ZM99.2502 104.133V56.008C99.2502 55.3828 99.4998 55.1326 100.062 55.1326H112.437C113 55.1326 113.25 55.4455 113.25 56.008V104.133C113.25 104.82 113 105.133 112.437 105.133H100.188C99.5625 105.133 99.2502 104.758 99.2502 104.133Z" fill="#FF9A00"/>
</g>
<defs>
<clipPath id="clip0_90_145">
<rect width="150" height="150" fill="white"/>
</clipPath>
</defs>
</svg>
