<svg width="158" height="128" viewBox="0 0 158 128" fill="none" xmlns="http://www.w3.org/2000/svg">
<path d="M85.6153 64.0053C94.3906 64.0053 101.501 70.7196 101.501 79.0089C101.501 87.2982 94.3906 94.0035 85.6153 94.0035H68.5146C62.8624 94.0035 60.0363 94.0035 58.2722 92.2484C56.5081 90.4933 56.5171 87.6582 56.5171 82.006V64.0053M85.6333 64.0053C94.4087 64.0053 101.519 57.291 101.519 49.0017C101.519 40.7124 94.4087 34.0071 85.6333 34.0071H68.5326C62.8804 34.0071 60.0543 34.0071 58.2902 35.8072C56.5261 37.6072 56.5351 40.3973 56.5351 46.0496V64.0503M85.6513 64.0503H56.4991" stroke="#9647FF" stroke-width="6.25" stroke-linecap="round" stroke-linejoin="round"/>
<path d="M154 64.0054C152.03 64.0054 150.08 63.6173 148.26 62.8632C146.44 62.109 144.787 61.0037 143.394 59.6104C142.002 58.2171 140.897 56.563 140.144 54.7428C139.391 52.9225 139.004 50.9717 139.005 49.0018V34.0072C139.005 9.1752 133.83 4 108.998 4H49.0018C24.1698 4 18.9946 9.1752 18.9946 34.0072V49.0018C18.9958 50.9717 18.6088 52.9225 17.8558 54.7428C17.1028 56.563 15.9985 58.2171 14.606 59.6104C13.2135 61.0037 11.5601 62.109 9.74026 62.8632C7.92044 63.6173 5.96988 64.0054 4 64.0054M4 64.0054C5.96988 64.0054 7.92044 64.3936 9.74026 65.1477C11.5601 65.9018 13.2135 67.0071 14.606 68.4004C15.9985 69.7937 17.1028 71.4478 17.8558 73.2681C18.6088 75.0883 18.9958 77.0391 18.9946 79.009V94.0036C18.9946 118.836 24.1698 124.011 49.0018 124.011H108.998C133.83 124.011 139.005 118.836 139.005 94.0036V79.009C139.004 77.0391 139.391 75.0883 140.144 73.2681C140.897 71.4478 142.002 69.7937 143.394 68.4004C144.787 67.0071 146.44 65.9018 148.26 65.1477C150.08 64.3936 152.03 64.0054 154 64.0054" stroke="#9647FF" stroke-width="6.25" stroke-linecap="round" stroke-linejoin="round"/>
</svg>
