<svg width="176" height="176" viewBox="0 0 176 176" fill="none" xmlns="http://www.w3.org/2000/svg">
<g clip-path="url(#clip0_95_276)">
<path d="M141.078 88.2282C141.057 97.3945 138.649 106.397 134.09 114.35L163.927 131.575L163.699 131.963L133.862 114.738C129.238 122.648 122.653 129.233 114.742 133.858L131.968 163.695L131.58 163.923L114.354 134.086C106.401 138.643 97.3989 141.052 88.2328 141.074V175.544H87.7763V141.078C78.6116 141.056 69.6106 138.648 61.6593 134.09L44.429 163.927L44.0365 163.695L61.2622 133.858C53.3517 129.233 46.7666 122.648 42.1423 114.738L12.3236 131.968L12.0954 131.58L41.9324 114.354C37.3652 106.403 34.9489 97.3981 34.9216 88.2282H0.456421V87.7718H34.917C34.9388 78.607 37.3471 69.6059 41.905 61.6548L12.0726 44.429L12.3054 44.0365L42.1423 61.2622C46.7666 53.3517 53.3517 46.7666 61.2622 42.1423L44.0319 12.3236L44.4245 12.0954L61.6502 41.9324C69.6006 37.3662 78.6034 34.9499 87.7718 34.9216V0.456421H88.2282V34.917C97.3944 34.9392 106.397 37.3476 114.35 41.905L131.575 12.068L131.963 12.2963L114.742 42.1377C122.653 46.762 129.238 53.3471 133.862 61.2577L163.699 44.0319L163.927 44.4245L134.09 61.6502C138.648 69.6013 141.057 78.6024 141.078 87.7672H175.544V88.2236L141.078 88.2282Z" stroke="black" stroke-linecap="round" stroke-linejoin="round"/>
<path d="M141.083 88C141.083 88.0776 141.083 88.1506 141.083 88.2282C141.062 97.3945 138.653 106.397 134.095 114.35C134.022 114.482 133.944 114.615 133.867 114.742C129.243 122.653 122.657 129.238 114.747 133.862L114.354 134.09C106.401 138.648 97.3989 141.056 88.2328 141.078H87.7763C78.6116 141.056 69.6106 138.648 61.6593 134.09L61.2622 133.862C53.3517 129.238 46.7666 122.653 42.1423 114.742C42.0647 114.615 41.9871 114.482 41.9141 114.35C37.3541 106.398 34.9442 97.3949 34.9216 88.2282C34.9216 88.1506 34.9216 88.0776 34.9216 88C34.9216 87.9224 34.9216 87.8494 34.9216 87.7718C34.9434 78.607 37.3517 69.6059 41.9095 61.6548C41.9826 61.5224 42.0602 61.39 42.1378 61.2577C46.762 53.3471 53.3471 46.762 61.2577 42.1378L61.6548 41.9095C69.606 37.3521 78.607 34.9438 87.7718 34.9216H88.2282C97.3944 34.9438 106.397 37.3521 114.35 41.9095L114.742 42.1378C122.653 46.762 129.238 53.3471 133.862 61.2577C133.94 61.39 134.017 61.5224 134.09 61.6548C138.648 69.6059 141.057 78.607 141.078 87.7718C141.083 87.8494 141.083 87.9224 141.083 88Z" stroke="black" stroke-width="2" stroke-linecap="round" stroke-linejoin="round"/>
<path d="M175.544 88C175.544 88.1278 175.544 88.2465 175.544 88.3743C175.506 103.492 171.531 118.339 164.01 131.452C163.891 131.671 163.763 131.886 163.635 132.1C156.009 145.145 145.149 156.004 132.105 163.631C131.89 163.758 131.676 163.886 131.457 164.005C118.34 171.522 103.492 175.494 88.3743 175.53C88.2465 175.53 88.1278 175.53 88 175.53C87.8722 175.53 87.7535 175.53 87.6257 175.53C72.5107 175.494 57.6656 171.522 44.5523 164.005C44.3332 163.886 44.0958 163.758 43.895 163.631C30.8505 156.004 19.9913 145.145 12.3647 132.1C12.2369 131.886 12.1091 131.671 11.9904 131.452C4.46874 118.339 0.493499 103.492 0.456421 88.3743C0.456421 88.2465 0.456421 88.1278 0.456421 88C0.456421 87.8722 0.456421 87.7535 0.456421 87.6257C0.493871 72.5097 4.46912 57.6643 11.9904 44.5523C12.1091 44.3332 12.2369 44.0958 12.3647 43.895C19.9913 30.8505 30.8505 19.9913 43.895 12.3647C44.1141 12.2369 44.3514 12.1091 44.5523 11.9904C57.6674 4.46876 72.5159 0.493547 87.6348 0.456421C87.7626 0.456421 87.8813 0.456421 88.0091 0.456421C88.1369 0.456421 88.2556 0.456421 88.3834 0.456421C103.497 0.497393 118.341 4.47243 131.452 11.9904C131.671 12.1091 131.886 12.2369 132.1 12.3647C145.145 19.9913 156.004 30.8505 163.631 43.895C163.758 44.1141 163.886 44.3514 164.005 44.5523C171.526 57.6674 175.5 72.5161 175.534 87.6348C175.544 87.7535 175.544 87.8722 175.544 88Z" stroke="black" stroke-width="2" stroke-linecap="round" stroke-linejoin="round"/>
<path d="M88 63.8639L62.3531 112.136H113.647L88 63.8639Z" stroke="black" stroke-width="2" stroke-linecap="round" stroke-linejoin="round"/>
<path d="M62.3531 116.833C64.947 116.833 67.0498 114.73 67.0498 112.136C67.0498 109.542 64.947 107.439 62.3531 107.439C59.7592 107.439 57.6564 109.542 57.6564 112.136C57.6564 114.73 59.7592 116.833 62.3531 116.833Z" fill="white" stroke="black" stroke-width="2" stroke-linecap="round" stroke-linejoin="round"/>
<path d="M88 68.5606C90.5939 68.5606 92.6967 66.4578 92.6967 63.8639C92.6967 61.27 90.5939 59.1672 88 59.1672C85.4061 59.1672 83.3033 61.27 83.3033 63.8639C83.3033 66.4578 85.4061 68.5606 88 68.5606Z" fill="white" stroke="black" stroke-width="2" stroke-linecap="round" stroke-linejoin="round"/>
<path d="M113.647 116.833C116.241 116.833 118.344 114.73 118.344 112.136C118.344 109.542 116.241 107.439 113.647 107.439C111.053 107.439 108.95 109.542 108.95 112.136C108.95 114.73 111.053 116.833 113.647 116.833Z" fill="white" stroke="black" stroke-width="2" stroke-linecap="round" stroke-linejoin="round"/>
</g>
<defs>
<clipPath id="clip0_95_276">
<rect width="176" height="176" fill="white"/>
</clipPath>
</defs>
</svg>
