<svg width="187" height="167" viewBox="0 0 187 167" fill="none" xmlns="http://www.w3.org/2000/svg">
<g clip-path="url(#clip0_76_30)">
<path d="M5.72105 151.84L5.7209 151.84C3.56292 151.879 2.30129 151.475 1.56345 150.688C0.817537 149.893 0.485372 148.581 0.519918 146.488C0.700023 135.722 0.669992 124.997 0.49993 114.193C0.47055 112.234 0.822018 110.977 1.55701 110.2C2.28703 109.428 3.50489 109.015 5.49838 109.02C28.8326 109.113 52.1668 109.113 75.501 109.02C77.4655 109.02 78.7558 109.364 79.559 110.093C80.3492 110.81 80.7794 112.004 80.76 113.995V113.995C80.66 124.918 80.66 135.848 80.76 146.785L80.76 146.786C80.7845 148.744 80.4213 149.978 79.6782 150.73C78.9368 151.479 77.7021 151.864 75.6885 151.83L75.6874 151.83C67.4124 151.708 59.0993 151.73 50.7885 151.753C47.5245 151.761 44.2608 151.77 41 151.77C37.6434 151.77 34.2853 151.759 30.9264 151.747C22.5252 151.719 14.1192 151.69 5.72105 151.84ZM74.39 146.38H74.89V145.88V115.46V114.96H74.39H6.99999H6.49999V115.46V145.88V146.38H6.99999H74.39Z" stroke="black"/>
<path d="M111.198 6.44999L111.198 6.44999C134.532 6.55666 157.867 6.55667 181.201 6.45C183.346 6.45015 184.621 6.8777 185.374 7.68168C186.132 8.4919 186.474 9.80504 186.44 11.8717L186.44 11.8723C186.273 22.6373 186.273 33.4057 186.44 44.1775C186.47 46.1433 186.135 47.3822 185.416 48.1361C184.702 48.884 183.493 49.2743 181.458 49.2401L181.458 49.2401C173.02 49.103 164.553 49.1272 156.081 49.1513C152.801 49.1606 149.52 49.17 146.24 49.17C142.964 49.17 139.686 49.158 136.406 49.146C128.092 49.1155 119.77 49.0851 111.461 49.2501C109.297 49.2893 108.016 48.8738 107.261 48.0784C106.5 47.2758 106.155 45.9642 106.18 43.9065C106.33 33.1421 106.3 22.3788 106.18 11.6172C106.18 9.69352 106.517 8.4338 107.244 7.6467C107.961 6.86935 109.167 6.44025 111.198 6.44999ZM111.98 43.11V43.61H112.48H180.07H180.57V43.11V13V12.5H180.07H112.48H111.98V13V43.11Z" stroke="black"/>
<path d="M125.451 111.988L137.644 123.205C137.645 123.229 137.648 123.254 137.653 123.279C137.684 123.434 137.776 123.531 137.839 123.579C137.9 123.626 137.958 123.649 137.989 123.66C138.091 123.694 138.187 123.69 138.214 123.688L138.215 123.688C138.323 123.683 138.484 123.651 138.645 123.574L139.371 123.436L139.123 123.207C141.173 121.43 142.818 120.115 144.251 119.246C145.74 118.342 146.957 117.948 148.123 117.991C149.289 118.034 150.481 118.518 151.915 119.53C153.352 120.544 154.991 122.058 157.047 124.104L157.048 124.105C164.228 131.226 171.438 138.318 179.029 145.763C178.448 146.377 177.898 146.956 177.343 147.541C176.653 148.268 175.955 149.003 175.18 149.822C173.044 147.683 170.915 145.569 168.797 143.467C163.199 137.909 157.683 132.433 152.343 126.786L152.342 126.785C150.794 125.157 149.352 124.062 147.824 123.962C146.255 123.86 144.802 124.809 143.256 126.7C140.812 129.59 138.137 132.275 135.256 134.729L135.256 134.729L135.249 134.735C133.926 135.905 133.137 137.045 133.125 138.295C133.113 139.542 133.876 140.714 135.165 141.942L135.165 141.942C140.688 147.199 146.124 152.577 151.789 158.182C153.252 159.63 154.731 161.092 156.23 162.572L152.268 166.306C150.072 164.142 147.891 162.011 145.728 159.897C140.309 154.6 134.998 149.409 129.819 144.081C128.188 142.398 127.458 140.432 127.507 138.456C127.557 136.474 128.391 134.446 129.956 132.66C130.716 131.793 131.514 130.965 132.332 130.117C132.656 129.781 132.983 129.441 133.312 129.094L133.657 128.732L133.295 128.388L120.875 116.578L120.589 116.306L120.258 116.52C105.536 126.061 98.5272 129.215 91.3508 129.497L90.4155 125.163C107.219 119.956 119.633 111.66 127.581 100.182C135.524 88.7115 138.97 74.1179 137.949 56.3783L142.986 56.0677C145.762 77.3607 139.427 95.4221 125.415 111.289L125.091 111.656L125.451 111.988Z" stroke="black"/>
<path d="M94.7741 61.2545L94.5941 61.6542L94.9667 61.885C101.97 66.2239 104.653 71.8764 105.598 78.1668C106.073 81.3266 106.108 84.6486 106.022 88.0565C105.991 89.2914 105.944 90.5422 105.897 91.7998C105.82 93.8274 105.743 95.8731 105.731 97.9H100.5V97.8819V97.8514V97.821V97.7905V97.76V97.7295V97.699V97.6685V97.6381V97.6076V97.5771V97.5466V97.5161V97.4856V97.4551V97.4246V97.3941V97.3637V97.3332V97.3027V97.2722V97.2417V97.2112V97.1807V97.1502V97.1197V97.0892V97.0587V97.0282V96.9977V96.9672V96.9367V96.9062V96.8757V96.8452V96.8147V96.7842V96.7537V96.7232V96.6927V96.6622V96.6317V96.6012V96.5707V96.5401V96.5096V96.4791V96.4486V96.4181V96.3876V96.3571V96.3266V96.2961V96.2655V96.235V96.2045V96.174V96.1435V96.113V96.0824V96.0519V96.0214V95.9909V95.9604V95.9298V95.8993V95.8688V95.8383V95.8078V95.7772V95.7467V95.7162V95.6857V95.6551V95.6246V95.5941V95.5635V95.533V95.5025V95.472V95.4414V95.4109V95.3804V95.3498V95.3193V95.2888V95.2582V95.2277V95.1972V95.1666V95.1361V95.1055V95.075V95.0445V95.0139V94.9834V94.9529V94.9223V94.8918V94.8612V94.8307V94.8001V94.7696V94.7391V94.7085V94.678V94.6474V94.6169V94.5863V94.5558V94.5252V94.4947V94.4641V94.4336V94.403V94.3725V94.3419V94.3114V94.2808V94.2503V94.2197V94.1892V94.1586V94.128V94.0975V94.0669V94.0364V94.0058V93.9753V93.9447V93.9141V93.8836V93.853V93.8225V93.7919V93.7613V93.7308V93.7002V93.6696V93.6391V93.6085V93.5779V93.5474V93.5168V93.4862V93.4557V93.4251V93.3945V93.364V93.3334V93.3028V93.2723V93.2417V93.2111V93.1805V93.15V93.1194V93.0888V93.0582V93.0277V92.9971V92.9665V92.9359V92.9054V92.8748V92.8442V92.8136V92.783V92.7525V92.7219V92.6913V92.6607V92.6301V92.5996V92.569V92.5384V92.5078V92.4772V92.4466V92.416V92.3855V92.3549V92.3243V92.2937V92.2631V92.2325V92.2019V92.1713V92.1407V92.1102V92.0796V92.049V92.0184V91.9878V91.9572V91.9266V91.896V91.8654V91.8348V91.8042V91.7736V91.743V91.7124V91.6818V91.6512V91.6206V91.59V91.5594V91.5288V91.4982V91.4676V91.437V91.4064V91.3758V91.3452V91.3146V91.284V91.2534V91.2228V91.1922V91.1616V91.131V91.1004V91.0698V91.0392V91.0086V90.9779V90.9473V90.9167V90.8861V90.8555V90.8249V90.7943V90.7637V90.7331V90.7024V90.6718V90.6412V90.6106V90.58V90.5494V90.5188V90.4881V90.4575V90.4269V90.3963V90.3657V90.3351V90.3044V90.2738V90.2432V90.2126V90.1819V90.1513V90.1207V90.0901V90.0595V90.0288V89.9982V89.9676V89.937V89.9063V89.8757V89.8451V89.8145V89.7838V89.7532V89.7226V89.692V89.6613V89.6307V89.6001V89.5694V89.5388V89.5082V89.4776V89.4469V89.4163V89.3857V89.355V89.3244V89.2938V89.2631V89.2325V89.2019V89.1712V89.1406V89.1099V89.0793V89.0487V89.018V88.9874V88.9568V88.9261V88.8955V88.8648V88.8342V88.8036V88.7729V88.7423V88.7116V88.681V88.6504V88.6197V88.5891V88.5584V88.5278V88.4971V88.4665V88.4359V88.4052V88.3746V88.3439V88.3133V88.2826V88.252V88.2213V88.1907V88.16V88.1294V88.0987V88.0681V88.0374V88.0068V87.9761V87.9455V87.9148V87.8842V87.8535V87.8229V87.7922V87.7616V87.7309V87.7003V87.6696V87.6389V87.6083V87.5776V87.547V87.5163V87.4857V87.455V87.4244V87.3937V87.363V87.3324V87.3017V87.2711V87.2404V87.2097V87.1791V87.1484V87.1178V87.0871V87.0564V87.0258V86.9951V86.9644V86.9338V86.9031V86.8725V86.8418V86.8111V86.7805V86.7498V86.7191V86.6885V86.6578V86.6271V86.5965V86.5658V86.5351V86.5045V86.4738V86.4431V86.4125V86.3818V86.3511V86.3204V86.2898V86.2591V86.2284V86.1978V86.1671V86.1364V86.1057V86.0751V86.0444V86.0137V85.9831V85.9524V85.9217V85.891V85.8604V85.8297V85.799V85.7683V85.7377V85.707V85.6763V85.6456V85.6149V85.5843V85.5536V85.5229V85.4922V85.4616V85.4309V85.4002V85.3695V85.3388V85.3082V85.2775V85.2468V85.2161V85.1854V85.1547V85.1241V85.0934V85.0627V85.032V85.0013V84.9706V84.94V84.9093V84.8786V84.8479V84.8172V84.7865V84.7559V84.7252V84.6945V84.6638V84.6331V84.6024V84.5717V84.541V84.5104V84.4797V84.449V84.4183V84.3876V84.3569V84.3262V84.2955V84.2648V84.2341V84.2035V84.1728V84.1421V84.1114V84.0807V84.05V84.0193V83.9886V83.9579V83.9272V83.8965V83.8658V83.8351V83.8045V83.7738V83.7431V83.7124V83.6817V83.651V83.6203V83.5896V83.5589V83.5282V83.4975V83.4668V83.4361V83.4054V83.3747V83.344V83.3133V83.2826V83.2519V83.2212V83.1905V83.1598V83.1291V83.0984V83.0677V83.037V83.0063V82.9756V82.9449V82.9142V82.8835V82.8528V82.8221V82.7914V82.7607V82.73C100.5 76.8452 98.6877 71.7516 94.0218 67.8273L94.0212 67.8268C92.9413 66.9218 91.8763 66.2825 90.687 66.0878C89.4871 65.8913 88.2354 66.1589 86.8055 66.9184L87.04 67.36L86.8054 66.9184C80.7224 70.1497 74.4955 69.7479 68.0731 67.0588L68.0547 67.0511L68.0357 67.0448C66.98 66.6989 65.8629 66.5809 64.7583 66.6987C63.6536 66.8165 62.5865 67.1675 61.6275 67.7284L61.6108 67.7382L61.595 67.7492C59.4644 69.2275 57.7387 71.2168 56.5761 73.5348C55.4148 75.8502 54.8523 78.4198 54.94 81.0085V98H49.4947C49.4709 96.1644 49.3987 94.3062 49.3269 92.4605C49.271 91.0214 49.2153 89.5899 49.1831 88.1828C49.1054 84.7817 49.1615 81.4603 49.6602 78.2915C50.6531 71.9816 53.3996 66.2667 60.4091 61.7914L60.7807 61.5541L60.5917 61.1557C57.5722 54.7893 56.4458 49.2083 57.1288 44.3699C57.8099 39.5453 60.298 35.4012 64.6241 31.909L64.6243 31.9088C68.2393 28.9861 72.7313 27.3626 77.3796 27.2989C82.0278 27.2351 86.5627 28.7348 90.2564 31.5573L90.2587 31.559C94.6986 34.911 97.2935 39.0312 98.0597 43.9347C98.8284 48.8537 97.7654 54.6172 94.7741 61.2545ZM77.434 32.65L77.4298 32.6501C73.3633 32.7333 69.4895 34.3983 66.6309 37.2917C63.7723 40.185 62.1541 44.0786 62.12 48.1458L62.12 48.146C62.1034 50.202 62.5031 52.2401 63.2949 54.1377C64.0867 56.0352 65.2543 57.7529 66.7273 59.1874C68.2004 60.6218 69.9485 61.7434 71.8665 62.4845C73.7805 63.2241 75.8242 63.5695 77.875 63.5001C79.8869 63.5279 81.8841 63.1516 83.7481 62.3936C85.6159 61.634 87.3119 60.5066 88.7352 59.0784C90.1586 57.6502 91.2802 55.9504 92.0335 54.0801C92.786 52.2114 93.1555 50.2105 93.12 48.1963C93.1263 46.1425 92.7243 44.108 91.9375 42.2109C91.1501 40.3121 89.9928 38.589 88.533 37.1417C87.0732 35.6945 85.3402 34.552 83.4347 33.7809C81.5293 33.0098 79.4894 32.6253 77.434 32.65Z" stroke="black"/>
<path d="M23.3606 30.7304C41.6764 2.23574 76.6306 -5.18351 100.123 4.56999C99.8813 5.17152 99.6501 5.74607 99.426 6.30293C99.0668 7.19561 98.7258 8.04287 98.3899 8.88308C84.6444 5.26638 71.8489 4.87079 60.3636 8.28827C48.7524 11.7432 38.5217 19.0833 30.0246 30.8472C21.7493 42.2988 17.9333 54.0673 18.1088 65.9636C18.2823 77.7278 22.3585 89.5762 29.8164 101.329L26.3956 104.054C19.4871 96.7338 14.6495 84.9002 13.5407 71.6932C12.4161 58.2968 15.1333 43.5399 23.3606 30.7304Z" stroke="black"/>
<path d="M13.37 126.5V122.06H67.9042L68.1246 126.5H13.37Z" stroke="black"/>
<path d="M13.37 139.24V134.24H42.87V139.24H13.37Z" stroke="black"/>
<path d="M67.76 139.37H50.7V134.25H67.76V139.37Z" stroke="black"/>
<path d="M173.5 24.03H119.1V19.5H173.5V24.03Z" stroke="black"/>
<path d="M148.71 31.74V36.55H119.12V31.74H148.71Z" stroke="black"/>
<path d="M155.471 32.3491L156.578 31.57H173.5V36.9509C172.203 36.9557 170.916 36.978 169.637 37.0001C165.785 37.0668 162.011 37.1321 158.276 36.7132C158.136 36.697 157.935 36.5898 157.67 36.2832C157.413 35.9853 157.153 35.5666 156.882 35.0678C156.684 34.7024 156.49 34.3133 156.291 33.9152C156.219 33.7709 156.147 33.6253 156.073 33.4793C155.879 33.0936 155.679 32.7065 155.471 32.3491Z" stroke="black"/>
</g>
<defs>
<clipPath id="clip0_76_30">
<rect width="187" height="166.99" fill="white"/>
</clipPath>
</defs>
</svg>
