<svg width="170" height="175" viewBox="0 0 170 175" fill="none" xmlns="http://www.w3.org/2000/svg">
<path d="M120.7 170.892V146.972C121.018 142.998 120.485 139.002 119.134 135.251C117.784 131.5 115.648 128.081 112.87 125.222C139.03 122.302 166.53 112.392 166.53 66.892C166.532 55.2564 162.056 44.0662 154.03 35.642C157.83 25.4619 157.561 14.2092 153.28 4.22203C153.28 4.22203 143.45 1.31203 120.7 16.562C101.6 11.3919 81.4696 11.3919 62.37 16.562C39.62 1.31203 29.78 4.22203 29.78 4.22203C25.4989 14.2092 25.2303 25.4619 29.03 35.642C20.9501 44.1327 16.4705 55.4214 16.53 67.142C16.53 112.302 44.03 122.222 70.2 125.472C67.4546 128.302 65.3379 131.681 63.9886 135.386C62.6392 139.091 62.0877 143.039 62.37 146.972V170.892" stroke="#0C0C0C" stroke-width="6.25" stroke-linecap="round" stroke-linejoin="round"/>
<path d="M62.34 154.222C37.34 162.332 16.5 154.222 4 129.222" stroke="#0C0C0C" stroke-width="6.25" stroke-linecap="round" stroke-linejoin="round"/>
</svg>
