<svg width="158" height="158" viewBox="0 0 158 158" fill="none" xmlns="http://www.w3.org/2000/svg">
<path d="M118.66 70.7349C106.052 70.7349 97.9 78.8049 97.9 89.4849C97.9 101.08 104.71 106.63 114.962 110.987L118.502 112.487C124.99 115.345 128.845 116.987 128.845 121.885C128.845 126.002 125.095 128.957 119.185 128.957C112.21 128.957 108.242 125.26 105.22 120.295L93.625 126.932C97.7275 135.182 106.307 141.49 119.507 141.49C132.962 141.49 143.05 134.515 143.05 121.735C143.05 109.787 136.232 104.485 124.12 99.3699L120.595 97.8699C114.467 95.1774 111.857 93.415 111.857 89.215C111.857 85.7575 114.46 83.0724 118.667 83.0724C122.875 83.0724 125.417 84.8425 127.817 89.215L138.932 82.0675C134.23 73.8175 127.742 70.72 118.682 70.72L118.66 70.7349ZM72.325 70.855V119.17C72.325 126.235 69.325 128.065 64.6675 128.065C59.8 128.065 57.6925 124.712 55.51 120.752L43.915 127.75C47.26 134.92 53.905 140.8 65.26 140.8C77.86 140.8 86.5375 134.05 86.5375 119.35V70.855H72.325Z" fill="#0C0C0C"/>
<path d="M123.438 4H34.5625C17.6833 4 4 17.6833 4 34.5625V123.438C4 140.317 17.6833 154 34.5625 154H123.438C140.317 154 154 140.317 154 123.438V34.5625C154 17.6833 140.317 4 123.438 4Z" stroke="#FFC600" stroke-width="6.25" stroke-miterlimit="10"/>
</svg>
