<svg width="154" height="154" viewBox="0 0 154 154" fill="none" xmlns="http://www.w3.org/2000/svg">
<g id="maharshi_logo-01 2">
<g id="Group">
<g id="Group_2">
<path id="Vector" d="M41.8767 90.561C41.6009 85.3681 41.2696 86.4475 41.3236 81.8063H41.1587C39.8874 86.1717 38.3404 90.8113 36.462 95.9502L30.4312 112.524C30.1044 113.42 29.253 114.017 28.298 114.017H26.2413L20.2195 96.283C18.4521 91.0347 16.959 86.2271 15.9096 81.8078H15.7987C15.6878 86.449 15.4119 92.6911 15.0807 98.2722L14.0853 114.239H11.3839C10.366 114.239 9.56104 113.375 9.63149 112.361L11.9821 78.6433C12.0465 77.7183 12.8155 77.0018 13.742 77.0018H18.2287L24.5818 95.0132C26.1289 99.5989 27.4001 103.687 28.3385 107.555H28.5034C29.4433 103.798 30.7685 99.7098 32.4265 95.0132L39.057 77.0018H43.908C44.6275 77.0018 45.2242 77.5624 45.2691 78.2805L45.9272 88.885C45.9917 89.9268 45.1642 90.8068 44.1208 90.8068H41.8392L41.8767 90.561Z" fill="#0C0C0C"/>
<path id="Vector_2" d="M47.1761 115.156L46.9303 113.011H46.8253C45.8764 114.347 44.0475 115.542 41.622 115.542C38.1771 115.542 36.4187 113.116 36.4187 110.656C36.4187 106.543 40.075 104.294 46.6484 104.329V103.976C46.6484 102.57 46.2617 100.04 42.7808 100.04C41.8724 100.04 40.9399 100.202 40.084 100.488C39.0781 100.822 37.9942 100.269 37.6494 99.2676C39.0556 98.3532 41.0943 97.7565 43.238 97.7565C48.4413 97.7565 49.7065 101.306 49.7065 104.717V111.079C49.7065 111.658 49.717 112.23 49.7425 112.782C49.8025 114.077 48.7621 115.156 47.4654 115.156H47.1761ZM46.7189 106.474C43.3445 106.403 39.5128 107.001 39.5128 110.305C39.5128 112.31 40.8485 113.259 42.43 113.259C44.6442 113.259 46.0503 111.852 46.542 110.412C46.6469 110.095 46.7174 109.743 46.7174 109.427V106.474H46.7189Z" fill="#0C0C0C"/>
<path id="Vector_3" d="M143.879 94.0928V95.3745C143.879 95.5109 143.772 95.6158 143.637 95.6158H119.655V100.812H119.723C120.213 99.9362 120.989 99.1597 121.94 98.632C122.853 98.1043 123.938 97.7565 125.1 97.7565C127.384 97.7565 131.042 99.1597 131.042 105.035V115.156H129.865C128.81 115.156 127.949 114.296 127.949 113.241V105.382C127.949 102.645 126.932 100.321 124.013 100.321C122.007 100.321 120.423 101.725 119.865 103.414C119.684 103.837 119.654 104.297 119.654 104.892V112.939C119.654 114.161 118.658 115.156 117.436 115.156H116.561V95.6158H57.791V100.812H57.8585C58.3487 99.9362 59.1252 99.1597 60.0756 98.632C60.9886 98.1043 62.0814 97.7565 63.2357 97.7565C65.5203 97.7565 69.178 99.1597 69.178 105.035V121.497L67.7299 121.271C66.7795 121.12 66.0854 120.306 66.0854 119.348V105.381C66.0854 102.644 65.0676 100.32 62.1488 100.32C60.1431 100.32 58.5586 101.723 58.0009 103.413C57.827 103.835 57.7895 104.296 57.7895 104.891V113.269C57.7895 114.309 56.944 115.155 55.9037 115.155H54.6969V95.6158H37.9342V94.3416C37.9342 94.2052 38.0391 94.0928 38.1756 94.0928H54.6999V82.4494L56.4419 83.7236C57.2933 84.3427 57.7925 85.3231 57.7925 86.371V94.0943H116.564V85.8208C116.564 84.9229 117.024 84.0864 117.786 83.6112L119.657 82.4494V94.0943H143.879V94.0928Z" fill="#0C0C0C"/>
<path id="Vector_4" d="M83.6247 115.156L83.3788 113.013H83.2739C82.325 114.348 80.4961 115.543 78.0706 115.543C74.6257 115.543 72.8688 113.118 72.8688 110.658C72.8688 106.544 76.525 104.296 83.0985 104.33V103.978C83.0985 102.572 82.7117 100.041 79.2324 100.041C78.3239 100.041 77.39 100.203 76.5355 100.489C75.5296 100.824 74.4458 100.27 74.0995 99.2676C75.5057 98.3532 77.5444 97.7565 79.6896 97.7565C84.8929 97.7565 86.1581 101.306 86.1581 104.717V111.079C86.1581 111.56 86.1656 112.038 86.1836 112.503C86.2376 113.951 85.0878 115.156 83.6382 115.156H83.6247ZM83.169 106.474C79.7945 106.403 75.9629 107.001 75.9629 110.305C75.9629 112.31 77.2986 113.259 78.8801 113.259C81.0957 113.259 82.5004 111.852 82.9936 110.412C83.0985 110.095 83.169 109.743 83.169 109.427V106.474Z" fill="#0C0C0C"/>
<path id="Vector_5" d="M91.1471 103.45C91.1471 101.446 91.1112 99.7233 91.0062 98.1418H91.9971C92.9535 98.1418 93.736 98.9003 93.766 99.8567L93.817 101.482H93.9579C94.7314 99.1971 96.5948 97.755 98.668 97.755C99.0188 97.755 99.2647 97.7895 99.5465 97.8599V99.6319C99.5465 100.205 99.0773 100.674 98.5046 100.672H98.4926C96.313 100.672 94.7659 102.324 94.3447 104.645C94.2742 105.066 94.2053 105.559 94.2053 106.085V112.885C94.2053 114.138 93.1889 115.155 91.9357 115.155H91.1471V103.45Z" fill="#0C0C0C"/>
<path id="Vector_6" d="M102.219 111.993C103.134 112.591 104.75 113.224 106.297 113.224C108.547 113.224 109.601 112.1 109.601 110.694C109.601 109.217 108.722 108.409 106.438 107.565C103.38 106.475 101.938 104.787 101.938 102.748C101.938 100.007 104.152 97.7565 107.808 97.7565C108.553 97.7565 109.258 97.848 109.895 97.9979C111.074 98.2752 111.746 99.5254 111.352 100.671L111.218 101.061C110.55 100.639 109.32 100.076 107.737 100.076C105.91 100.076 104.891 101.129 104.891 102.396C104.891 103.802 105.91 104.435 108.124 105.279C111.077 106.403 112.588 107.88 112.588 110.412C112.588 113.399 110.268 115.509 106.226 115.509C105.475 115.509 104.747 115.434 104.066 115.3C102.594 115.008 101.738 113.456 102.206 112.032L102.219 111.993Z" fill="#0C0C0C"/>
<path id="Vector_7" d="M139.025 90.0317C139.059 91.0856 138.286 91.9296 137.056 91.9296C135.967 91.9296 135.193 91.0856 135.193 90.0317C135.193 88.9419 136.001 88.0979 137.127 88.0979C138.287 88.0979 139.025 88.9419 139.025 90.0317ZM136.068 114.504V98.1418H139.161V115.644V116.619C137.454 116.621 136.068 116.213 136.068 114.504Z" fill="#0C0C0C"/>
</g>
<g id="Group_3">
<path id="Vector_8" d="M77.4411 117.302C77.1622 117.302 76.9134 117.46 76.792 117.717L75.3139 120.952L73.8283 117.724C73.7158 117.468 73.458 117.302 73.1717 117.302H72.5765L74.8461 121.962H75.2299C75.5612 121.962 75.8715 121.773 76.0139 121.472L78.0497 117.302H77.4411Z" fill="#0C0C0C"/>
<path id="Vector_9" d="M80.4272 117.302C80.1033 117.302 79.838 117.565 79.838 117.882V121.962H80.1708C80.5321 121.962 80.8199 121.668 80.8199 121.313V117.302H80.4272Z" fill="#0C0C0C"/>
<path id="Vector_10" d="M87.7427 117.302C87.395 117.302 87.0787 117.505 86.9287 117.822L85.4956 120.952L83.9576 117.595C83.8751 117.414 83.6937 117.302 83.4973 117.302H82.7583L85.0279 121.962H85.5031C85.7819 121.962 86.0383 121.803 86.1597 121.554L88.2329 117.302H87.7427Z" fill="#0C0C0C"/>
<path id="Vector_11" d="M90.5024 117.302V117.317C90.54 117.309 90.585 117.302 90.6301 117.302H90.5024Z" fill="#0C0C0C"/>
<path id="Vector_12" d="M91.0002 117.919V119.337H93.9789V119.956H91.0002V121.337H94.5066V121.964H90.0273V117.906C90.0273 117.619 90.2237 117.378 90.5025 117.318C90.54 117.311 90.585 117.303 90.63 117.303H94.5066V117.921H91.0002V117.919Z" fill="#0C0C0C"/>
<path id="Vector_13" d="M101.974 121.962H101.068C100.879 121.962 100.705 121.88 100.585 121.743L98.7521 119.685L97.6128 120.613V121.382C97.6128 121.698 97.3489 121.962 97.0236 121.962H96.6309V117.822C96.6309 117.535 96.8647 117.302 97.151 117.302H97.6113V119.738L100.229 117.513C100.388 117.377 100.59 117.302 100.801 117.302H101.684L99.4446 119.126L101.974 121.962Z" fill="#0C0C0C"/>
<path id="Vector_14" d="M106.408 117.302H105.57L102.997 121.962H103.684C103.91 121.962 104.122 121.833 104.227 121.631L104.58 120.937H107.394L107.71 121.556C107.839 121.805 108.096 121.964 108.375 121.964H108.977L106.408 117.302ZM104.9 120.318L105.985 118.198L107.079 120.318H104.9Z" fill="#0C0C0C"/>
<path id="Vector_15" d="M121.024 117.302H120.186L117.615 121.962H118.294C118.528 121.962 118.739 121.833 118.844 121.623L119.199 120.937H122.012L122.382 121.661C122.479 121.842 122.668 121.962 122.88 121.962H123.596L121.024 117.302ZM119.516 120.318L120.601 118.198L121.686 120.318H119.516Z" fill="#0C0C0C"/>
<path id="Vector_16" d="M130.014 117.302C129.765 117.302 129.568 117.505 129.568 117.747L129.681 120.907L126.272 117.302H125.382V121.955H125.857C126.128 121.955 126.354 121.736 126.354 121.465L126.233 118.409L129.634 121.955H129.898C130.252 121.955 130.532 121.676 130.532 121.321V117.302H130.014ZM115.398 117.305C115.149 117.305 114.952 117.508 114.952 117.75L115.065 120.91L111.656 117.305H110.766V121.958H111.241C111.512 121.958 111.738 121.739 111.738 121.468L111.617 118.412L115.018 121.958H115.282C115.636 121.958 115.916 121.679 115.916 121.324V117.305H115.398Z" fill="#0C0C0C"/>
<path id="Vector_17" d="M137.547 118.071C137.343 117.814 137.041 117.625 136.641 117.498C136.248 117.371 135.766 117.302 135.208 117.302H133.534C133.24 117.302 132.998 117.543 132.998 117.837V121.766C132.998 121.871 133.081 121.962 133.195 121.962H135.208C135.766 121.962 136.241 121.895 136.641 121.766C137.041 121.638 137.343 121.442 137.547 121.193C137.758 120.944 137.863 120.643 137.863 120.288V118.969C137.864 118.621 137.758 118.319 137.547 118.071ZM136.862 120.318C136.862 120.642 136.718 120.89 136.439 121.072C136.152 121.253 135.752 121.336 135.24 121.336H133.98V117.919H135.24C135.752 117.919 136.152 118.009 136.439 118.191C136.718 118.372 136.862 118.621 136.862 118.945V120.318Z" fill="#0C0C0C"/>
</g>
<g id="Group_4">
<path id="Vector_18" d="M84.5196 88.5192C84.5196 88.5192 80.4391 61.7067 99.1956 49.4427C117.952 37.1787 126.851 34.0516 134.665 19.2632C134.665 19.2632 144.525 90.2027 86.4504 90.4441C86.4504 90.4441 113.984 76.0154 125.648 43.7927C125.648 43.7912 108.92 73.6094 84.5196 88.5192Z" fill="#0C0C0C"/>
<path id="Vector_19" d="M85.7293 85.2722C85.7293 85.2722 83.6846 60.383 99.4369 51.0047C99.4369 51.0047 131.24 34.0516 134.667 19.2617C134.667 19.2617 130.218 49.9224 85.7293 85.2722Z" fill="#0C0C0C"/>
<path id="Vector_20" d="M92.6432 88.5192C92.6432 88.5192 133.567 91.399 134.477 19.9813C134.478 19.9813 122.403 68.1392 92.6432 88.5192Z" fill="#0C0C0C"/>
<path id="Vector_21" d="M82.364 89.1203C82.364 89.1203 85.611 62.0664 45.9319 64.4725C45.9319 64.4725 55.4301 70.7251 59.9993 81.3056C59.9993 81.3056 63.5536 91.6088 80.9204 90.444C80.9204 90.444 70.6997 74.8131 58.3158 69.6428C58.3158 69.6413 73.3456 74.8116 82.364 89.1203Z" fill="#0C0C0C"/>
<path id="Vector_22" d="M45.9319 64.471C45.9319 64.471 62.4233 69.5259 74.1971 81.9083L80.9204 90.4425C80.9204 90.4425 64.7633 90.459 59.4956 80.2008C59.4956 80.2008 52.6043 65.8546 45.9319 64.471Z" fill="#0C0C0C"/>
<path id="Vector_23" d="M45.9319 64.471C45.9319 64.471 80.5606 60.9242 80.9204 86.5344C80.9204 86.5344 65.0497 66.0345 45.9319 64.471Z" fill="#0C0C0C"/>
</g>
</g>
</g>
</svg>
