<svg width="559" height="622" viewBox="0 0 559 622" fill="none" xmlns="http://www.w3.org/2000/svg">
<path d="M127.365 602.365V606.216V617H0.270302V602.365C14.1352 602.365 24.919 598.513 33.392 590.811C41.0947 583.108 46.4866 570.784 48.0271 553.067L65.7433 70.8778H64.9731C64.9731 70.8778 65.7433 69.3373 65.7433 67.7967C65.7433 51.621 61.892 38.5264 55.7298 29.2832C49.5677 20.0399 40.3244 15.4183 29.5406 15.4183H21.8379V0.783145H105.027L343.041 561.54L570.271 0.783145H657.312V15.4183C643.447 15.4183 633.433 19.2696 626.501 26.2021C619.568 33.1345 615.717 44.6886 614.947 60.8642L636.514 546.905C637.285 566.932 641.906 580.797 649.609 589.27C657.312 598.513 668.866 602.365 684.271 602.365V617H546.393V602.365H554.095C564.879 602.365 574.122 597.743 580.284 588.5C586.447 579.257 589.528 566.932 589.528 549.986V546.905C586.447 462.176 583.366 377.446 580.284 292.716C577.203 207.986 574.122 123.256 571.041 36.9859L333.027 621.622H321.473C281.419 527.649 240.595 434.446 200.541 342.013C160.487 249.581 120.433 155.608 80.3785 61.6346L62.6623 543.824C63.4325 562.311 68.8244 576.176 78.0677 586.959C87.3109 597.743 100.406 602.365 116.581 602.365H127.365Z" fill="#0C0C0C" fill-opacity="0.05"/>
</svg>
