<svg width="150" height="150" viewBox="0 0 150 150" fill="none" xmlns="http://www.w3.org/2000/svg">
<g clip-path="url(#clip0_90_153)">
<mask id="mask0_90_153" style="mask-type:alpha" maskUnits="userSpaceOnUse" x="-1" y="0" width="151" height="150">
<path fill-rule="evenodd" clip-rule="evenodd" d="M106.368 148.976C107.561 149.441 108.838 149.656 110.118 149.607C111.398 149.557 112.655 149.245 113.809 148.69L144.691 133.829C146.282 133.064 147.624 131.865 148.563 130.37C149.502 128.876 150 127.146 150 125.381V24.6199C150 22.8546 149.502 21.1251 148.563 19.6303C147.624 18.1356 146.282 16.9364 144.691 16.1707L113.809 1.31248C112.064 0.472842 110.101 0.196392 108.192 0.521395C106.283 0.846398 104.522 1.75678 103.153 3.12655L44.032 57.0633L18.2813 37.5152C17.1195 36.6337 15.6858 36.1864 14.2288 36.2511C12.7719 36.3157 11.3835 36.8881 10.3043 37.8691L2.04492 45.382C1.40127 45.9674 0.886891 46.6808 0.534696 47.4763C0.182502 48.2719 0.000244003 49.1323 -0.000417808 50.0023C-0.00107962 50.8724 0.179869 51.733 0.530853 52.5291C0.881837 53.3253 1.39513 54.0394 2.03789 54.6258L24.3703 75L2.03906 95.3754C1.39665 95.9619 0.883666 96.6759 0.532901 97.4719C0.182135 98.2679 0.00130335 99.1284 0.00196509 99.9982C0.00262683 100.868 0.184767 101.728 0.536744 102.524C0.88872 103.319 1.40279 104.032 2.04609 104.618L10.3055 112.131C11.3845 113.112 12.7728 113.685 14.2298 113.749C15.6868 113.814 17.1205 113.367 18.2824 112.486L44.0332 92.939L103.154 146.875C104.069 147.789 105.163 148.505 106.368 148.976ZM112.522 40.9488L67.6641 75L112.523 109.052L112.522 40.9488Z" fill="white"/>
</mask>
<g mask="url(#mask0_90_153)">
<path d="M144.693 16.1954L113.786 1.31254C112.04 0.471825 110.076 0.19479 108.166 0.519816C106.256 0.844842 104.494 1.75584 103.125 3.1266L1.94766 95.3754C1.30476 95.9616 0.791347 96.6756 0.44027 97.4716C0.0891939 98.2677 -0.0918065 99.1283 -0.0911447 99.9983C-0.0904828 100.868 0.0918268 101.729 0.444114 102.524C0.796401 103.32 1.3109 104.033 1.95469 104.618L10.2188 112.131C11.2981 113.113 12.6874 113.687 14.1454 113.751C15.6034 113.816 17.0381 113.369 18.2004 112.486L140.041 20.0543C144.129 16.9536 150 19.8692 150 24.9997V24.6411C150 22.8763 149.502 21.1474 148.563 19.6531C147.624 18.1588 146.283 16.961 144.693 16.1954Z" fill="#0065A9"/>
<g filter="url(#filter0_d_90_153)">
<path d="M144.693 133.806L113.786 148.686C112.04 149.527 110.076 149.805 108.166 149.48C106.256 149.156 104.495 148.245 103.125 146.875L1.94766 54.6247C1.30476 54.0385 0.791347 53.3245 0.44027 52.5285C0.0891939 51.7324 -0.0918065 50.8718 -0.0911447 50.0018C-0.0904828 49.1318 0.0918268 48.2715 0.444114 47.476C0.796401 46.6805 1.3109 45.9673 1.95469 45.3821L10.2188 37.8692C11.2981 36.8868 12.6874 36.3135 14.1454 36.2486C15.6034 36.1837 17.0381 36.6315 18.2004 37.5141L140.041 129.945C144.129 133.047 150 130.131 150 125V125.359C150 127.124 149.502 128.853 148.563 130.347C147.624 131.841 146.283 133.04 144.693 133.806Z" fill="#007ACC"/>
</g>
<g filter="url(#filter1_d_90_153)">
<path d="M113.787 148.69C112.04 149.529 110.077 149.805 108.167 149.48C106.257 149.155 104.495 148.244 103.125 146.875C106.584 150.334 112.5 147.884 112.5 142.991V7.00775C112.5 2.11518 106.584 -0.335215 103.125 3.12533C104.495 1.75563 106.257 0.845295 108.167 0.520121C110.077 0.194947 112.04 0.470987 113.787 1.3101L144.688 16.1718C146.279 16.937 147.622 18.136 148.562 19.6308C149.502 21.1256 150 22.8554 150 24.621V125.381C150 127.147 149.502 128.877 148.562 130.371C147.622 131.866 146.279 133.065 144.688 133.83L113.787 148.69Z" fill="#1F9CF0"/>
</g>
<path opacity="0.25" fill-rule="evenodd" clip-rule="evenodd" d="M106.277 148.976C107.471 149.441 108.747 149.655 110.027 149.606C111.307 149.557 112.563 149.245 113.718 148.69L144.6 133.829C146.191 133.064 147.533 131.864 148.472 130.37C149.411 128.875 149.909 127.145 149.909 125.38V24.6199C149.909 22.8546 149.411 21.1251 148.472 19.6303C147.533 18.1356 146.191 16.9364 144.6 16.1707L113.718 1.31248C111.973 0.472842 110.01 0.196392 108.101 0.521395C106.191 0.846398 104.431 1.75678 103.062 3.12655L43.9406 57.0633L18.1898 37.5164C17.028 36.6348 15.5944 36.1876 14.1374 36.2523C12.6805 36.3169 11.2921 36.8893 10.2129 37.8703L1.95352 45.3832C1.31002 45.9687 0.79579 46.6821 0.443699 47.4776C0.0916079 48.2732 -0.0905935 49.1335 -0.0912553 50.0035C-0.0919171 50.8735 0.0889753 51.7341 0.439856 52.5302C0.790736 53.3263 1.30388 54.0404 1.94649 54.6269L24.2789 75L1.94766 95.3742C1.30489 95.9606 0.791603 96.6747 0.440619 97.4708C0.0896354 98.267 -0.0913134 99.1276 -0.0906516 99.9976C-0.0899897 100.868 0.0922681 101.728 0.444463 102.524C0.796657 103.319 1.31103 104.033 1.95469 104.618L10.2141 112.131C11.2931 113.112 12.6814 113.685 14.1384 113.749C15.5954 113.814 17.0291 113.367 18.191 112.486L43.943 92.9379L103.064 146.875C103.979 147.789 105.073 148.505 106.277 148.976ZM112.432 40.9476L67.5727 75L112.432 109.051V40.9476Z" fill="url(#paint0_linear_90_153)"/>
</g>
</g>
<defs>
<filter id="filter0_d_90_153" x="-9.85755" y="26.476" width="169.624" height="132.903" filterUnits="userSpaceOnUse" color-interpolation-filters="sRGB">
<feFlood flood-opacity="0" result="BackgroundImageFix"/>
<feColorMatrix in="SourceAlpha" type="matrix" values="0 0 0 0 0 0 0 0 0 0 0 0 0 0 0 0 0 0 127 0" result="hardAlpha"/>
<feOffset/>
<feGaussianBlur stdDeviation="4.8832"/>
<feColorMatrix type="matrix" values="0 0 0 0 0 0 0 0 0 0 0 0 0 0 0 0 0 0 0.25 0"/>
<feBlend mode="overlay" in2="BackgroundImageFix" result="effect1_dropShadow_90_153"/>
<feBlend mode="normal" in="SourceGraphic" in2="effect1_dropShadow_90_153" result="shape"/>
</filter>
<filter id="filter1_d_90_153" x="93.3586" y="-9.37895" width="66.4078" height="168.758" filterUnits="userSpaceOnUse" color-interpolation-filters="sRGB">
<feFlood flood-opacity="0" result="BackgroundImageFix"/>
<feColorMatrix in="SourceAlpha" type="matrix" values="0 0 0 0 0 0 0 0 0 0 0 0 0 0 0 0 0 0 127 0" result="hardAlpha"/>
<feOffset/>
<feGaussianBlur stdDeviation="4.8832"/>
<feColorMatrix type="matrix" values="0 0 0 0 0 0 0 0 0 0 0 0 0 0 0 0 0 0 0.25 0"/>
<feBlend mode="overlay" in2="BackgroundImageFix" result="effect1_dropShadow_90_153"/>
<feBlend mode="normal" in="SourceGraphic" in2="effect1_dropShadow_90_153" result="shape"/>
</filter>
<linearGradient id="paint0_linear_90_153" x1="74.9086" y1="0.386702" x2="74.9086" y2="149.613" gradientUnits="userSpaceOnUse">
<stop stop-color="white"/>
<stop offset="1" stop-color="white" stop-opacity="0"/>
</linearGradient>
<clipPath id="clip0_90_153">
<rect width="150" height="150" fill="white"/>
</clipPath>
</defs>
</svg>
